<?xml version="1.0" standalone="no"?>
<!DOCTYPE svg PUBLIC "-//W3C//DTD SVG 1.1//EN" "http://www.w3.org/Graphics/SVG/1.1/DTD/svg11.dtd" >
<svg xmlns="http://www.w3.org/2000/svg">
<metadata></metadata>
<defs>
<font id="chillerregular" horiz-adv-x="621" >
<font-face units-per-em="2048" ascent="1638" descent="-410" />
<missing-glyph horiz-adv-x="573" />
<glyph horiz-adv-x="2048" />
<glyph horiz-adv-x="2048" />
<glyph unicode="&#xd;" horiz-adv-x="2048" />
<glyph unicode=" "  horiz-adv-x="573" />
<glyph unicode="&#x09;" horiz-adv-x="573" />
<glyph unicode="&#xa0;" horiz-adv-x="573" />
<glyph unicode="!" horiz-adv-x="510" d="M125 1237v27l4 20l6 19l23 18l28 10h33l37 -2l25 -12l22 -14l16 -19l15 -20l8 -21l6 -37l-6 -28l-10 -31l-8 -33l-5 -33l-6 -43l-4 -49l-6 -57l-2 -49l-6 -56l-4 -106v-49l-8 -97l-2 -49l2 -47l4 -43v-114l-25 -50l-16 -8l-17 8l-10 23l6 22l-8 43l-2 48l-10 92l-8 30 l-9 37v82l-6 31v35l8 20l-4 25v57l-6 27l-2 28l-14 31l-12 76v41l-9 51l7 39v39l-7 27l-8 30zM158 39l10 18l12 25l25 22l31 17l28 8l27 -10l20 -4l23 6l22 10l23 -10l6 -21l-10 -26l-19 -64l-32 -12l-19 -18l-24 -27l-35 -10l-35 -9l-25 56l-22 18z" />
<glyph unicode="&#x22;" horiz-adv-x="567" d="M63 897l11 8h14v-10l-14 -8zM88 1382v35l8 23l13 22l26 25l23 2l30 -10l25 -13l16 -18l4 -12l19 -9h61l27 -10l25 -8l14 -20l20 -29l7 -39v-37l-5 -10v-27l2 -43l-2 -39v-49l-6 -35l-6 -39l-4 -32l-4 -39l2 -41l-2 -39l4 -39l4 -23v-36l-4 -13l-2 -8l-4 -8l-8 -8l-9 -6 l-10 6l-10 8l-4 29l-6 24l-8 27l-11 28l-4 27l4 16l-8 33l-4 33l-6 43l-8 51l-11 49l-10 37l-2 21l-4 20l-12 19l-4 4l-11 2l-8 -2l-4 -6v-27l-2 -12l-6 -29l-2 -33l-6 -35l-4 -32l-6 -54l-5 -41l-2 -45v-39l2 -32v-31l-4 -29l-8 -6l-14 -2l-14 6l-21 58l-4 47v39l-6 39 l-2 34l4 41l-4 35l4 57l4 43v50l-4 43l-8 34l-7 35l-14 23zM307 567l17 15l12 -9v-12l-10 -8l-17 6z" />
<glyph unicode="#" horiz-adv-x="2177" d="M82 500l18 20l31 8l37 9l39 8l31 2l36 -6l48 -6l24 10l12 28l19 19l16 14l10 -12l-4 -19v-26l9 -8l34 -4l37 -2h43l35 -7l64 2h30l23 7v30l4 35l-8 86l12 86l-8 29l6 31v26l-16 27l-43 -4l-64 -4l-53 -7l-107 -4l-45 -10h-57l-57 2l-39 10l-37 13l-10 26l6 27l28 16 l37 11l35 10h37l43 2l31 -2l20 8l17 23l16 18l22 16l11 -16l-4 -45l18 -12l31 2l39 -4l30 2l33 -2l31 -7l29 9l6 55v33l-9 32l5 29v41l-29 31l-47 6l-15 29l-26 26l4 21l18 2l27 -10l18 -5h25l14 11l-10 20l-10 23l-6 22l6 21l16 12l31 10l29 4l36 -6l27 -10l19 -19l-7 -22 l7 -25l10 -18l16 -23l4 -26l-4 -35l-6 -37l-10 -22l2 -21l-10 -29l-2 -28l-7 -33l-2 -23l11 -24l24 -14l41 -7h37l45 -4h86l33 4h35l49 -8l37 -2h39l14 27l4 41l-2 55l8 45l14 37l7 39l2 20l-9 19l7 26l8 23l4 18l-4 19l8 26l33 11l37 8l36 -8l39 -2l31 -4l19 -3l6 -16 l18 -12l8 -19l-8 -22l-16 -19l-19 -18l-8 -18l-6 -27l-16 -21l-17 -26l-12 -29l-6 -26l-13 -15l-2 -26l-10 -25l-8 -33l-6 -28l16 -17h29l37 -2h39l41 2h28l33 -2l39 -4l31 4h35l36 -4h60l31 -4l28 8l29 -4l18 -6l11 -16l-23 -9l-31 -4l-35 -4l-45 -2h-49l-65 2l-51 -4 l-48 2h-55l-55 -2l-31 -6l-27 -4l-20 -8l-14 -19l-11 -26l-2 -29l-6 -31l-4 -139l4 -25l-4 -32l23 -13l28 -8l35 2l37 4h76l84 4h108l43 6l41 -6l45 8l47 3h56l61 4l53 10l29 -4l-6 -10h-41l-47 -5l-59 -8l-56 -2l-55 -6h-53l-54 -8h-63l-70 -8l-205 -15l-30 -8l-27 -2 l-6 -16l-4 -29l-8 -47v-35l-8 -43l-9 -35l-2 -39l-10 -34l-8 -33l-2 -43l-6 -47l-4 -66l2 -29v-24l-21 -4l-16 16l-8 27l8 84l6 47l4 49v39l10 47l4 47l-6 45l-2 47l4 31l4 35l-34 4l-56 -4l-31 -6l-30 -8l-25 -9h-92l-109 -4l-47 -6l-43 -2l-28 -12l-11 -23l-6 -41l-2 -45 l-8 -33l14 -51v-76l-4 -43l-2 -36l-8 -37l-4 -37v-70l-6 -24v-29l-8 -23l-21 -4l-20 25v33l8 47l4 92v53l-4 47l-4 41l-6 41l-9 35v35l3 31l8 36l8 27l-10 29l-33 2l-283 -2l-43 -4h-65l-45 -4l-56 2l-37 12l-20 16zM756 567l10 -22l27 -10l38 -5l48 5h102l63 2h52l65 8 l92 4v26l-6 35l-4 154l-6 53v43l-8 27l-43 4h-47l-64 6l-67 -10l-54 2l-51 -2l-55 -4l-41 -4l-31 -19v-20l-2 -35l-6 -29l-10 -80v-94zM1432 -127l14 14l27 -2l8 -28l-13 -11l-22 -2z" />
<glyph unicode="$" horiz-adv-x="727" d="M0 1128l27 15l18 -15l4 -24l-22 -14l-25 12zM82 197v18l22 -6l25 -4l29 -10l32 -2l41 -5l31 -4l43 -4l2 31l-6 27l-4 43l-2 36l2 45v41l-2 27l6 21v22l-4 41l4 45l-6 39l-4 35l-4 31l-35 10l-33 10l-35 12l-30 19l-25 30l-20 29l-11 33l-4 37l4 39l8 47l17 51l12 33 l17 35l16 32l20 33l23 23l45 28l2 41v45l4 37l-4 23l4 39l-2 47l10 35l-12 18l12 43l4 39l-12 22l-2 33l12 19l19 14l28 12l29 2l31 -16l18 -8l35 22l14 8l19 2l51 11l10 -11l6 -18l5 -37l4 -16l-4 -17l-17 -26l-22 -27l-17 -39l-6 -30l-2 -46l-12 -16l10 -45l-6 -39l-2 -26 h22l27 -9l31 -10l30 -16l35 -31l4 -18l23 -21l-2 -37l-4 -22l-31 -27l-31 -6h-39l-30 6l-23 10l-18 -22l-11 -35l-4 -49l4 -45l-10 -68v-47l8 -41l-8 -41l15 -31l30 -14l39 -12l43 -21l31 -28l27 -23l28 -37l8 -35l2 -51l5 -35l-5 -36l-10 -46l-18 -45l-27 -43l-24 -34 l-29 -27l-25 -18l-30 -19l6 -18l-10 -31l6 -37l-9 -37l5 -33l-5 -45v-63l-12 -12l12 -17l15 -28l14 -21l4 -29l-12 -8h-12l-19 15l-14 32l-10 47l-4 58l-2 47l2 57l-2 33l-5 33l-14 28l-29 7l-22 -2h-21l-20 -17l4 -33l-2 -41l-4 -34l2 -33v-31l-4 -37v-39l-6 -34v-56l6 -22 v-13l-17 13v14l-6 21l-2 34v54l-2 51l2 41l-4 92l2 41l-6 29l-29 6l-39 2l-36 4l-37 8l-27 4l-31 8zM213 866l6 -39l-4 -28l33 -25l31 -14l-3 47l-4 43l-6 41l-8 113l-25 -70l-16 -39zM332 926l6 -95l8 -86l37 -18l2 92l-6 49l-4 50l8 59l-2 61v58l-47 -25l4 -53l-2 -17 l-2 -20zM336 319l6 -43l-4 -77l2 -19h70l22 10l-14 43v39l-4 45v29l-6 19v34l-2 58l4 37l-2 34l-9 27l7 53l-25 21l-19 20l-12 -6l2 -18l-4 -27l-8 -31l4 -43l-2 -43l8 -49l-2 -51l-8 -25zM340 1223l22 14l25 12l6 49l-12 68l2 92l-27 -39l-8 -108l-8 -58v-30zM457 596 l6 -39l2 -41l6 -37l2 -53v-119l2 -51l10 -45l25 12l2 10l27 21l24 31l25 41l16 39l14 43v51l-8 43l-16 30l-29 31l-57 43l-16 4h-17z" />
<glyph unicode="%" horiz-adv-x="1075" d="M63 1155v27l3 28l14 31l8 29l4 41v35l10 24l21 33l20 22l23 19l31 14h39l28 -6l27 -8l28 -12l29 -15l23 -20l10 -23l8 -14v-25l-14 -10l-23 -14l-43 -8l-30 -23l-27 -29l-19 -28l-12 -29l-4 -33l-12 -65l14 -29l31 -25l31 -8h38l29 8l33 7l29 18l18 8l8 25l6 28l2 43 l-8 33l-4 29l-8 27l4 34l6 19l17 4l20 -14l8 -19l10 -31l5 -26l12 -23l6 -39l4 -32l-4 -21l-4 -37l4 -26l-10 -25l-23 -18l-18 -11l-27 -18l-31 -10l-28 -11l-39 -8l-33 -4l-53 -4l-33 8l-45 15l-22 14l-29 29l-25 28l-14 33l-8 29l-6 30zM90 -61l14 34l19 33l16 19l19 16 l22 16l17 29l8 27l12 30l14 33l15 31l6 33l20 30l15 33l2 19l14 26l10 27l15 31l10 32l12 29l17 31l14 32l8 29l14 31l15 20l14 33l14 31l17 33l16 43l19 32l14 39l14 35l11 31l12 28l10 29l4 33l8 33l17 28l24 33l21 33l10 22l35 54l18 24l15 33l6 23v28l8 25l16 33l13 28 l4 37l4 33l12 22l14 13l27 8h31l26 -4l29 -10l23 -15l18 -20l8 -27l-4 -18l-10 -19l-14 -14l-13 -14l-22 -37l-15 -25l-6 -24l-16 -27l-10 -29l-25 -22l-12 -31l-15 -14l-16 -33l-22 -35l-2 -16l-17 -19l-12 -28l-2 -29l-15 -29l-16 -35l-24 -43l-21 -41l-29 -38l-12 -27 l-12 -8l-15 -35l-16 -31l-14 -8l-2 -23l-15 -24l-18 -27l-16 -28l-7 -17l-20 -14l-8 -23l-15 -30l-8 -21l-14 -14l-10 -31l-15 -37l-16 -33l-17 -22l-4 -19l-14 -22l-12 -27l-23 -28l-14 -29v-16l-6 -15l-15 -28l-14 -31l-8 -23l-12 -14l-7 -18l-14 -27l-8 -29v-30l6 -25 l4 -18l-4 -13l-2 -26l-10 -17l-15 -10l-26 -8l-27 -6l-14 -4l-17 10l-10 18l-6 25v31zM342 1274l16 8l7 -12l-13 -10zM504 242l4 28l12 37l8 27l13 22l16 25l21 16l24 29l27 27l26 28l7 31l2 29l10 20l12 14l25 15l24 2l35 -2l27 -8l18 -15l16 -18l15 -27l4 -16l-10 -14 l-23 -17l-20 -2l-25 -4l-22 -14l-19 -11l-20 -22l-23 -27l-16 -26l-23 -21l-16 -26l-19 -25l-6 -31l-8 -30v-29l12 -43l9 -31l14 -27l14 -20l33 -16l31 -9l43 -4h45l45 13l35 16l37 29l24 32l16 31l13 29v33l-2 30l-13 29l-20 27l-25 20l-22 10l-23 9l-20 2l-15 8h-14l-4 8 l2 14l16 11h27l27 -2l26 -11l25 -14l18 -16l19 -31l20 -21l8 -18l11 -35v-24l-4 -39l-13 -33l-16 -31l-21 -20l-18 -17l-12 -24l-19 -11l-28 -20l-27 -14l-23 -7l-22 -10h-25l-20 -10l-23 -2l-28 -2l-25 10h-29l-30 14l-29 9l-29 24l-14 19l-16 28l-13 27l-6 27l-6 28 l-10 29zM631 537l12 10l12 -6l-10 -11l-12 -4z" />
<glyph unicode="&#x26;" horiz-adv-x="1075" d="M63 1313v18l19 6l22 -2l13 -16l6 -16l20 2l17 -7l8 -10l-4 -20l-12 -11l-19 5l-20 8l-2 12l6 14l-15 -4h-14l-12 4zM74 231l2 35l6 33l4 37l8 31l2 32l10 21l17 18l10 31l10 20l9 25l6 16l14 19l18 22l19 19l20 24l23 21l22 22l19 23l12 18l6 11l2 14l-10 4l-22 12l-29 6 l-19 21l-18 16l-16 21l-17 31l-4 34l-6 35l8 33l2 35l6 33l2 32l9 35l12 33l14 29l8 24l3 12v15l-9 24l-10 19l-6 24l4 25l18 16l25 2h25l18 4l23 5l45 45l20 16l27 14l30 8l27 3l31 -3l37 -8l32 -10l35 -8l35 -23l31 -10l14 -16l19 -6l24 -23l19 -20l22 -21l21 -31l2 -28 l6 -31v-35l-8 -18l-25 -17l-25 -8l-26 -6l-29 6l-14 8l-25 9l-18 16l-17 27v18l7 20l-17 21l-24 16l-33 9l-39 -3l-35 -6l-18 -14l-21 -16l-16 -21l-21 -18l-26 -39l-23 -29l-16 -31l-10 -34l-17 -33l-4 -25l-10 -12l2 -18l-6 -33l14 -33l23 -27l26 -18l29 -14l27 -11 l40 -10l52 -4l34 6l25 17l29 24l35 35v12l12 15l10 8l16 8l31 2l35 -2l31 -10l18 -13l21 -20l8 -23l6 -8l-6 -18l-8 -19l4 -14l14 -8l29 -8l47 -2l35 -5h22l6 11h13l8 -17l16 -10l19 -14l4 -15l-11 -18l-14 -10h-37l-26 -4l-31 4h-74l-35 -4l-28 -6l-17 -15l-12 -22l-2 -33 l-4 -33v-35l4 -35l2 -34l4 -29l6 -33l6 -35v-32l13 -31l10 -29l8 -33l4 -34l6 -41l17 -78l8 -35l10 -25v-16l12 -10l17 -25l2 -12l10 -6l4 -25l10 -16l3 -16l-7 -13l-12 -2h-12l-15 10l-18 29l-18 23l-21 26l-20 19l-58 49l-18 18l-19 15l-16 -13l-2 -10l-25 -22l-36 -23 l-62 -20l-33 -3h-57l-29 -2l-14 9l-45 8l-39 16l-39 19l-33 18l-30 23l-35 22l-35 29l-23 28l-14 27l-14 31zM139 231l11 -18l2 -25l12 -24l22 -27l29 -22l21 -21l26 -20l33 -27l39 -16l33 -13l28 -6l33 -6h57l41 4l39 13l31 16l25 22l22 25v20l-2 35l-6 35l-4 29l-15 28 l-2 27l-2 43v37l-8 39l-2 35l-8 35l-6 30v27l-8 24l-2 31l-5 37v29l-14 22l-12 25l-21 14h-32l-37 -8l-29 -8l-18 -17l-29 -16l-29 -21l-24 -26l-25 -19l-20 -14l-37 -53l-19 -12l-2 -17l-28 -45l-17 -29l-8 -24l-14 -19l-6 -34l-9 -27zM537 840v12l12 10l16 -2l8 -14 l-6 -12l-20 -7zM739 -88l15 16l14 -8v-10l-12 -10z" />
<glyph unicode="'" horiz-adv-x="350" d="M63 1425l5 31l18 25l20 12l37 2l27 -6l25 -8l6 -13l14 -12l21 -24l10 -25v-25l-10 -8l-3 -28l-14 -37l-4 -23l-6 -6v-25l-8 -14v-14l-11 -23l-2 -33l-6 -22l4 -33v-26l-8 -37v-31l-8 -27l2 -12l-2 -18l8 -31l-14 -29l-10 -8h-15l-14 18l-6 25v33l-2 47l2 29l-2 47l-6 28 v33l-9 8v56l-8 43v41l-2 38l-12 27l-6 23zM123 858v10l10 6l10 -6l-8 -10h-12z" />
<glyph unicode="(" horiz-adv-x="819" d="M213 578l6 36l-6 41l6 35v45l6 45l2 31v39l9 41l4 35l12 30l4 25l4 27l14 28l2 31l15 29l6 37l16 32l15 45l10 37l14 49l10 43l15 39l31 39l14 37l18 25l35 37l29 20l22 27l19 28l8 41l14 25l11 31l18 22l33 19l28 4l48 -2l32 -13l25 -14l26 -16l15 -21l16 -20v-27 l-24 -12v-27l-23 -20l-29 -29l-32 -21l-39 -22l-19 -14l-20 -13l-15 -22l-26 -23l-19 -10l-6 -18l-14 -13l-12 -28l-29 -37l-20 -31l-25 -33l-12 -37l-21 -28l-16 -41l-10 -35l-17 -31l-14 -12l-10 -35l-11 -31l-18 -39l-12 -36l-9 -39l-12 -41l-8 -39l-8 -43l-4 -35 l-11 -53l-2 -41v-47l-2 -39v-80l2 -41l2 -21l7 -34l2 -37l4 -29l10 -47l6 -39l10 -35l19 -41l8 -32l18 -25l19 -47l12 -23l17 -14l16 -39l24 -31l13 -16l47 -59l12 -23l31 -25l24 -20l11 -14l24 -19l8 -16l-22 -8l-14 8l-19 18l-26 15l-9 24l-26 17l-21 24l-26 23l-15 28 l-24 29l-17 35l-28 24l-15 35l-16 37l-19 27l-12 30l-10 33l-14 27l-7 26l-10 37l-6 29l-6 35l-12 37l-9 59v41l-10 43l-4 43v35z" />
<glyph unicode=")" horiz-adv-x="819" d="M14 -158l25 13v26l22 21l29 28l33 21l39 22l18 15l21 12l14 23l27 22l18 10l6 19l15 12l12 29l29 37l20 30l25 33l12 37l20 29l17 41l10 34l16 31l15 12l10 35l10 31l19 39l12 37l8 39l12 41l9 38l8 43l4 35l10 54l2 40v48l2 39v79l-2 41l-2 21l-6 35l-2 36l-4 29l-10 47 l-7 39l-10 35l-18 41l-8 33l-19 24l-18 47l-13 23l-16 14l-16 39l-25 31l-12 16l-47 60l-13 22l-30 25l-25 20l-10 15l-25 18l-8 16l23 9l14 -9l18 -18l27 -14l8 -25l27 -16l20 -25l27 -22l14 -29l25 -29l16 -35l29 -24l14 -35l17 -37l18 -26l12 -31l11 -33l14 -27l6 -26 l10 -37l6 -29l7 -35l12 -36l8 -60v-41l10 -43l4 -43v-35l7 -28l-7 -37l7 -41l-7 -35v-45l-6 -45l-2 -31v-39l-8 -41l-4 -34l-12 -31l-4 -25l-5 -26l-14 -29l-2 -31l-14 -28l-6 -37l-17 -33l-14 -45l-10 -37l-15 -49l-10 -43l-14 -39l-31 -39l-14 -37l-19 -24l-35 -37 l-28 -21l-23 -26l-18 -29l-8 -41l-15 -25l-10 -30l-18 -23l-33 -18l-29 -4l-47 2l-33 12l-24 14l-27 17l-14 20l-17 21v26z" />
<glyph unicode="*" horiz-adv-x="784" d="M63 1233l11 22l28 9l35 2l41 -2l53 -7l13 -4l32 7l-24 28l-41 27l-43 35l-16 30l-5 37l21 19l33 2l47 -45l22 -15l17 -4l6 8l2 41l8 41l16 39l29 17l31 -4l10 -23l12 -35v-26l-8 -91l-6 -28l31 33l33 51l36 43l35 26l35 -8l37 -22l-6 -19l-19 -4h-30l-31 -10l-21 -29 l-30 -35l-25 -41l-8 -38l20 -7l64 -6l49 -4l55 8l58 -2l37 -2l14 -30l-10 -9l-23 -4h-41l-59 -6l-51 6h-95l-32 2l36 -30l48 -43l41 -48l18 -41l16 -38l-6 -17l-20 -6l-17 14l-22 31l-58 66l-32 43l-29 14l2 -53l-6 -33v-41l4 -84l8 -27l-14 -16l-14 -8l-17 14l-14 31l-6 45 v55l-11 70l2 31l-24 -45l-37 -56l-25 -47l-20 -47l-27 -18l-22 4l-14 16v29l22 41l29 43l51 57l35 53l-4 25l-181 8l-34 19zM119 1100l2 30l29 -2l14 -18l-10 -20l-17 -9z" />
<glyph unicode="+" horiz-adv-x="1184" d="M12 479l6 27l29 16l37 10l35 11h37l43 2l30 -2h54l47 -8l30 2l39 -5l31 3l33 -3l31 -6l28 9l6 55v33l-8 32l4 29v41l-4 31v37l-6 43l-10 20l-10 23l-7 22l7 21l16 12l31 10l28 4l37 -6l27 -10l18 -19l-6 -22l6 -25l11 -18l16 -23l4 -26l-4 -35l-6 -37l-10 -22l2 -21 l-11 -29l-2 -28l-6 -33l-2 -23l10 -24l25 -15l41 -6h37l45 -4h86l33 4h34l50 -8l36 -2l41 -4l17 -37l-51 -14h-48l-63 6l-68 -10l-53 2l-51 -2l-55 -4l-41 -4l-31 -19v-45l-4 -133l-10 -80l-13 -49l-49 -8l-26 49l12 86l-12 74l6 55v51l-17 27l-43 -4l-47 -9l-176 -6 l-45 -10h-57l-58 2l-39 10l-36 13zM561 35l2 31l29 -3l14 -18l-10 -20l-16 -9z" />
<glyph unicode="," horiz-adv-x="502" d="M143 29l11 28l28 29l13 29l49 28h43l22 4l27 -6l12 -18l6 -23v-57l2 -23l-4 -32l-14 -76l-14 -43l-17 -33l-12 -26l-19 -27l-16 -23l-18 -24l-13 -21l-16 -22l-23 -17l-16 -10l-10 2l-8 8l2 21l24 18l15 19l14 26l22 31l25 35l14 39l9 26l6 25v45l-15 12l-20 -12l-19 -10 l-20 -6h-23l-18 8l-14 16l-11 31z" />
<glyph unicode="-" horiz-adv-x="754" d="M63 342v37l13 29l30 20l29 10h131l37 -2l340 -76l21 -10l18 -14l8 -14l-12 -7l-37 -8h-43l-25 10l-22 -2l-39 2l-47 5l-37 -5l-33 -2l-43 -8l-65 -4l-25 -8l-63 -14h-31l-57 8l-23 10l-14 18z" />
<glyph unicode="." horiz-adv-x="502" d="M125 74l25 22l47 27l43 20h55l24 -10l9 -14l22 -4l21 -13l4 -20l-4 -21l-37 -32l-10 -19l-15 -20l-8 -8l-14 -21l-39 -29l-23 -2l-28 4l-17 15l-10 28l-6 13l-25 20l-6 13v14l-6 16zM297 -70l10 7l12 -5v-10l-10 -8z" />
<glyph unicode="/" horiz-adv-x="969" d="M0 -174l2 24l18 41l25 54l23 47l34 47l27 57l27 62l30 61l15 41l35 88l34 74l25 63l29 62l30 61l27 66l39 84l67 168l25 47l25 55l18 53l29 45l20 37l58 117l47 80l28 57l4 27l7 51l-9 39l-16 29l-2 28l18 19l39 8l35 -6l18 -15l19 -12l22 8l31 -6l33 -14l29 -23l4 -41 l-4 -20l-11 -21l-18 -30l-27 -11l-24 -26l-25 -43l-51 -98l-72 -127l-45 -54l-20 -51l-27 -57l-27 -51l-24 -56l-31 -55l-37 -57l-24 -37l-8 -29l-15 -18l-37 -66l-28 -49l-25 -33l-20 -45l-17 -33l-28 -59l-27 -47l-31 -60l-30 -61l-17 -39l-10 -33l-21 -32l-20 -39 l-14 -41l-13 -31l-14 -37l-16 -33l-29 -30l-19 -29l-16 -31l-20 -24l-23 -4z" />
<glyph unicode="0" horiz-adv-x="946" d="M72 768l4 27l10 45v18l10 21l4 57l15 59l14 39l12 53l39 93l19 39l26 36l27 25l8 16l39 25l43 29l35 -4l57 -3l31 -22l22 -12l19 -15l6 -10l16 -27l2 -10l-4 -18l-8 -17l-16 -8l-39 -28l-41 -41l-39 -37l-12 -17l-13 -6l-8 -16l-8 -10l-25 -37l-22 -39l-35 -68l-18 -51 l-25 -43l-18 -25l-4 -45v-51l-7 -41l2 -71l7 -62l12 -61l16 -56l11 -37l6 -20l10 -39l14 -45l23 -35l28 -39l31 -26l31 -23l33 -16l41 -15l26 -4l19 -4l51 -14l47 14l37 8l39 31l43 31l2 16l26 27l19 51l4 35l10 8l-2 23l8 18l11 55v66l-7 41l-6 45l13 39l8 55v57l-21 109 l-8 31v18l-24 41l-15 39l-18 37l-15 10l-4 17l-32 30l-21 33l-14 33l-8 33v32l2 17l10 8h8l8 -4l10 -21l21 -49l25 -41l30 -26l21 -25l8 -14l33 -43l20 -39l10 -10l9 -21l8 -39l12 -33l10 -37l8 -40l-6 -37l6 -15v-61l-2 -43l-16 -29l-2 -31v-18l-10 -18l-6 -41l6 -15 l-6 -22l-11 -43l-2 -39l-14 -47l-8 -39l-21 -51l-2 -17l-14 -10l-10 -20l-27 -19l-14 -35l-10 -12l-25 -6l-16 -10l-5 -13l-53 -26l-49 -17h-41l-22 11h-23l-35 14h-22l-25 12l-53 25l-19 12l-26 27l-49 32l-15 27l-10 8l-8 13l-12 24l-21 51l-18 64l-25 57l-14 66l-17 65 l-8 74l-10 59l-8 41v39zM90 1090l10 16l19 -6v-15l-17 -4zM379 369l14 12l13 -12l-3 -13h-14z" />
<glyph unicode="1" horiz-adv-x="645" d="M-27 934l7 24l14 33l10 19l10 39l6 32l13 29l28 37l25 16l27 29l12 16l8 19v14l10 25l11 12l20 16l16 9l48 59l18 29l12 20l17 6l20 15l35 6l33 -2l33 -11l30 -14l27 -20l18 -27l4 -23v-24l-4 -12v-21l-6 -16l-10 -35v-25l-10 -16l8 -37v-41l-10 -43l-9 -90l-8 -41l2 -51 l-4 -49v-43l2 -37l-6 -41l-2 -35v-55l-10 -37v-39l-8 -47l-9 -39l-10 -84l-2 -49l-2 -21l-10 -14l10 -31l-4 -45l4 -49v-45l2 -18l-2 -13l12 -26l7 -23l-7 -35l-10 -10h-16l-13 10l-12 39l-8 35l-8 57l-2 39l-6 66l2 65v66l6 84v192l-8 80l-11 66l-6 61l-12 56l-8 55l-2 65 l2 35l-2 29l-6 12l-13 8l-30 -8l-27 -16l-21 -25l-26 -22l-45 -60l-21 -30l-6 -19l-10 -16l-14 -27l-33 -18l-19 -4l-20 2l-10 10l-9 18zM49 1241l6 19l23 8l18 -13l2 -16l-12 -12l-20 -4z" />
<glyph unicode="2" horiz-adv-x="848" d="M-57 1137l10 10l10 4l12 -6v-12l-4 -15h-18zM23 111l18 24l29 41l24 45l29 35l22 25l29 53l27 41l18 45l57 94l35 59l33 39l23 23l12 20l18 21l27 24l70 82l34 31l23 29l20 16l17 23l16 24l10 27l15 24l8 93l-2 47l-17 32l-32 19l-19 16l-24 2l-31 6l-41 -10l-27 -16 l-34 -17l-23 -22l-29 -21l-45 -16l-30 -12l-17 -4l-18 -11l-66 -4l-18 2l-31 11l-18 18l-13 16l-4 25l4 23l11 12l18 29l21 20l12 18l26 21l31 18l33 17l20 2l13 16l53 10l57 17l37 8l47 -6h41l45 -6l39 -15l37 -20l23 -8l8 -17l37 -39l20 -30l21 -29l4 -33v-31l-4 -30 l6 -45l-2 -45l-15 -39l-18 -19l-33 -55l-16 -12l-37 -35l-12 -14l-19 -11l-12 -22l-35 -23l-29 -24l-36 -39l-27 -25l-12 -20l-25 -19l-2 -30l-27 -9l-14 -22l-25 -35l-20 -35l-12 -24l-35 -45l-21 -35l-43 -90l-18 -17l-12 -22l-37 -37l-12 -6l2 -8l-17 -29l-24 -29l2 -8 h88l33 -6l20 6l31 -2l43 2l47 -6l57 -8l33 -11l18 7l45 -7l17 2l43 -2l45 -6l35 6l12 -8h12l19 -10l-2 -14l-2 -4h-17l-30 -7l-48 7l-55 2h-49l-61 -9l-76 9h-127l-58 -9h-18l-45 -8l-27 -2l-22 -16l-27 4l-16 10l-4 10v27z" />
<glyph unicode="3" horiz-adv-x="899" d="M-63 1286l6 29l20 20l31 17l47 4h51l19 6l28 2l51 6l46 -8l55 10l57 6h31l39 -8h37l20 2h84l55 6l45 2l37 -2l31 2h37l24 -8l7 -29v-28l-2 -17l-15 -14l-30 -33l-27 -24l-25 -15l-32 -30l-31 -25l-35 -24l-29 -33l-14 -19l-23 -12l-20 -27l-31 -32l-35 -33l-28 -33 l-23 -29l-24 -28l-15 -29l-22 -29l-2 -12l10 -4l37 -20l24 2l33 2l21 -9l22 -2l25 -12l16 -10l21 -4l14 -10l39 -15l20 -30l17 -21l24 -20l9 -25l18 -14l6 -35l8 -19l15 -45l14 -39l10 -32v-37l-8 -39l-16 -45l-9 -37l-22 -45l-10 -31l-25 -41l-24 -6l-7 -22l-34 -25 l-33 -21l-27 -20l-45 -18l-43 -25l-45 -14l-31 -6h-22l-29 2l-18 6l-29 8l-22 4l-25 16l-23 21l-18 18l-10 21v10l10 8l16 -2l19 -2l14 -10l37 -51l16 -15l37 -4l41 6l25 2l22 15l37 24l39 19l21 16l45 45l45 80l18 39l12 37l13 39l6 55l-6 37l-2 49l-27 51l-39 15l-35 6 l-26 18l-27 17l-37 16l-45 4l-55 10l-29 4l-18 -4l-29 4l-39 7l-18 12l-13 6l-10 12l-10 17l-4 16l14 29l8 10l15 10l28 6l35 29l31 41l10 31l33 45l31 37l28 39l27 20l2 10l76 72l10 20l27 17l28 33l31 32l29 25l22 24l10 23l-4 8h-12l-39 -4l-47 -14l-31 -13l-32 -2 l-31 -16l-57 -6l-37 -14l-41 -11l-17 -16l-39 -12l-24 -6l-21 2l-28 -2l-19 2l-47 6l-47 4l-39 8l-31 8l-28 10l-25 27l-18 29z" />
<glyph unicode="4" horiz-adv-x="913" d="M49 623l10 30l15 33l6 25l16 39l15 24l26 47l13 47l14 43l2 33v33l8 29l21 28l16 15l14 24l25 41l16 29l10 35l19 57l12 25l-2 24l4 6l4 21l4 28l21 21l29 16l18 2l16 -2h17l22 -10l31 -16l37 -29l16 -31l-6 -18l-6 -21l-8 -10l-8 -18l-25 -25l-22 -31l-21 -30l-27 -27 l-20 -35l-21 -33l-16 -18l-10 -4l-6 -25l-11 -24l-8 -31l-4 -25l-33 -51l-10 -28l-18 -29l-19 -25l-14 -20l-8 -27l-6 -18l4 -12l12 -7l25 -8l30 -4h29l29 -4l28 4l29 2l20 2l11 8v35l-11 27l7 49l20 35l-2 35v47l2 16v31l6 24l15 11h16l16 -11l15 -20l20 -16l14 -19l5 -29 v-63l-2 -25v-28l2 -23v-22l-2 -17l8 -10l12 -20l16 -5l23 5l24 6h156l12 10l31 -6l27 10v-14l16 -6l2 -9l-2 -14l-16 -14h-23l-12 2l-23 -2l-16 -11l-12 -8l-8 -6l-43 -14l-39 -8l-37 -9l-41 -6l-25 -2l-10 -20v-181l4 -45l-14 -22l-27 -14l-6 -5l2 -18l10 -29v-37l-26 -20 v-29l8 -37l8 -51l8 -24l-4 -23v-24l-6 -29l-4 -23l-4 -12h-15l-10 2l-4 10l-14 35v35l14 31l-8 39l-2 37l-8 30l2 39l-2 51l-11 33v45l-4 49l-2 54l2 51l4 47l-10 26l-4 17l-20 2l-23 8l-47 2l-35 6l-49 -6l-39 -2l-22 -14l-25 -15l-27 -16l-34 -16l-19 -4l-12 8l-17 4 l-12 16l2 27zM754 750v10l14 2l6 -10l-4 -7z" />
<glyph unicode="5" horiz-adv-x="874" d="M63 1055l3 26l12 29v10l8 21l-4 30v25l14 23l27 16l27 8l18 4l43 -10l45 -18l37 -15l29 -14l57 -12l45 -13l41 -4l39 -10h51l43 8h33l39 -8h39l34 6l35 8l35 -4l23 -4l4 -14l-4 -13v-12l-9 -14l-34 -19l-35 -12l-37 -2l-4 -8l-21 -8l-41 -11l-30 -8h-31l-66 -2l-200 -14 l-37 -6l-35 -17l-8 -24l-8 -41l-15 -45v-19l-6 -39l-2 -36l8 -41l8 -11l29 -10l21 -6l10 2l26 -2l19 -8l20 4l31 -16l39 -9l33 -6l51 -18l39 -23l33 -43l20 -31l4 -18l23 -37l4 -20l14 -19l2 -20l19 -17l4 -41l-2 -45l-17 -45l-22 -30l-8 -13l-17 -16l-20 -39l-39 -39 l-27 -35l-28 -22l-43 -37l-25 -16l-41 -13l-51 -24l-31 -9l-27 -2l-49 -8l-47 10l-39 19l-30 22l-15 23l-2 27l-6 12l4 10l2 10l17 4l18 -14l12 -18l23 -23l24 -10l41 -6l45 6l27 10l37 8l37 23l35 14l26 31l35 29l37 45l24 39l33 38l19 27l12 19l8 22l-2 19l-8 36l-21 31 l-22 43l-19 33l-28 29l-12 16l-21 10l-37 8h-47l-47 17h-111l-41 -4l-28 4l-25 12l-18 29l-6 45l-15 49v47l-2 57l2 35l8 47v41l-18 17l-20 28zM850 1151l8 10l12 4l4 -16l-14 -6z" />
<glyph unicode="6" horiz-adv-x="793" d="M63 322l11 14l4 24l10 17l8 45l-2 43v137l8 57l9 62l6 57l16 51l10 56l21 45l24 57l31 31l37 45l25 47l12 20l16 37l23 23l10 27l20 16l17 31l8 30l8 27l21 37l28 18l31 -2l27 2l35 -18l14 -8l22 -33l-6 -29l-10 -14l-8 -2l-23 -17l-24 -22l-29 -43l-49 -70l-14 -8 l-25 -39l-27 -47l-30 -49l-64 -105l-8 -22l-12 -12l-8 -31l-19 -27v-20l-8 -17l2 -16l-10 -27l-11 -65l-4 -100l-4 -54v-59l-4 -57l10 -23l17 -43l20 -35l21 -31l30 -28l48 -25l51 -2h24l33 6l29 6l18 17l25 37l18 41l4 61l-6 47l-16 33l-23 33l-24 22l-39 17l-29 -9 l-20 -20l-29 -18l-12 -11l-15 -4l-30 -2l-11 2l-10 6l-10 17l-4 14l8 39l18 41l27 29l31 39l26 20l31 18l37 9l25 4l24 -8h35l16 -11l52 -20l16 -4l22 -17l46 -18l28 -31l19 -26l8 -21l8 -45l2 -16l-2 -19l-8 -43l-8 -51l-2 -29l-11 -18l-22 -31v-18l-19 -31l-28 -43 l-15 -25l-16 -14l-31 -29l-43 -12l-43 -18l-51 -2l-96 -11l-21 7l-28 -2l-27 6l-31 4l-26 16l-31 19l-43 61l-29 43l-14 45l-14 43zM287 383v23l14 8l27 -2l6 -17l-10 -16l-21 -2zM465 711l8 10l12 -4v-12l-12 -5z" />
<glyph unicode="7" horiz-adv-x="866" d="M-31 1264l2 24l11 12l12 9l24 12h37l27 -2l29 -8l30 -21l70 -18l51 -2l49 4h154l53 8l41 2h25l18 4l49 -4l56 -4l30 -8l35 2l12 -8l4 -13l11 -26v-4l-6 -6v-13l-15 -8l-22 -20l-29 -33l-35 -29l-28 -24l-21 -27l-27 -21l-2 -22l-30 -31l-37 -74l-6 -20l-19 -43l-18 -53 l-17 -37l-16 -31l-10 -16l-6 -29l-15 -39l-20 -39l-14 -49l-21 -53l-8 -39l-17 -68l-16 -51l-16 -61l-9 -27l-16 -49l-16 -51l-19 -45l-18 -35l-12 -21l-21 -2l2 15l8 20l47 160l13 55l18 60l8 47l15 45l14 57l39 117l14 53l21 55l20 47l15 37l14 41l16 49l23 58l33 53 l14 29l22 28l25 35l10 25l-4 16h-37l-45 -8l-41 8l-49 2l-53 4l-55 -6l-60 -10l-53 -8l-33 -8l-28 8h-27l-27 10l-39 8l-37 19l-26 28l-21 29v12z" />
<glyph unicode="8" horiz-adv-x="963" d="M-47 135l6 12l23 11l8 -21l-2 -14l-23 -6zM76 504v39l20 78l8 51l9 55l16 31l23 24l30 15l15 24l28 15l31 18l18 18l7 17l-7 16l-16 23l-22 37l-9 28l-8 45v33l8 39l2 35l11 41l22 24l21 37l36 21l31 20l29 17l18 26l21 21l24 20l60 19l26 -11l21 -8l10 -20l21 -9l6 -26 l-2 -21l-4 -12l-13 -4l-16 -10h-31l-18 -13l-29 -16l-27 -20l-22 -35l-21 -29l-14 -31l-14 -22l-17 -17l-2 -30l-4 -35l4 -35l6 -20l9 -15l18 4l6 -12l-8 -14l8 -19l11 -10l12 -18l16 -23l21 -6l18 -14l16 -17l37 -12l54 -4l34 -4h29l37 10l22 23l29 14l17 2l10 18l24 31 l2 43l4 31l-6 57l-14 19l-14 39l-15 43l-12 30l-10 17l-8 10l-19 12l-35 10l-28 11l-29 6l-10 12l6 14l10 19l12 12l17 10l22 -2h35l21 -10l24 -14l23 -13l6 -8l20 -8l19 -22l16 -27v-21l4 -14l-4 -14l12 -10l15 -37l4 -27l14 -29l6 -39l-6 -38l-6 -35l-12 -41l-17 -29 l-12 -22l-14 -7l-4 -12l-17 -4l-34 -35l-27 -14l-12 -4l2 -4l20 -11l33 -10l20 -16l27 -17l25 -20l22 -29l8 -28l8 -74v-47l-8 -37v-31l-10 -18l2 -29l-12 -27l-19 -20l-8 -37l-8 -31l-16 -24l-31 -31l-37 -26l-8 -13l-27 -16l-22 -27l-45 -18l-52 -15l-24 -4l-39 -2h-55 l-52 2l-51 4l-43 13l-37 20l-28 25l-35 22l-29 37l-26 29l-21 26l-12 41l-25 35l-18 107zM287 580l6 -15l10 -24l-10 -31l-2 -43l-2 -31l2 -39l10 -8l6 -29l35 -53l23 -22l20 -27l41 -20l37 -50l86 -12l51 12l45 19l35 22l14 25l15 10l12 25l12 18l15 21l4 71l-13 56v28 l17 19v41l8 16v55l-25 23l-20 20l-27 15l-28 4l-33 10l-29 19h-29l-36 8l-39 -2h-23l-12 10l-17 16l-4 19l-24 12l-29 6l-18 -14h-13l-8 -15l-12 -8l-16 -26l-21 -29l-10 -39l-4 -29v-34zM510 414l31 14l43 -35l32 -6l29 8l29 -6l28 -29v-22l-28 -23l-15 -26l-14 -37l-41 8 l-16 35l-19 8l-10 41l-47 37zM580 1212l6 9l16 -2l2 -15l-10 -6l-10 6z" />
<glyph unicode="9" horiz-adv-x="825" d="M-125 1081l8 19h21l10 -17l-6 -12l-19 -8l-12 4zM45 1081l10 52l4 55l15 45l4 33l16 28l19 25l30 31l62 32l35 21l41 8l38 2h50l45 -6l51 -10l43 -15l24 -18l27 -16l43 -29l2 -10l17 -11l10 -14l14 -24l19 -27l26 -47l17 -43l10 -43l2 -37l2 -25v-18l-4 -39v-37l-8 -39 l-7 -49l-10 -53l-28 -70l-2 -35l-13 -16l-22 -61l-23 -37l-6 -25l-18 -43l-25 -43l-27 -43l-20 -41l-29 -39l-28 -47l-23 -18l-12 -29l-29 -33l-35 -35l-24 -36l-23 -29l-29 -31l-20 -35l-16 -32l-15 -25l-20 -23l-8 -8l-15 8l6 21l2 31l50 114l36 56l17 16l16 31l29 49 l20 37l29 43l23 49l26 37l49 84l54 135l18 35v18l10 17l19 47l16 47l12 41l7 30v37l-5 43v23l-14 -4l-6 -25l-8 -31l-21 -24l-20 -39l-45 -39l-37 -29l-70 -36l-43 -3l-57 -8l-51 8l-33 15l-51 16l-35 19l-21 28l-2 13l-20 34l-16 48l-3 40l-8 33zM129 -23l4 19h19l8 -14 l-8 -19zM201 1053l8 -19l-4 -20l4 -23l8 -4l12 -20l11 -19l12 -6l24 -20h37l27 10l12 20l4 25l6 29l7 20l12 23l16 18l21 8l33 10l34 5l25 -15l22 -4h23l23 25l2 22l-2 29l-19 31l-22 30l-29 25l-23 10l-12 4l-18 13h-31l-27 -7l-28 -10l-35 -10l-25 -14l-6 -11l-12 -2 l-10 -12l-17 -8l-24 -29l-15 -33l-14 -30l-10 -19v-22z" />
<glyph unicode=":" horiz-adv-x="502" d="M125 74l25 22l47 27l43 20h55l24 -10l9 -14l22 -4l21 -13l4 -20l-4 -21l-37 -32l-10 -19l-15 -20l-8 -8l-14 -21l-21 -16l-18 -13l-23 -2l-28 4l-17 15l-10 28l-6 13l-25 20l-6 13v14l-6 16zM125 637l25 20l47 29l43 19h55l24 -9l9 -14l22 -6l21 -10l4 -23l-4 -18 l-37 -33l-10 -19l-15 -22l-8 -6l-14 -23l-21 -16l-18 -10l-23 -4l-28 6l-17 14l-10 29l-6 10l-12 12l-13 10l-6 11v14l-6 16zM297 -70l10 7l12 -5v-10l-10 -8z" />
<glyph unicode=";" horiz-adv-x="502" d="M125 637l25 20l47 29l43 19h55l24 -9l9 -14l22 -6l21 -10l4 -23l-4 -18l-37 -33l-10 -19l-15 -22l-8 -6l-14 -23l-21 -16l-18 -10l-23 -4l-28 6l-17 14l-10 29l-6 10l-12 12l-13 10l-6 11v14l-6 16zM139 29l11 28l16 15l12 14l12 29l25 14l27 14h39l26 4l27 -6l10 -18 l8 -23v-57l2 -23l-6 -32l-6 -43l-6 -33l-17 -43l-14 -33l-14 -26l-19 -27l-14 -23l-18 -24l-15 -21l-14 -22l-25 -17l-14 -10l-14 2l-4 8l2 21l22 18l17 19l10 26l26 31l21 35l18 39l9 26l2 25v45l-11 12l-20 -12l-19 -10l-20 -6h-25l-18 8l-12 16l-13 31z" />
<glyph unicode="&#x3c;" horiz-adv-x="926" d="M68 348l8 25l12 10l23 12l32 6l29 2l31 13l24 10l33 14l35 11l31 16l34 10l127 41l43 17l66 8l22 12l25 18l25 13l28 10l25 18l22 15l19 2l26 -2l25 -19l12 -26l11 -33l-9 -31l-39 -28l-79 -17l-56 -20l-39 -11l-43 -12l-32 -6l-31 -10l-37 -10l-39 -9l-41 -18l-33 -12 l-32 -5l-29 -2l-2 -12l61 -31l54 -20l12 -8l47 -21l29 -16h24l27 -16l24 -11l23 -18l25 -10l18 -21l12 -14v-15l-12 -10l-18 2l-23 13l-27 16l-22 16h-14l-19 11l-31 10l-30 12l-35 14l-29 11l-26 10l-37 12l-39 15l-39 4l-37 10l-29 4l-22 6l-17 -6h-22l-19 2l-18 12 l-14 17zM651 121l6 16l13 6l12 -2l18 -12l11 -8v-12l-15 -15h-14l-25 10z" />
<glyph unicode="=" horiz-adv-x="754" d="M63 342v25l13 24l30 19l29 10l37 18l55 -14l39 -4l37 -2l207 -31l41 -10l35 -6l26 -4l31 -9l21 -8l18 -14l8 -12l-12 -7l-37 -6h-43l-25 8l-22 -2l-39 2l-47 5l-37 -5l-33 -2l-43 -6l-65 -4l-25 -8l-24 -12h-70l-16 -33l-31 -8l-23 41l-10 16l-14 16zM84 549l6 26l29 25 l24 14l41 11l49 10l41 2l35 4l49 -8l84 2l90 -4l41 -10l35 -7l27 -4l10 -18l-4 -17l-20 -8l-25 -4l-23 -2l-38 2l-48 4l-36 -4l-33 -2l-43 -6l-62 -25l-22 -12l-23 -16l-39 -8l-28 -5l-11 -22l-18 -8l-12 16l-19 12l-22 5l-19 12l-12 20zM666 578l20 16l19 -14l8 -13 l-25 -18z" />
<glyph unicode="&#x3e;" horiz-adv-x="926" d="M129 137l10 31l43 33l82 24l60 25l38 12l31 14l21 7l26 10l31 12l27 8l30 25l21 8l33 8l28 2l4 15h-18l-29 2l-24 8l-25 4l-49 23l-29 8l-22 10l-19 12l-34 13l-31 10l-25 -2l-26 20l-23 8l-22 21l-25 8l-16 21l-9 12l11 22l14 11h18l21 -13l24 -14l21 -12h14l17 -8 l28 -9l29 -10l35 -10l24 -8l27 -9l35 -10l39 -10h37l36 -6l29 -6l29 -19l33 6l22 -12l23 -4l16 6l23 2h18l14 -10l15 -16l4 -21l-13 -24l-16 -11l-22 -14l-35 -10l-29 -6l-31 -15l-24 -12l-37 -16l-35 -15l-33 -18l-22 -6l-21 -15l-20 -12l-25 -10l-26 -10l-21 -15l-33 -8 l-32 -6l-27 -14l-25 -21l-26 -16l-31 -11l-27 -22l-24 -16l-19 -3l-26 -2l-21 19l-12 24z" />
<glyph unicode="?" horiz-adv-x="731" d="M63 956l5 21l10 24l28 27l27 16l25 15l39 31l20 28l27 29l39 24l36 15l31 8l21 8l26 6h29l35 4l41 -10l26 -10l39 -21l27 -22l14 -21l19 -30l6 -31l10 -31l6 -35l6 -30l4 -29l11 -24v-31l-19 -64l-18 -35l-8 -28l-23 -25l-18 -22l-25 -15l-22 -22l-25 -12l-18 -7l-21 -14 l-31 -18l-28 -19l-33 -24l-29 -23l-24 -14l-19 -19l-6 -34l-8 -37l6 -33v-60l2 -28l-2 -23l-8 -22l-19 -4l-16 12l-6 20v31l-8 39v37l-11 37l-4 37l4 28l13 31l16 21l25 28l24 23l37 20l31 27l18 22l21 13l18 2l10 6l33 16l25 25l51 47l14 31l11 36l-7 52l-6 37l-10 30 l-8 35l-12 29l-25 16l-27 8l-39 6l-40 -4l-31 -8l-33 -22l-29 -31l-20 -29l-10 -35l-17 -26l-18 -29l-29 -14l-29 -8l-32 -9h-35l-29 15l-18 16l-10 25zM180 35l6 18l9 15l20 20l-10 14v21l10 14l21 15h24l27 -9h26l19 -6l16 -6l19 -8l8 -19h20l21 -8l2 -22l-2 -17l-17 -14 l-18 -14l-16 -9l-7 -14l-8 -18l-12 -21l-33 -28h-24l-23 6l-14 8l-11 29l3 10l-15 14l-16 4l-17 10zM283 199l10 8h12l6 -10l-16 -9z" />
<glyph unicode="@" horiz-adv-x="1239" d="M41 590v12l4 10l8 62l17 51l16 39l35 53l47 60l2 10l10 4l2 -4l31 28l39 23l33 25l34 22l39 16l27 5l27 22l22 -18l6 -19l27 6l12 11l17 4l36 -2h35l41 6l31 8l27 -10l55 -4l90 -33l39 -10l51 -27l70 -45l71 -68l13 -18l10 -14l4 -13l10 -10l2 -10l13 -17l30 -55v-10 l-2 -6l2 -10l17 -27l-2 -47l12 -39v-39l-4 -29l-8 -18l6 -41l-2 -25l-6 -24h-7l5 -13l-15 -14l-2 -10l-12 -10l-4 -27l-15 -27l-20 -28l-16 -21l-23 -4l-10 -14l-23 -23l-32 -18l-27 2l-33 -14l-51 -7l-37 -2l-43 5l-24 4l-29 6l-19 6l-12 6l-18 10l-15 11l-8 6l-14 30 l-6 19l-11 12l-6 8l-4 43l-12 41l-25 43l4 13l-4 16l-4 20l-12 -6l-16 -2h-60l-8 6l-12 9l-15 12l-12 14l-4 15l-2 16l6 18l4 15l10 12l13 14l16 11l14 6l15 4l20 -2l23 4l10 -2h10l8 10l-2 14l-4 15l-8 14l-6 10l-14 15l-27 8l-14 6h-17l-14 6l-10 10l-4 11l2 12l8 10l12 8 l12 11l19 6h18l19 8l18 2l29 -6l22 -6l17 -11l10 -12l12 -10l15 -17l4 -10l4 -18v-19l-2 -18l-2 -27v-18l-4 -17l-9 -16l-2 -22l-6 -25l-2 -23l-4 -26h2l-2 -35l4 -22l2 -25l-2 -35l-4 -29l4 -34l6 -15l11 -14l12 -29l10 -12l25 -12l14 -6l12 -7l25 -10l26 2l31 17l31 24 l27 39l18 33l14 16l9 19l16 12l24 10l25 19l12 14l17 14l16 11l14 18l15 23l14 34l14 43l-4 39l-4 47l2 27l-8 20v15l-12 24l-12 21l-9 20l-16 19l-6 20l-17 17l-53 61l-31 25l-45 28l-55 25l-35 8l-22 -2l-13 4l-10 4l-14 4l-14 9l-15 4h-14l-21 8l-51 -6l-26 -2h-27l-27 2 l-26 -11l-33 -8h-14l-11 4l-2 -20l-4 -10l-8 -7h-6l-25 -8l-24 -6l-11 -8l-32 -6l-37 -4l-51 -39l-52 -60l-28 -51l-2 -8v-10l-4 -8l-11 -11l-4 -20l-18 -31l4 -72l-2 -14l2 -35l20 -106l29 -64l29 -49l10 -8l6 -6l2 -15l58 -65l47 -29l18 -12l10 -12l31 -6l31 -9l2 -4 l14 -6l17 -6l6 -8l4 -8l4 -11l-2 -12l-12 -6l-13 -2l-12 2l-8 4l-15 6l-8 10l-33 17l-22 18l-55 25l-37 26l-60 58l-36 43l-11 6v8l-49 80l-10 25l-10 18l-9 12l-2 17l-16 77l-2 48zM504 526l6 -6h18l9 2h4l6 2l8 2l8 6l4 5l2 4l2 6v2l-6 6l-4 2l-10 -2l-2 2l-8 -2h-9l-6 -2 l-4 2l-4 -6l-4 -2l-8 -8l-2 -9v-4zM840 430l16 14l8 -14l-8 -12h-10z" />
<glyph unicode="A" horiz-adv-x="1030" d="M51 154v10l6 4l11 -2l2 -6v-6l-9 -4zM70 -16v41l10 26l-2 23l6 14l12 6v19l19 10l8 18l12 25l17 8l16 37l6 41l10 6l-4 27l8 41v26l-18 39l-12 35l-4 39l-2 27l6 8l-4 14v8l30 37v12l17 19l22 35l27 39l6 28l2 21l-2 16l10 51l8 49l17 62l4 35l8 16l-2 53l-4 47l4 45 l16 37l15 29l18 14l6 27l13 18l6 17l-6 12l4 27l-15 32l4 33l-12 15l6 26h13l22 17l12 2l9 16l32 4l27 -12l23 -35l10 -6l16 -31l19 -37l8 -35l18 -40l23 -31l2 -17l16 -18l10 -21l19 -26l-2 -25l18 -37l2 -16l11 -20l10 -35l16 -29l6 -49l9 -35l12 -49v-18l10 -27l14 -47 l13 -43l4 -35l10 -25l27 -18l32 -10l39 2h37l37 -8l6 -11l8 -10l-8 -6l-6 -10l-16 -17l-21 -2l-8 -10l-31 -6l-35 -16l-14 -13v-24l6 -29l13 -29l16 -28l14 -41l10 -25l13 -39l14 -35l21 -43l14 -36l8 -56l10 -6l13 -29l14 -28v-17l10 -10l8 -27l-8 -10l-16 -6l-6 10l-11 15 l-14 28l-20 27l-29 51l-21 49l-8 35l-14 19l-25 71l-20 25l-16 37l-23 37l-18 16l-43 47l-9 27l-34 24l-43 8l-46 -6l-47 -8l-34 -14l-37 -33l-35 -18l-8 -17l-27 -20l-57 -33l-11 -12l-8 -45v-29l-14 -16v-35l-6 -37l6 -60l-6 -41l-12 -43l-19 -34l-22 -27l-37 -33l-35 -6 l-33 -4l-10 8h-19l-14 17l-10 8v20zM84 -104l10 2h12v-11l-2 -8l-14 2zM174 649v10l10 11l11 4l2 -6v-11l-2 -10l-9 -6zM358 700l17 -24l47 -21l49 -18l41 -23l23 -16l40 -8l27 6l8 6l15 23l-9 22l-20 37l-4 35l-10 16l-7 21l-12 20l2 53l-26 35l8 15l-10 24l-13 72l-16 33 l-2 26l-23 29l-8 16l-20 43l-41 -41l4 -26l-15 -23v-24l-4 -13l-8 -41l-4 -36v-11l-10 -14v-29l-4 -57v-27l-11 -24l7 -25zM506 625l2 8h10l6 4l4 -6v-10l-12 -3zM967 555v6l2 8l4 2l10 -4l-2 -8l-8 -4h-6zM983 -92l6 6l10 -2l2 -8q-1 -2 -10 -4l-6 2z" />
<glyph unicode="B" horiz-adv-x="1032" d="M41 145l16 45l-4 9l13 10l10 10l24 37l-8 35l8 31l-10 24l10 47l19 21l33 37v36l6 25l-6 70l8 20l2 47l-4 21l2 71l-10 84l-11 31l-6 47l-14 37l-10 86l-9 23l2 32l11 23v133l6 63l14 27l33 29l39 8l20 12l56 6h55l72 4l53 11l51 8l27 8l20 -6l37 -4h84l78 -8l47 -2 l41 -27l28 -53l13 -47l10 -49v-50l-10 -55l-4 -55l-43 -70l-31 -29l-29 -43l-26 -10l-25 -26l-33 -25l-20 -10l4 -15l27 -8l38 -4l35 -10l29 -29l29 -16l20 -41l39 -51l23 -45l22 -29l8 -31l11 -49l-3 -33l3 -32v-37l-3 -39l-10 -25l-18 -33l-10 -32l-33 -31l-15 -45 l-22 -37l-23 -4l-8 8l17 19l2 14l8 10l20 17l31 55l14 37l23 61l-2 80l-6 47l-13 14l-2 23l-14 20v19l-33 33l-20 34l-17 13l-4 16l-30 27l-48 28l-88 7l-73 -9l-54 -10l-59 -10l-123 -41l-18 -21l-29 -2l-10 -32l-2 -33l2 -45l-2 -55l-4 -41l4 -43h24l15 26l14 17l23 -7 l12 -8l-2 -24l-8 -33l-19 -31l-6 -53l35 -29l26 -24l23 -27l16 -37l27 -6l31 -14l35 -21l24 -4l33 -12l43 -10l45 2h82l31 18v-16l-9 -13l-22 -18l-14 -23l-13 -4l-16 9h-70l-53 6l-12 14l-37 4l-31 25l-27 8l-20 14l-18 -6l-35 12l-51 -10l-62 -33l-78 -26l-14 -8l-57 -29 l-37 -10l-29 24l-37 41zM260 1081l2 -39l10 -65l2 -57l9 -29v-47l6 -41l24 -10l37 -5l43 5l88 26l66 6l37 2l59 27l29 20l28 17l27 29l16 6l19 32l31 23l18 27l29 18l4 45l12 25l-2 18l10 35l-6 55l-4 19l4 18l-29 47l-38 33h-17l-12 18h-111l-47 -12l-67 -16l-68 -21 l-66 -26l-65 -39l-25 -13l-28 -26l-15 -37zM274 1450l7 14l12 15l8 -15l-2 -12zM528 444v25l11 12l39 17l45 -6l59 8l16 -11l7 -18l-15 -20l-22 -11l4 -45l33 -39l30 -39l23 -43l18 -8l19 -43l-4 -16l-19 -8h-24l-52 20l-34 23l-52 30l-35 56l-28 51l-12 33z" />
<glyph unicode="C" horiz-adv-x="1071" d="M72 756l12 73l20 68l31 64l2 63l19 63l22 29l12 21l33 20l47 29l43 12l62 10l76 31l61 21l33 24l61 -4l66 -6l41 -31l30 -6l45 -45l43 -76l3 -26l-31 -5l-12 -41l-50 -18l-41 27l-59 4l-49 26l-55 7l-52 -17l-67 -16l-56 -23l-34 -28l-27 -39l-27 -47l-26 -76l-19 -88 l-4 -45l-2 -58l10 -69l5 -70l26 -61l27 -45l88 -103l53 -35l35 -18l100 -10l88 24l74 25l47 47l33 51l53 64l31 12l35 8l26 43l25 16l29 -6v-39l-17 -47l-2 -30l-35 -78l-28 -56l-17 -24l-26 -39l-33 -31l-27 -35l-47 -28l-88 -19l-39 -4l-43 8l-94 11l-29 16l-43 19l-69 45 l-70 47l-53 57l-39 23l-23 38l-43 39l-28 60l-29 57l-12 62v81z" />
<glyph unicode="D" horiz-adv-x="852" d="M-41 848l21 16l24 -10l-20 -14zM139 184l2 43l-2 43v31l8 55l5 56l10 49l4 39l8 41v55l4 63l8 56l-8 30l-4 48l6 61l15 49v39l14 72v39l-8 30l2 27l-17 20l-8 27l-4 23l6 39l19 18l45 16l43 21l47 14l45 2h31l77 -16l35 -4l27 -15l6 -14l31 -6l30 -27l27 -22l21 -43 l18 -33l12 -39l15 -29l14 -41l18 -49l7 -39l4 -47l10 -39v-39l-10 -43l-4 -57l-13 -55l6 -41l4 -60l-12 -40v-56l-24 -47l-19 -47l-74 -121l-34 -28l-45 -31l-45 -17l-95 -12l-53 6l-43 -6l-27 -2l-20 8l-10 8l-11 15l11 28l24 29l31 10l18 -6l37 29l35 14l37 4l31 25l35 14 l32 19l35 41l29 47l28 39l15 39l-6 45l8 41l-8 34l-7 35l13 41l-4 31l10 41l-4 49l-10 47l-15 64l-18 59l-17 27l-4 34l-22 39l-31 29l-35 18l-75 -4l-46 -14l-22 -29l-8 -45l-15 -41l-12 -53l-10 -47l-8 -55l-9 -33l-6 -27l6 -39l9 -36l-21 -19l10 -22l-8 -29v-39l-12 -31 l-2 -45v-33l-10 -32l-9 -25v-31l-6 -37l-14 -51v-26l-2 -66l-2 -31l2 -30l8 -39l14 -19l-2 -24l-12 -27l-18 -4l-19 4l-14 8l-8 11l-10 22l-9 53zM428 958l53 5l11 -13l-11 -10l-37 -4z" />
<glyph unicode="E" horiz-adv-x="879" d="M78 1157l2 35l8 45l14 33l37 24l33 11l25 10l43 -12l47 -23l61 -2l84 2l111 4h65l51 -14l52 -4l39 -6l36 -11l27 -8h18l39 -22l33 -21l17 -22l-2 -19l-15 -6h-14l-29 12l-26 13h-70l-47 -15l-53 -10l-66 -33l-45 -8h-29l-28 -12l-76 -2h-64l-67 -6l-58 -11l-30 -10 l-19 -31l-8 -34l-6 -52l-4 -51l-10 -88l2 -18l-9 -58l9 -6l16 4l25 10l34 31l31 12h66l86 -2l55 -4l10 -8l17 -14h51l18 -12l19 2l39 -13l41 -6l2 -10l-7 -8l-24 -17h-23l-18 4l-68 2l-75 -12l-70 -8l-64 -10l-63 -4l-51 -19l-49 35l-7 -55l3 -39l4 -49l12 -54l18 -59 l19 -53l57 -80l31 -35l43 -27l43 -22l53 -27l64 -8l67 -12l51 -12l33 2l29 -9l78 -12l16 -14l-4 -15l-6 -18l-23 -4l-49 6l-51 -2l-80 -4l-55 4l-41 14l-19 -2l-28 6l-56 15l-37 8l-28 25l-31 20l-27 21l-28 47l-31 49l-6 45l6 31l-24 45l-7 49l-18 26l-4 58l-10 37l6 38 l-11 56l11 37l-15 26l7 11l-3 30l11 33l-6 33l16 35l-6 47v37l14 24l-4 35l8 20l-4 37l-18 21l-37 37zM240 135v17l14 10l8 -15l-4 -14z" />
<glyph unicode="F" horiz-adv-x="709" d="M104 1001v54l5 47l14 55l-6 33l16 47l12 61l21 33l35 15h41l18 10l21 2l12 16l29 19l30 18l41 33l19 26l28 19l29 12h33l41 -12l26 -21l90 -20l13 -16l30 -5l9 -14l20 -20l23 -7l14 -20l6 -23l-6 -24l-18 -19l-19 -12l-24 -2l-68 8l-51 15h-43l-29 -9l-31 -16l-30 -12 l-9 -12l-20 -9l-51 -39l-25 -26l-16 -29l-12 -33l-19 -34l-4 -37l4 -45l-10 -41l-8 -47l-4 -48v-45l-5 -34l11 -21l20 -12l39 -8l66 8h39l34 -8l45 -7l21 -10l29 6l26 -10l4 -24l-32 -19h-76l-56 2h-77l-37 -8l-39 4l-17 -18l-2 -29l-24 -25l-23 -18l-4 -29l4 -32l4 -76 l7 -62l2 -61v-70l2 -76l10 -71l4 -62l18 -39l13 -30v-37l-13 -29l-6 -18l-12 -13l-14 -4l-15 9l-32 30l-21 25l-16 37l-4 37l10 24l16 23l-6 69l-10 101l-2 75l-4 72l-6 47l-15 56v55l-10 41l-4 69l-14 140l6 57z" />
<glyph unicode="G" horiz-adv-x="795" d="M78 578l2 61l12 51l-4 29l-8 49l-2 57l4 54l18 41l27 57l27 47l24 29l15 28l40 43l27 37l29 29l28 31l29 16l39 -4l35 16l67 6l29 23l53 18l43 -8l29 -14l25 -25l12 -26l14 -19l4 -28l-2 -15l-10 -14l-27 -21l-30 -12h-54l-32 10l-37 11l-39 -11l-51 -26l-41 -29l-45 -31 l-9 -24l-30 -21l-27 -37l-31 -45l-20 -32l-18 -50l-19 -47l-6 -53v-43l-10 -47l-11 -61l-4 -52l15 -61l26 -43l29 -29l41 -14l51 -23l57 -10l41 6h21l16 13l31 34l23 31v68l6 43l6 49l12 45l14 22l-6 45l6 19l11 14l12 15l16 8l31 -2l33 -21l12 -39l10 -51l7 -43l14 -35 l16 -45v-53l2 -47l-8 -49v-58l-2 -49v-67l2 -56l14 -61l5 -59l4 -29l10 -19l-6 -30v-19l-8 -14l-13 -10l-18 6l-17 26l-4 29l-14 14l-2 37l-16 54l-23 36l-20 43l-11 37l-18 54l-4 43l-23 32l-24 21l-31 -17l-29 -18l-84 -18l-32 4l-37 2l-72 26l-47 21l-4 18l-37 17l-8 24 l-17 17l-14 39l-6 34l-2 37z" />
<glyph unicode="H" horiz-adv-x="840" d="M74 -225l12 18l16 -2l7 -12l-9 -17zM74 743v19l8 31l18 16l31 10l19 17l2 47l4 51l-4 72l-5 30l5 37l10 31l-15 24l5 31l8 37l-8 37l-5 96l9 35l30 25l50 6l38 -6l43 -31l15 -39l-4 -49l-19 -43l-26 -56l-27 -71l-12 -80v-57l-13 -89v-26l-14 -21l14 -18l31 -10l47 -11 l58 -10l57 -6l53 -10l43 -2l39 -10h35l2 38l14 33l-10 29l6 47v43l4 57l4 66l9 65l8 52l8 43l12 43v28l11 35v35l8 25l18 18l19 -2l8 -12l2 -15l-8 -20l-4 -31l-7 -43l-8 -37l-12 -57l-8 -60l2 -36l-10 -66l8 -33l-8 -32v-154l-11 -78v-61l2 -56l4 -61l2 -53l-2 -56l-4 -67 l6 -55l3 -58l10 -45l10 -51l14 -45l11 -39l20 -31l10 -35l-2 -26l-16 -19l-23 -4l-28 29l-25 31l-20 45l-17 39l-6 30v25l-8 31l-17 67l-10 56l10 28l-12 17l2 20v35l2 43l-2 51l13 43l-5 47l2 53l-45 13l-41 8l-47 2h-63l-43 4l-17 4l-57 -8l-37 -6l-16 -17v-38l4 -37 l2 -86l-2 -56v-67l-8 -25l4 -31l-10 -18l6 -29l-6 -53l-9 -20l5 -27l-9 -49l-2 -27l2 -12l-2 -47l6 -39l9 -31l14 -33v-20l-8 -2l-15 4l-12 16v17l-12 18l-10 43l-6 17l2 28v31l-5 33l13 41l-10 18l10 35l2 332l-12 30l10 31l-10 8l-3 21l-8 37l-24 26l-29 23zM563 111v12 l10 10l13 -4v-14l-11 -11z" />
<glyph unicode="I" horiz-adv-x="709" d="M-47 1157l6 29l14 18l29 10l35 -8l31 -12h24l41 -6h55l56 -2h43v24l8 21l-2 14l2 17l-12 30v35l12 19l-8 34l22 21l33 8l29 4l28 -4l7 -33l4 -28l6 -23l-2 -29l2 -28l-17 -27l-2 -20l9 -15l20 -2h39l37 -8h53l31 -4h30l9 -6v-10l-23 -7l-47 5l-35 -5h-41l-43 -6l-30 -6 l-25 -16v-33l-2 -43l-8 -43l4 -35l-8 -26l12 -33l-10 -47v-35l-2 -58l-11 -28l6 -21v-45l-6 -39l6 -43l-4 -55v-137l-6 -43l4 -47l6 -49l35 -9l31 -2l35 -8l39 -18l30 -2l52 -11l37 -18l22 4l27 -4l12 -8v-17l-18 -14l-19 -10h-61l-56 -8l-49 -15l-35 -12l-30 -12l-25 -19 l-10 -24l2 -23l4 -33l-4 -12l-10 -8h-9l-10 8l-10 19l-20 2l-27 -9l-14 -14l-19 -16l-29 -13l-36 -10h-29l-27 10l-28 19l-9 24l-22 17l-16 20l-3 43l13 37l26 29l27 22l39 35l47 19h43l23 4l20 18l12 2l9 17l-9 45l-2 28l-8 37l2 49l-2 31l6 33l-6 39l-2 37v28l-8 64v182 l-12 18l20 27l-10 76v104l-8 33l10 37l-27 -2l-30 -6h-25l-82 -15h-23l-20 -10l-41 -6h-33l-32 12l-17 13zM696 279l13 14l16 -10v-15l-14 -10z" />
<glyph unicode="J" horiz-adv-x="801" d="M-78 -6l23 22l35 15l26 -6l29 -15l47 -8l29 8l14 10l29 13l36 20l39 35l35 27l23 28l16 31l37 57l10 54l27 59l16 47l10 49l11 54l-4 28l8 37l14 59l8 48l2 73v92l-10 29l10 21l-12 34l2 33l-8 53l-21 48l-4 47l4 20l13 10l-10 27l-3 33v47l-6 27l6 18l-18 25h-33l-43 -7 l-28 -10l-48 -10l-32 -14l-33 -2l-57 8l-62 8h-37l-24 14l-19 17v24l4 31l27 12l35 -10l28 -12l50 -9l41 3l43 16h30l107 37h45l39 10l33 -2l24 10h19l26 4h49l47 4l56 5l86 -13l53 -6h39l43 -10l31 4l63 -16v-19l-33 -2l-30 2l-45 6h-52l-53 -6l-55 -14l-55 -2l-62 -6 l-51 4l-39 -11l-14 -32l-6 -41l-3 -58l5 -57l14 -53l10 -60l4 -55l6 -57v-74l11 -37v-115l8 -32l-8 -33l2 -45l-9 -51l7 -43l-13 -25v-47l-8 -88l-16 -23l-4 -36l-13 -37l-6 -31l-24 -47l-27 -55l-25 -48l-16 -12l-25 -39l-30 -28l-37 -33l-55 -33l-70 -22l-47 -11h-117 l-41 11l-20 8l-11 24l-12 31v37zM-27 -154l11 23h18l10 -10l-2 -19l-20 -4z" />
<glyph unicode="K" horiz-adv-x="932" d="M90 1118v25l10 37l15 18l37 27l45 8l47 -14l41 -15l32 -39l15 -28v-47l-4 -46l-15 -34l-12 -43l-8 -37l6 -19l18 -10l23 4l29 17l37 28l65 56l31 20l71 59l52 39l65 47l62 35l30 27l33 27l23 6l18 22l35 21l31 10l12 -2l10 -6l-6 -11l-8 -12l-33 -18l-31 -29l-26 -8 l-29 -25l-35 -20l-31 -27l-38 -31l-35 -36l-37 -21l-14 -20l-29 -19l-109 -108l-47 -35l-30 -33l-13 -18l-16 -2l6 -29l53 -53l37 -39l45 -41l45 -35l37 -31l39 -43l37 -55l41 -47l16 -23l12 -28l19 -19l35 -37l37 -30l14 -25l18 -12l37 -31l29 -22l18 -23l-2 -10h-12l-8 2 l-33 26l-39 27l-18 21l-21 8l-61 53l-35 41l-66 57l-18 29l-27 20l-20 37l-72 49l-80 54l-43 24l-30 27l-27 2l-10 14h-29l-16 -10l-2 -16l-11 -58l-6 -65l-10 -96l-10 -64v-49l-8 -31v-63l-2 -49v-54l6 -45l2 -39l-13 -28l-14 -2l-10 10l-12 16l-9 15l-8 45l-12 28l-10 49 l10 29l-4 66l14 34l-10 46l4 43l-10 61l-13 57v49l-10 27l2 21l-16 28l-2 31l8 61l-6 54l-10 51l6 39l-10 28l6 48l6 32l-17 68l-2 39zM223 0l15 14l6 -14l-6 -10zM905 8v21l10 8l19 -10l4 -17l-18 -12z" />
<glyph unicode="L" horiz-adv-x="842" d="M70 803l12 16l16 -10l-2 -12l-16 -9zM96 43l2 23v26l2 23l11 22l-5 23l5 20l6 25v31l10 38l2 39l-2 33l6 31l4 35l8 30l2 37l-2 21v78l2 34v45l5 33l4 43l2 27l-2 28l-4 29l4 27v35l2 32l4 31l-4 19l4 20l4 27l-2 20l8 25l-10 22l-4 29v33l-2 30l-4 31v27l10 18l-15 17 l-4 20l13 18v23l8 25v30l2 27l-2 18l18 23l21 18l20 8l25 3l26 8l25 -2l23 -15l22 -12l27 -18l18 -27l8 -29l4 -22l-8 -27l-4 -20l-24 -21l-15 -24l-6 -39l-10 -27l-6 -27l-6 -28l-9 -29v-33l-10 -32l-8 -58v-30l-10 -27l-6 -21l-11 -18l-2 -27l-6 -32l-8 -68v-33l-10 -28 l-4 -37l-9 -35v-33l-6 -24l-4 -21v-31l-8 -26l-2 -27l-6 -31l-10 -34l2 -25l-2 -41l-7 -31l-6 -22v-15l-4 -22l-2 -27l6 -12l19 -4l22 10l35 4l39 4h22l29 -12h33l22 8l27 2l37 13l20 8l31 -2l39 -6l37 6l43 10l33 16l26 13l6 18l29 16l23 11l28 -6l21 -15l12 -22l21 -21 l4 -22l6 -27v-27l-2 -28l-15 -23l-8 -18l-18 -15h-31l-27 -8l-30 -10h-35l-41 4l-47 -8h-31l-35 -10l-28 -17l-39 -12l-37 -23l-31 -20h-57l-35 6h-41l-33 2l-28 6l-31 11l-35 -5l-23 7zM668 528l14 17l14 -10v-17l-6 -12l-12 4z" />
<glyph unicode="M" horiz-adv-x="1180" d="M37 418l12 84l23 43l18 8l4 102l35 121l6 49l25 45l-2 29l28 45v29l58 141l8 29l18 14l6 37l27 35l35 51l31 18h26l17 -20l18 -37l12 -47l15 -51l20 -68l10 -47l17 -55l8 -43l8 -60l6 -49l15 -47l26 -33l15 -12l16 19l10 34l19 39l22 66l25 59l14 45l14 33l-14 16l-12 33 l2 41l18 43l21 41l8 39l27 47l20 21l27 36l37 23l22 14l33 -8l33 -4l34 -20l27 -25l23 -31l6 -43l2 -51l-2 -47l-2 -59l4 -111v-64l18 -112l-2 -55l-4 -74l-2 -60v-55l-6 -67l-12 -27l12 -53v-109l12 -22l2 -74l8 -60l13 -110l4 -49v-82l-4 -10l-13 -9l-14 27l-14 53l-13 23 v14l-4 80l-24 76l-8 82l-15 55l-18 80l-6 59l-19 33l-16 61v50l-14 41l2 84l-15 28l-6 45l-2 64l8 63l13 35l-13 39l-6 41l-2 47l-25 20l-22 9l-27 -27l-30 -41l-27 -51l-23 -59l-20 -66l-18 -55l-17 -56l-18 -55l-15 -31l-16 -16l-18 -10l-27 12l-18 29l-31 47l-17 43 l-22 98l-8 45l-13 55l-20 50l-12 45l-17 37l-20 12l-25 12l-12 -27l-16 -45l-19 -55l-16 -117l-13 -67v-25l-10 -90l-20 -108l-2 -58l18 -20l2 -43l10 -37l-20 -33l-23 -33l-39 -6h-38l-48 -2l-32 14l-23 17zM164 213l2 27h16l13 -15l-15 -14zM397 1442l2 26h19l6 -14 l-10 -18zM1063 602l14 21l17 -21l-21 -22z" />
<glyph unicode="N" horiz-adv-x="975" d="M45 295v33l27 41l18 18l16 21l19 43l2 55l20 47l7 43l18 33l-8 96l-10 31l-7 55l11 55l14 37l12 47l31 29l14 121l29 37l8 41l29 36l10 11l14 10l5 25l12 8h18l13 -15l6 -30l12 -49l10 -58l15 -135l8 -61l14 -37l6 -39l4 -37l15 -55l6 -62l26 -41l15 -61l4 -58l14 -49 l15 -57l10 -37l8 -20h16l13 20l24 21l8 43l15 10l-4 20l14 49l-6 33l6 41l18 19l19 30l16 37l21 37l20 23v38l19 37l10 25l14 45l8 37l-4 59l-14 45l-16 47l-17 35v41l-4 53l21 23v29l16 20l10 64l15 38l16 -8l35 13l20 24l37 15l25 8l22 -17l13 -30l12 2l6 -37l-2 -29v-33 l-12 -22l4 -17l-8 -28l-23 -29l-18 -27l-9 -59v-37l-10 -51l2 -27l-10 -45l-2 -41l-19 -37l-8 -47l-4 -47l-61 -129l-21 -16l-6 -31l-18 -29l-9 -47l-10 -28v-39l-24 -64l-17 -30l-6 -48l-4 -38l-10 -37l2 -31l-6 -33l4 -18l-17 -21l-18 -41h-16l-21 4l-8 29l-39 21l-14 36 l-9 31l-22 37v25l-21 24l19 37l-21 37l-6 55l-30 66l-11 57l-10 45l-14 72l-8 24l-11 35l-16 43l-29 86l-33 49l-22 -41l-8 -16v-115l-8 -55l6 -51l-11 -60l-10 -63l-16 -31l-8 -51l-9 -61l-4 -117l-14 -29l8 -26l-22 -29l-37 -16l-47 -2l-37 22l-10 37l-15 45zM119 45l6 21 l22 -5l7 -16l-19 -8zM588 1171v27l22 -2l2 -10z" />
<glyph unicode="O" horiz-adv-x="950" d="M72 872l10 21h18l6 -21l-16 -12l-16 -8zM74 680l14 49v25l14 16v39l13 25l22 26l15 53l28 48l31 34l22 39l27 4l31 25l22 10l29 14l29 23l32 12l31 31l29 35l10 10l25 12l39 -8l36 -24l31 -35l12 -53l-6 -37l-39 -39l-51 -23l-69 -4l-45 -61l-29 -62l-33 -45l-29 -78 l-8 -77l-16 -70l28 -72l9 -69l37 -43l36 -82l27 -6l14 -15l33 -8l45 -6l53 14l52 17l32 26l2 72l23 14l-2 58l14 38l6 41l13 35l-8 35l-5 53l-20 37l-27 19l-20 41l-35 47l6 39l12 34l23 15h33l43 -27l41 -22l20 -39l27 -25l8 -41l16 -41l13 -33l22 -32l6 -54l11 -51 l-15 -94l-37 -96l-26 -56l-25 -34l-33 -41l-38 -39l-46 -25l-67 -20l-72 -11l-69 9l-62 12l-49 27l-92 55l-53 51l-27 29l-35 43l-22 55l-15 55l-8 58l8 43l-10 55zM412 1178l6 20l18 -4v-16l-18 -15z" />
<glyph unicode="P" horiz-adv-x="809" d="M45 55l6 60l8 53l4 55v41l15 10l10 25l2 49l-8 49l18 33l19 86l8 51l10 43l-10 41l4 37l12 68l4 69l11 60l-2 55l12 47l16 70v53l11 76l-11 47l-6 49l-6 31l10 47l23 22l43 11l39 -15h28l50 25l49 8l47 -6l43 12l49 -10l55 -21l41 -28l37 -39l31 -59l14 -19l4 -33l17 -28 l10 -39l6 -37l-4 -33l8 -29l-4 -41l-6 -51l-10 -39l-13 -28l-8 -29l-16 -33l-27 -18l-14 -29l-29 -29l-29 -12l-24 -16l-103 -12l-49 12h-30l-39 18l-6 10v27l8 6h26l29 -10l31 -8l57 -4l49 4l33 8l20 29l13 30l28 39l7 29l18 27l8 45l4 77l-10 39v41l-16 35l-31 60l-8 24 l-19 10l-14 35l-43 21l-33 12l-53 6l-57 2l-56 -2l-14 -14l10 -31l-14 -45l-14 -47l-15 -53l-12 -54l-6 -30l-2 -45l-8 -41l-5 -54l-10 -41v-45l-12 -49l-6 -37l-6 -43l-17 -47l-6 -45l-14 -53l-8 -53l-13 -56l-16 -57l-49 -98l-2 -35l-15 -31l-12 -35l2 -45l-4 -30l-14 -37 l8 -51l18 -25l6 -27l-6 -10l-18 -2h-10l-9 12l-14 35zM92 1034l17 10l22 -8l-4 -12l-18 -10z" />
<glyph unicode="Q" horiz-adv-x="965" d="M63 551l9 31v39l8 36l-4 37l28 35l21 27l18 30l-4 23l11 8v25l16 41l24 24l21 43l-6 43l24 15l33 16l2 20l29 29h20l25 39l37 12l57 13l25 16l16 14l31 -4l28 -18l19 -33l8 -39l21 -4l65 -57l29 -37l33 -39l12 -35l18 -41l2 -35l19 -41l20 -34l10 -41l13 -47l-8 -50v-49 l18 -47l6 -49l14 -55l-2 -56l-6 -20l19 -35l18 -29l64 -59l34 -29l41 -37l39 -36l39 -39l43 -29l29 -27l20 -20l13 -27l18 -18l17 -14l-3 -9l-14 -8l-12 2l-19 4l-16 13l-29 28l-32 35l-33 25l-39 28l-47 43l-23 13l-18 32l-17 4l-26 17l-39 31l-37 24l-12 21l-27 -7 l-18 -20l-21 -16l-33 -13l-47 -18l-39 -16l-18 4l-25 -25l-22 -8l-47 -10l-49 6l-37 4l-31 16l-20 17l-25 10l-14 14l-25 12l-22 35l-17 4l-28 4l-35 15l-33 31l-29 30l-45 90l-6 41l-14 19l-6 47zM190 625l11 -43l-4 -58l2 -45l12 -39l14 -30l27 -43l35 -60l14 -10l27 -31 l39 -4l28 -12l31 -19h37l39 11l16 -2l14 8l33 -6l31 -9h35l41 25l30 12l9 21l14 16l-8 17l-25 20l-41 23l-18 32l-19 2l-16 13l-25 14l-22 -14l-33 -2h-39l-43 12l-20 22l-10 21l4 20l4 35l18 25l25 8l22 14l37 -8l31 8l41 -4l33 -12l22 -21l6 -28l10 -37l23 -16l27 -23 l28 -29l21 -10l16 4l4 17l4 22l-8 33l-8 51l-16 88l10 49l-4 45l-8 25l-17 27l-10 12v24l-12 21l-19 27v32l-8 27l-20 37l-25 26l-29 19l-18 26l-35 19l-33 -4l-24 14l-27 -10l-45 -6l-39 -19l-20 -18l-25 -31l-29 -18l-18 -35l-23 -19l-4 -28l-24 -25l-23 -18l-10 -37 l-12 -47l-2 -33l6 -31zM692 694l17 15l10 -15l-10 -10z" />
<glyph unicode="R" horiz-adv-x="881" d="M90 111v61l4 96l10 39l5 25v49l6 29l6 30l2 33l10 43l4 47l10 51l3 54l10 34l2 39v47l6 48l2 51l20 106l7 39v39l2 55l14 37l12 35l-8 35l8 37l-16 39l6 32l16 29l43 4l43 29l41 6l58 2l61 -2l68 -6l33 -14l28 -11l29 -22l33 -31l20 -37l21 -39l18 -51v-33l18 -39l-2 -45 l5 -22l-5 -45l-8 -39l-6 -45l-2 -41l-8 -35l-19 -43l-28 -35l-29 -20l-31 -25l-30 -16l-29 -19v-39l10 -30l12 -31l7 -29l28 -69l43 -72l19 -33l18 -41l29 -53l16 -33l27 -39l14 -43l17 -39l26 -41l21 -34l32 -39l39 -37l27 -29l20 -26l9 -13l2 -14l-6 -4h-15l-16 8l-21 12 l-53 39l-37 33l-39 49l-30 41l-25 43l-31 33l-43 53l-49 47l-45 41l-35 45l-51 60l-37 55l-39 49l-37 45l-43 37l-47 27h-45l-2 -29l-14 -47l-12 -74l-2 -45l-11 -39l-14 -104l-4 -60v-37l-6 -84v-20l10 -16l16 -19l9 -26l-5 -15l-10 -14l-18 -8l-19 4l-14 12l-10 16l-25 41 zM262 803l21 -17l30 -8l27 15l49 12l64 12l34 23l37 30l13 31l-7 19l7 20v37l2 35l24 45l-14 43l10 43l-10 18v76l-21 31l-41 12l-34 14l-17 -8l-14 2l-64 -22l-12 -19l-8 -24l-8 -33l-8 -43v-37l-23 -106l-20 -52l-13 -43l-4 -49l4 -24zM283 459l16 14l4 -14l-2 -15l-16 5z M518 1118l10 17l17 -7v-14l-17 -10z" />
<glyph unicode="S" horiz-adv-x="686" d="M14 903v78l17 43l20 41l23 35l26 28l25 23l31 25l37 18l32 12l47 2l45 4l45 11l39 20l41 12l19 15l39 -6l22 -21l13 -37l16 -20l20 -21l13 -32l4 -31l4 -39l-19 -25h-26l-31 11l-29 14l-30 22l-6 19l-37 8l-21 8l-41 -6h-35l-36 -2l-50 -18l-36 -21l-58 -53l-12 -29 l-19 -41l5 -47l16 -39l16 -24l52 -37l30 -25l35 -22l27 -25l32 -24l66 -39l33 -29l24 -27l23 -16l6 -23l33 -53l14 -33l8 -36l15 -39l12 -37l2 -53l-8 -41l-23 -48l-12 -38l-25 -27l-12 -25l-29 -30l-26 -21l-43 -16l-58 -10l-40 -9l-46 9l-32 2l-29 6l-22 12h-15l-8 10 l4 23l8 12h15v-12l4 -8l14 -9l29 -12l65 -4l21 6l32 -2l43 12l39 17l48 33l8 24l20 33l12 35l15 26l2 31l10 45l-8 29l-8 39l-21 30l-10 37l-18 35l-13 33l-24 14l-19 21l-28 20l-25 25l-45 20l-27 27l-30 6l-29 25l-37 26l-20 17l-37 10l-35 31l-31 36l-18 37zM532 1010 l19 16l29 2l20 -10l-2 -23l-27 -6l-18 2z" />
<glyph unicode="T" horiz-adv-x="805" d="M-57 1208l4 33l18 25l17 16l26 8l41 21l39 10l62 6h67l86 -6h86l92 6l76 2l33 6l43 -4l47 8l51 -10l47 2l43 -4l82 -10h39l66 -33l10 -18v-15l-19 -8l-14 4l-41 6l-57 7h-66l-80 -5l-86 -12l-77 -2l-68 -14l-55 -10l-60 -19l-45 -12l-43 -10l-14 -17l-27 -16l-35 -19 l-41 -12l-55 -8l-55 -2l-49 16l-29 19l-29 20l-26 23zM211 1468l10 21l19 -6v-15l-13 -16zM330 1100v28l14 23l25 25l32 4l25 -9l29 -24l22 -27l15 -35l-11 -18l-8 -41v-37l-6 -47v-41l-4 -33l-8 -28l8 -23l-14 -26l-3 -35v-31l-8 -39l-4 -45l-4 -35l4 -41l-8 -47l-2 -45 v-37l2 -47l4 -51l-4 -49v-53l-6 -46l4 -43v-47l2 -43l-2 -43l-14 -14l-4 10l-5 19l5 32l2 39l-9 23l2 39l-6 22l-6 31v102l-8 33v37l-4 39v47l-4 39v41l4 41v55l-4 56v88l-2 32l8 31v39l-2 49l-17 47l-10 43l-16 33z" />
<glyph unicode="U" horiz-adv-x="891" d="M104 473l5 55v45l4 50l10 28l-8 19v28l14 29l4 41l-2 31l8 45l11 43v39l10 41v43l-21 34l-8 39l-2 21l10 37l17 24l14 6l35 17l41 6l39 -8l32 -21l19 -14l10 -14l21 -17l10 -26l-2 -37l-21 -37l-22 -33l-23 -43l-8 -31l-12 -57l-23 -49l-14 -55l-14 -52l-15 -47l-14 -51 l-2 -57l-12 -45l10 -60l2 -73l8 -50l21 -32l30 -25l17 -14l26 -8l51 -11l35 -4l37 2l66 13l51 32l29 31l22 35l23 29l2 28l14 19l18 43l13 37l8 36l20 35l-2 21l2 20l17 21l-6 34l14 56l6 47l14 41l-6 47l8 41l3 49l-3 39v39l9 31l-11 14l5 22l-5 25l2 23l3 28l4 29v16l18 6 l6 -8l-6 -28l4 -43v-23l6 -55l4 -68l-4 -61l2 -35l-6 -55v-37l-12 -43v-39l-12 -29l2 -31l-17 -36l6 -19l-8 -14l-6 -31l-2 -51l-18 -35l-11 -37l-8 -39l-14 -16l-14 -41l-21 -43l-31 -43l-35 -37l-38 -31l-45 -16l-48 -10l-43 -6h-53l-55 6l-37 10l-33 20l-33 19l-24 31 l-19 34l-14 39l-14 35l-4 43l-6 41zM846 971l10 20l16 -4l5 -20l-5 -15h-18z" />
<glyph unicode="V" horiz-adv-x="762" d="M-2 987l4 33l12 33l19 22l30 19h33l31 -13l37 -18l31 -35l24 -55l6 -41v-60l17 -51l16 -39l18 -41l11 -59l8 -53l14 -47l8 -37l7 -39l4 -41l6 -35l14 -12l23 8l18 18l12 37l11 29l12 27l14 36l13 21l6 35l18 43l14 39l15 34l8 27l12 25l-2 30l15 27l-2 25l26 18l12 45 l21 35l18 41l17 31l16 26l19 35l24 33l-2 24l21 41l4 33l10 19l18 12l13 26l16 13l20 2l19 -13l6 -18l-4 -18l-12 -17l-17 -20l-12 -29l-14 -31l-19 -30l-18 -37l-12 -43l-21 -49l-20 -47l-33 -70l-8 -27l-7 -37l-8 -34l-8 -41l-8 -54l-8 -49l-11 -53l-2 -37l-10 -39 l-10 -41l-14 -37l-37 -73l-6 -23l-19 -33l-24 -24l-13 -33l-18 -23l-8 -36l-13 -35l-32 -29l-39 -18l-31 4l-31 14l-16 29l-6 33v32l10 27l-10 27l-11 36l-2 33l2 45l-8 31v39l-12 18l2 27l-10 25l-19 69l-14 25l-6 30l-8 37l6 35l-25 25l-12 43l-18 28l-7 31l-22 29l-25 28 l-22 19l-21 33z" />
<glyph unicode="W" horiz-adv-x="1225" d="M57 946v27l2 18l19 15l10 16l21 6l43 -6l12 -21l16 -24l10 -29l-8 -30l-8 -46l10 -36l6 -25v-29l3 -41v-39l2 -30v-35l6 -41l4 -51l4 -41l10 -39v-43l2 -43l6 -45l-4 -37l-2 -39v-31l-2 -16l8 -16l15 4l16 22l16 21l19 43l24 43l25 47l8 28l15 35l16 35l27 41v35l14 24 l18 48l15 43l2 26l16 39l14 47l17 41l12 23l14 12h21l16 -12l15 -33l43 -43l4 -35l6 -43l8 -43l12 -37l17 -28l14 -37l14 -29l19 -43l14 -29l27 -67l16 -27l4 -14l17 -6l10 10v29l-2 18l2 20l27 35l26 41l12 47l9 62l2 49l4 45l18 31l21 18l26 25l6 26l-14 41l2 35v43l10 47 l9 27l18 18l29 17l16 18l12 39l19 43l22 41l19 29l18 22l33 37h25l22 -6l12 -25l-2 -28l-6 -23v-24l-8 -17l-12 -29l-11 -38l-18 -43v-25l-18 -63l-25 -50l6 -24l-10 -33l-6 -33l-10 -22l-3 -37l-8 -45v-29l-18 -39l-10 -53l-2 -47l-9 -39l-10 -37l-16 -39l-23 -45l-10 -39 l-14 -33l-4 -22l-17 -12l-20 -45l-27 -15l-10 -26l-21 -19l-34 -18l-43 -2l-39 8l-21 20l-12 21l-23 20l-20 35l-27 37l-22 41l-21 31l-8 47l-29 47l-6 37l-18 26v47l-6 35l-13 4l-14 25h-20l-19 -23l-16 -41l-13 -47l-14 -34l-20 -52l-41 -96l-9 -33l-16 -37l-16 -30 l-35 -31l-17 -37l-18 -24l-16 -23l-15 -20l-18 -7h-19l-16 21l-4 29l-4 32l8 39l-4 45v33l4 43l-8 43v43l-4 41l-10 43v41l-9 18l2 29l-10 45l-6 43l-2 41l-10 47l-11 39l-2 21l-4 32l-12 31l-2 31l-10 29zM1116 1266l17 12l10 -12v-15l-8 -12l-13 10z" />
<glyph unicode="X" horiz-adv-x="948" d="M-41 1184l6 16l10 43l39 27l37 -13l27 -24l22 -29l19 -6l39 -10l24 -29l27 -53l45 -47l47 -37l35 -41l16 -47l25 -37l4 -49l8 -47l39 -53l25 -31l18 -45l33 -45l31 41l30 51l10 41l29 35l10 28l2 43l11 31l12 29l25 28l24 11l12 24l27 33l25 25l28 51l19 35v41l-8 34 l10 31l22 10l31 -2l14 -22l23 -17l20 -14l15 -18l-4 -17l-15 -10l-6 -29l-18 -30l-31 -43l-27 -39l-12 -25l-35 -41l-8 -18l-22 -19l-25 -47l-33 -33l-8 -41l-25 -41l-28 -22l-25 -23l-22 -32l-17 -31l-10 -41l2 -31l31 -14l8 -21l18 -10l11 -31l20 -26l25 -23l14 -30 l39 -37l37 -45l20 -37l27 -17l27 -41l30 -34l49 -72l17 -51l-15 -21l-32 6l-39 31l-35 33l-31 43l-18 31l-19 22l-16 19l8 22l-26 37l-25 37l-37 20l-6 35l-25 35l-30 31l-4 32l-37 29l-39 19l-23 -11l-12 -12l-20 -33l-35 -43l-8 -28l-19 -29l-14 -8l-17 -31l-18 -2 l-14 -31l-13 -31l-32 -34l-9 -27l-20 -29l-35 -26l-37 -17l-12 -32l-12 -31l-19 -25l-12 -37l-25 -18h-37l-4 29l11 34l18 37l12 21l-4 26l35 37l14 29l7 33l8 28l12 33l16 23l21 24l16 4l25 4l24 13l19 18l22 10l21 21l16 29l25 26l14 25l17 31l18 22l25 14l24 21l-12 22 l-10 25l-21 25l-31 26l-37 41l-53 29l-39 22l-22 31l-19 41l-20 25l-8 24l-27 19l-18 28l-9 19l-12 32l-22 15l-13 18l4 13l-20 22l-12 21l-33 18l-33 4l-31 18l-12 25zM281 471l14 23l18 -13l2 -18l-14 -6zM453 1047l16 24l10 -27l-14 -18zM473 35l16 20l13 -16v-14l-13 -2 z" />
<glyph unicode="Y" horiz-adv-x="805" d="M-53 1237l6 35l6 37l23 18l4 12l14 9l35 2l41 6l41 -10l41 -15l37 -22l28 -29l29 -45l4 -39l2 -49l8 -53l19 -60l14 -37l18 -49l19 -37l39 -82l6 -20l27 -27l18 6l31 -6l12 11l8 26l19 45l24 49l29 48l-4 57l4 26l14 46l25 34l12 35l25 27l18 41l25 37l24 47l23 28l28 39 l29 27l78 63l10 5l17 6l10 -6l10 -9l-6 -22l-10 -25l-21 -22l-26 -21l-19 -28l-18 -15l-17 -20l-18 -37l-19 -31l-14 -37l-14 -35l-19 -41l-10 -40l-10 -46v-81l-2 -41l-17 -43l-8 -35l-28 -35l-7 -18l-22 -17l-29 -33l-20 -41l-13 -47l-10 -20l-6 -39l-10 -41l-12 -51 l-7 -51l-12 -39l-8 -47l-10 -35l-17 -45l-10 -52l-8 -57v-39l-8 -41l8 -39l2 -18l-6 -14l4 -43l-8 -29l-9 -14l-10 -5h-10l-10 11l-11 37l-10 47l-16 118l6 48v47l2 43l6 26l-6 35v33l-20 90l-2 47l-15 33l6 39l-10 35l-6 30l-16 29l-25 14l-16 21l-27 14l-14 25l-6 18l6 17 l14 30l16 29l-6 22l-30 31l-29 39l-27 31l-39 47l-45 53l-33 47l-20 27l-33 39l-14 31zM870 1516l7 12l20 8l2 -10l-8 -21z" />
<glyph unicode="Z" horiz-adv-x="1022" d="M-4 147l10 29l19 21l30 26l29 19l47 18l31 29l22 22l41 27l21 20l39 29l14 25l29 14l26 27l58 53l2 14l12 8l14 19l21 18l22 27l19 20l18 9l17 20l30 23l27 24l35 37l39 43l32 31l29 22l16 27l35 24l15 33l20 29l31 18l28 11l23 26l23 19l30 10l27 -8l8 -21l-8 -18 l-27 -19l-30 -8l-27 -18l-27 -23l-20 -18l-8 -27l-23 -29l-35 -38l-32 -17l-39 -39l-37 -30l-21 -23l-59 -59l-39 -29l-35 -27l-18 -22l-27 -17l-14 -18l-27 -23l-20 -26l-27 -19l-18 -24l-29 -25l-35 -28l-24 -23l-27 -29l-37 -30l-18 -37l-31 -21l-16 -35l-19 -32l-27 -25 l-10 -18l10 -13l29 -18l29 -12l24 -4l23 24l43 12l55 11l31 -4h121l41 4l49 -2h37l45 -2l47 -7h55l43 -4l39 -10l39 -4l33 -10l35 -8l30 -13l29 -10l18 -8l-4 -17l-28 -2l-70 17l-41 4l-35 -4l-45 8l-49 2h-45l-57 -2h-60l-41 -4h-41l-30 -2l-29 6l-49 -4l-45 -2h-31l-45 -8 l-31 -9l-33 -2l-30 9l-51 -7h-41l-35 15l-17 22l-8 27l-8 31zM113 1038v25l6 18l12 29l16 18l23 13l39 20l47 10l43 -4l55 -2l47 2l50 4l30 -6l43 11l49 4l37 8h113l53 -2l60 -6l108 -21l35 -8l27 -4h22l25 -14l12 -21l6 -27l-4 -28l-20 -21l-19 -10h-31l-24 10l-29 17 l-24 4l-33 10l-37 -2l-35 -8l-41 -4h-37l-37 -9l-30 -10l-45 -14l-19 -14h-28l-39 -17l-27 -2l-29 -16l-24 -4l-37 -17l-43 -6l-41 -2h-96l-45 6l-47 19l-19 24l-10 27z" />
<glyph unicode="[" horiz-adv-x="819" d="M14 -188l17 36l22 23l33 10l23 6l38 2l46 9l28 10l21 10l18 25l6 30v21l2 26v27l8 21l-2 41v110l2 37l5 47l-5 47l5 51l6 45v39l2 37l14 39l12 35l9 37l-2 45l2 31l-9 30l-2 41l-10 43v39l-4 33v76l-2 37l-4 41v30l-4 45l-2 39l-6 45l-5 39l9 31v33l-4 32l4 27l-15 43 l-8 23l6 22v39l6 41l9 35l12 29l8 45v26l14 25l35 12l31 2l37 -8l26 -12l25 -41l8 -21l4 -74l49 -4l35 -16l33 12l39 -2l53 -8l29 -2l41 -10l37 -4l30 -2h29l21 -11l8 -18l-2 4l-15 -12l-12 -17l-27 -2l-22 -10l-43 -6h-45l-53 -10l-41 -17l-45 17l-33 -17l-37 13l-27 -15 l-16 -24v-54l-10 -41l-2 -40l-6 -50l-5 -39v-28l-8 -29v-29l2 -34l-10 -31v-35l-4 -43l-4 -57l-2 -56l-4 -53l4 -39v-30l-4 -41l-8 -41l-5 -37l-4 -47l-6 -47l-4 -88l-8 -37l-2 -37l2 -37l-8 -39l-8 -45l-5 -37l-8 -31l-6 -34v-23l-4 -25l-6 -41l-4 -34l-4 -31l4 -21l18 -16 l23 -10l30 -8l33 -2l51 -2l48 2l55 -9h37l18 -8l45 4l51 -4h39l35 -2l29 -2h20l8 -10l-4 -17l-16 -10l-33 -6l-47 -2l-51 -10l-53 -6l-54 -4h-41l-24 -9l-33 -12l-33 10l-16 -14h-33l-45 -20l-20 -17v-45l-15 -37l-12 -24l-14 -21v-26l-21 -9l-10 -2l-12 8l-9 19l-18 74 l-4 43l-21 28l-36 17l-43 -2l-37 2l-35 6l-31 10l-20 16zM721 1569l20 8l11 -12l-4 -15h-21z" />
<glyph unicode="\" horiz-adv-x="969" d="M-2 1604l4 14l23 -4l20 -23l16 -30l19 -29l26 -31l19 -33l25 -69l16 -39l39 -74l12 -33l16 -39l31 -61l31 -57l55 -107l17 -35l20 -47l25 -33l28 -47l37 -63l15 -21l8 -26l24 -39l37 -55l31 -58l24 -53l27 -51l47 -109l45 -55l33 -57l113 -209l26 -29l25 -8l20 -31 l11 -22l4 -19l-6 -43l-27 -20l-35 -15l-29 -6l-22 8l-37 -28l-35 -4l-39 8l-18 18l2 27l16 27l8 43l-10 75l-28 58l-48 80l-57 118l-20 37l-29 43l-18 53l-25 56l-25 49l-20 49l-47 119l-39 84l-27 65l-30 62l-29 61l-76 174l-18 49l-15 43l-30 60l-54 119l-37 49l-22 47 l-25 49l-16 43zM918 70l12 12l16 2l6 -12l-4 -15l-14 -2l-12 4z" />
<glyph unicode="]" horiz-adv-x="819" d="M-25 -193l2 -4l15 13l12 16l27 2l22 10l43 6h45l54 11l41 16l45 -16l32 16l37 -12l27 14l16 25v53l10 41l3 41l6 49l4 39v29l8 28v29l-2 35l10 31v34l4 43l4 58l2 55l4 53l-4 39v31l4 41l9 41l4 37l4 47l6 47l4 88l8 37l2 37l-2 37l8 38l9 45l4 37l8 31l6 35v22l4 25 l6 41l4 35l5 30l-5 21l-18 16l-23 11l-30 8l-33 2l-51 2l-47 -2l-56 8h-36l-19 8l-45 -4l-51 4h-39l-35 2l-29 2h-20l-8 11l4 16l16 10l33 6l47 2l51 11l54 6l53 4h41l24 8l33 12l33 -10l16 14h33l45 21l21 16v45l14 37l12 25l15 20v27l20 8l10 2l13 -8l8 -18l18 -74l4 -43 l21 -29l37 -16l43 2l36 -2l35 -6l31 -11l20 -16l17 -4l-17 -37l-22 -23l-33 -10l-22 -6l-39 -2l-45 -8l-29 -10l-20 -11l-19 -24l-6 -31v-20l-2 -27v-27l-8 -20l2 -41v-111l-2 -37l-4 -47l4 -47l-4 -51l-7 -45v-39l-2 -37l-14 -39l-12 -35l-8 -36l2 -45l-2 -31l8 -31l2 -41 l10 -43v-39l4 -33v-75l2 -37l4 -41v-31l4 -45l2 -39l7 -45l4 -39l-8 -31v-32l4 -33l-4 -27l6 -28l4 -31l6 -35l2 -37v-39l-16 -32l-13 -29l-8 -45v-27l-14 -24l-35 -13l-31 -2l-37 8l-26 13l-25 41l-8 20l-4 74l-49 4l-35 16l-33 -12l-39 2l-53 8l-29 2l-41 11l-37 4l-30 2 h-29l-20 10zM111 -266l4 14h20l6 -18l-20 -9z" />
<glyph unicode="^" horiz-adv-x="1030" d="M158 700v21l8 14l-2 10l4 9l10 2v10l15 4l6 10l8 13l12 4l12 18l5 21l8 2l-2 14l6 20v13l-15 20l-10 17l-2 20l-2 12l4 4l-2 9v4l23 18v6l12 9l16 18l21 18l4 15l2 10l-2 8l8 27l6 24l13 31l4 16l6 9l-2 26l-4 25l4 22l12 19l10 14l15 6l4 15l10 8l4 8l-4 6l2 14l-10 17 l2 16l-8 6l4 15h10l16 8h9l6 8l24 2l21 -6l16 -16l8 -4l13 -15l14 -18l6 -19l14 -20l17 -14l2 -9l12 -10l6 -10l15 -12l-2 -13l14 -18l2 -8l8 -11l6 -18l13 -14l6 -25l6 -16l8 -25v-10l8 -12l11 -25l10 -20l2 -19l8 -12l6 -10l8 -17l6 -16l17 -15l-2 -22l4 -14l10 -15 l12 -14l11 -21l8 -12l8 -18l12 -19l15 -20l10 -19l6 -28l8 -2l21 -29v-8l8 -6l6 -15l-6 -4l-14 -14l-27 -4l-31 2l-28 6l-7 6h-4l-8 8l-12 6l-17 17l-10 12l-4 8l-8 2l-14 21l-13 6l-8 6l-12 12l-12 5l-25 12l-4 6l-6 6l-13 8l-10 8l-8 11l-4 8l-16 16l-3 6l-4 5l-6 8l-6 2 l2 16l-14 8l4 4l-6 7l-4 8l-2 6l-11 8v10l-12 4l-6 5l-12 10l-15 -6l-8 -4l4 -7l-10 -6v-6h-2l-4 -10l-2 -12v-2l-6 -5v-4l-2 -14v-6l-7 -6l5 -6l-7 -9l5 -14v-12l-3 -19l-6 -22l-18 -19l-2 -10l-2 -8v-10l-8 -4v-7l-5 -12l5 -14l-5 -10l-6 -9l-10 -12l-12 -6l-21 -8l-20 -2 l-14 -10l-31 -3h-21l-22 7l-6 4h-15l-10 8l-8 4v10zM467 518l16 4h21v-12l-4 -8l-21 4z" />
<glyph unicode="_" horiz-adv-x="1024" d="M-12 -317l4 26l8 19l47 12l68 -2l149 2l324 -8l368 -2l43 6l25 -8l14 -15l-2 -16l-4 -25l-8 -14l-31 -14l-102 -15l-242 -16l-151 -4l-107 8l-147 -12l-74 4l-100 -4l-45 8l-25 12l-10 23z" />
<glyph unicode="`" horiz-adv-x="528" d="M102 1055v18l9 14l28 19h27l18 -8l33 -23l25 -26l32 -25l35 -37l60 -51l28 -27l25 -24l4 -27l-23 -10l-20 6l-18 10l-60 25l-18 4l-27 12l-33 13l-39 6l-22 16l-25 14l-20 27l2 25v20l-14 10z" />
<glyph unicode="a" d="M0 545l6 22l21 25l22 29l27 22l30 16l33 27l31 14l57 11l49 4l35 -10l29 -15l31 -10l35 -23l18 -18l18 -29l13 -37l10 -36l14 -48l13 -36l2 -31l-2 -39l10 -45l6 -47l18 -82l11 -31l10 -28l8 -35l2 -29l-2 -14l-14 -15h-15l-16 17l-8 26l-13 21l-8 29l-8 8l-12 -6 l-17 -11l-18 -22l-29 -17l-18 -18l-31 -16l-35 -13l-30 -10l-27 -8l-20 -8l-21 6l-29 4l-34 14l-31 19l-19 24l-14 27l-2 43v29l6 32l19 33l18 31l25 22l26 19l35 6l31 4l35 8l30 19l39 20l19 8l20 6l8 21l-16 29l-19 26l-40 37l-41 12l-33 2l-12 -2h-21l-25 -12l-22 -14 l-27 -4h-30l-35 -9h-31l-25 13l-18 18zM178 152l10 -21l27 -8h29l32 8l15 16l20 5l47 32l23 15l16 26l17 21l2 28l2 25l-8 12l-29 8l-25 -2l-22 -10l-25 -8l-26 -14l-25 -4l-22 -11l-19 -14l-12 -18l-15 -23l-4 -20l-8 -19v-24zM446 92l5 12l12 7l8 -19l-8 -6zM528 260v12 l19 9l4 -17l-12 -8z" />
<glyph unicode="b" horiz-adv-x="672" d="M47 492l2 28l12 27l19 18l10 29l35 45l2 37l-2 51l-4 51l-2 39v39l-8 45l-2 39l-7 41l-2 43l-4 41v20l4 35v29l-8 31l-2 28l-12 27v25l12 20l19 20l28 11l29 2l35 -10l28 -13l33 -10l25 -16l4 -31l-2 -39l12 -29l8 -39l2 -30l-10 -52l-20 -32l-17 -23l-14 -28v-41 l-25 -64l-2 -49l-4 -51l-4 -41v-35l10 -21l23 -6l59 -4l41 -6l29 -2l35 -12l34 -8l33 -9l33 -18l35 -31l24 -26l21 -39l6 -47l-6 -74l-10 -19l-17 -51l-39 -39l-6 -30l6 -50l-45 -41l-47 -10l-49 -14l-29 -21l-28 -26l-23 -10l-24 -5l-19 5l-4 16l8 14l21 17l18 24l29 21 l18 26l25 21l26 33l29 28l25 33l18 31l21 39l8 26l2 35l-2 29l-17 28l-26 23l-21 10l-37 10l-30 5l-27 6l-27 -4l-38 -2l-33 -5l-17 -28l-20 -21l-6 -28l-4 -47l-6 -37l-2 -37l-7 -41l-2 -31l-2 -41l-4 -31l-4 -38l-2 -31v-66l-4 -28l4 -25v-31l-4 -20l-12 -15l-13 5l-6 6 l-6 22l-4 31v86l-2 39l6 43v86l-4 43l8 108l-12 27l-29 10l-16 11l-21 20zM193 55v17l10 10l10 -10l-10 -17h-10z" />
<glyph unicode="c" d="M16 465l13 14h18v-20l-10 -15l-10 9zM74 356l2 33l6 35l14 29l6 20v39l9 29l39 34l18 9l14 4l37 14l25 8l22 2l37 9l37 14l29 8l30 8l29 -2l33 -6l31 -10l30 -23l25 -16l20 -21l6 -26l-4 -27l-10 -20l-27 -47l-28 -9h-39l-33 11l-26 4l-35 10h-31l-21 -8l-36 -21l-21 -22 l-22 -29l-15 -29l-8 -24l-6 -17l-14 -12l-9 -41l-2 -30v-58l13 -31l26 -26l23 -10l35 -11l22 -10h76l33 6l18 8l14 11l19 -2l10 -17l-4 -14l-20 -16l-27 -13l-35 -14l-31 -10l-26 -4l-51 -5l-48 5l-28 12l-27 12l-28 19l-21 8l-12 28l-13 25l-8 29l-4 37l-10 41l-6 45v32z " />
<glyph unicode="d" horiz-adv-x="690" d="M66 338l12 61l14 31l19 55l39 37l45 13l28 16l62 22l41 -8l28 2l31 -18l47 -8l41 -23l-4 60l4 59l2 49l-4 102l-6 48v61l10 66v43l-6 53l-8 51l-27 68l-4 39v22l2 29l10 28l19 17l49 -2l43 -25l45 14l55 -28l17 -53l-11 -54l-12 -75l-20 -52l-13 -51l-14 -55l-12 -66v-59 l-4 -57l2 -35l-4 -56l-4 -67l-11 -47l8 -111l-4 -47l-2 -51l-6 -60l-6 -43l-4 -38l-4 -66l8 -59l10 -119l8 -29l11 -10l-6 -25l-17 -12l-18 14l-6 27l-2 31l-11 22l-10 68l-8 37l-16 32l-15 -22l-16 -16l-35 -9l-27 -4l-57 -20h-39l-55 16l-39 4l-14 27l-31 16l-19 15 l-14 34l-25 27l-14 35l-18 31l2 41zM164 649v21l8 63l14 27l37 2l31 -17l14 -28l-10 -53l-18 -13v-16l6 -29l-27 -12h-22l-29 20zM180 270l6 -32l11 -23l16 -18l49 -50l72 -20l47 2h29l30 2l25 -4l-6 35l12 6v59l4 39v84l-4 41l-14 27l-2 41l-13 33l-30 4h-43l-50 -17 l-51 -39l-30 -34l-21 -33l-10 -35l-23 -35z" />
<glyph unicode="e" horiz-adv-x="700" d="M63 389l3 37l8 39l8 33l10 22l10 25l9 12l18 16l14 2l25 35l29 25l30 16l37 6h47l39 2l53 -6l43 -12l119 -59l31 -19l29 -26l16 -21l10 -35v-30l-18 -27l-29 -16l-35 -15l-43 -14l-47 -4l-43 -10l-30 -15l-35 -12l-29 -8l-47 -2l-37 4l-25 -2l-22 -8l-10 -23l4 -43 l12 -23l23 -28l43 -47l22 -21l43 -22l23 -11l28 -12h33l31 8l26 4l29 11l29 6h18l2 -8l-10 -11l-18 -12l-31 -16l-33 -17l-31 -12l-30 -8l-45 2l-45 10l-37 19l-43 28l-39 33l-27 18l-20 19l-17 24l-12 9l-25 61l-22 53l-14 43zM209 492l6 -13l14 2l23 -2h39l33 -8h34l37 2 l33 8l29 8l4 21l-17 18l-26 13l-29 12l-33 4h-32l-29 -8l-29 -12l-26 -19l-15 -8zM526 147l6 13h15l2 -13l-12 -10z" />
<glyph unicode="f" horiz-adv-x="432" d="M-31 635l2 22l17 23l22 16l53 9h23l25 -5l24 15l8 12v16l-4 35l-6 39l-10 37l-2 25l2 24l-10 55v29l-2 31l10 57l2 37l18 55l13 31l14 27l12 26l6 23l4 29l19 24l20 14l27 15l31 8l26 2l29 8l37 -8l31 -10l22 -10l43 -46l17 -20l2 -20l-9 -19l-39 -22h-40l-31 -2l-25 -9 l-26 -14l-29 -23l-19 -24l-4 -27l-16 -30l-10 -37l-10 -39l-7 -41l-2 -47l-10 -35l4 -37v-76l4 -28l2 -17l17 -16l22 -10l43 -2l15 -9l24 4l31 -4h35l37 -16l14 -10l20 -13l-12 -8l-86 -26h-31l-53 -17l-27 -2l-40 -26l-7 -13v-76l-2 -53l2 -30l-2 -31v-80l-2 -35l-8 -33 v-30l-2 -39l-4 -39l-6 -51l-19 -41l-8 -39l-14 -43l-6 -39v-31l-4 -31v-34l-2 -37l6 -29l-15 -20l-18 -7l-12 19v37l8 67l2 45l2 29l-2 35l10 31l6 40l11 37l14 54v32l4 33l2 37l-2 352l-18 10l-29 -8l-27 -4l-20 -6l-33 2l-25 8l-34 35l-11 19z" />
<glyph unicode="g" horiz-adv-x="670" d="M29 -287l16 4l14 -10l15 -14l18 -25l25 -16l28 -21l35 -4l49 -14l52 6l43 10l32 17l35 28l23 33l24 39l15 37l20 45l6 47l6 57l4 56v37l-4 36l-2 25l2 55l-41 -26l-49 -15l-57 -8l-45 8l-47 13l-49 28l-29 21l-33 18l-20 33l-19 31l6 37l-10 22l-16 43v14l2 62l14 51 l12 37l35 27l23 30l6 39l29 19l18 12l12 20l82 15l53 -8l33 -5l29 -10l20 -14l19 -12l20 2l19 16l8 18l27 5l24 -7l14 -16l5 -18l-11 -19l-12 -16l-8 -29l2 -41v-45l6 -47v-61l8 -58l-4 -51l4 -59l-4 -47l4 -46l-8 -28l4 -37l-4 -51l-6 -45l-4 -56l-10 -37l-11 -34l-18 -47 l-23 -54l-22 -39l-45 -45l-27 -20l-43 -17l-43 -14l-57 -4l-51 4l-43 4l-39 17l-31 12l-27 25l-18 22l-10 29v24zM125 29l29 10l16 14l18 -14l-2 -19l-16 -12h-31zM219 274l14 -28l25 -23l27 -39l47 -26l37 -8l47 2l47 8l12 37l4 39l-6 34v37l2 39l-4 76l-6 43l-10 27 l-21 20l-26 -6l-29 -17l-29 -18l-31 -29l-43 -18l-49 -76l-2 -41z" />
<glyph unicode="h" horiz-adv-x="694" d="M23 1253l22 31l10 25l15 -6l8 16l16 29l31 10l35 -6l33 -2l28 -21l25 -33l12 -26l4 -41l-8 -27l-12 -26l-11 -39l-6 -47l-4 -39v-54l-8 -49l10 -37l2 -47v-51l2 -45l-2 -49v-107l23 25l28 37l58 20l61 -6l41 -6l39 -14l45 -27l31 -43l14 -25l10 -57l9 -41v-41l6 -53 l2 -49v-41l4 -39v-43l-6 -59l6 -46l2 -36l6 -31l-6 -31l-16 -22l-9 -7h-18l-18 17l26 18l2 23l4 16l-10 49l-4 47l-10 78l8 33l-25 31l-4 28l6 19l-10 24v33l-8 25l-18 20l-13 19l-22 35l-6 30l-27 23l-14 14h-27l-51 -10l-21 -12l-26 -41l-19 -54l-8 -36l-8 -19l-6 -35 l-2 -37v-28l-4 -35v-115l12 -78l2 -34l4 -35v-25l-2 -33l-8 -18l-12 -23l-23 -2l-16 9l-15 18l8 31l-6 28l-4 70l-10 35l8 26l-12 35l-2 41l-10 47v43l-4 19l-19 86l-6 22v43l-6 31l-10 39l-3 39l3 43l-7 20l-10 74l6 62l-14 28l-6 47l-8 39v41l2 51l-9 23l9 18l-2 35 l-17 35l-6 39l-8 18l2 19l-8 39l-8 41z" />
<glyph unicode="i" horiz-adv-x="340" d="M31 993l4 19l10 22l14 17l29 16l25 4l37 4l36 10l25 2l18 -2l11 -16l-4 -16l-17 -19l-14 -20v-19l10 -18l10 -14v-29l-10 -25l-16 -20l-21 -17l-26 -2l-29 2l-17 11l-20 14l-18 21l-23 28l-10 27zM66 672l8 24l12 19l16 6l23 6l25 -6l18 -16l18 -15h23l16 -16l15 -10 l12 -11v-18l-6 -10l-21 -11l-14 -12l-6 -24l-4 -33l-11 -33l7 -29l-9 -24l-2 -33l-4 -35v-35l4 -43l-4 -32v-35l6 -27l9 -26l-9 -31l11 -27v-47l2 -18l8 -27l2 -29l8 -20v-19l8 -18l-10 -18l-12 -5l-8 5l-9 20l-6 23l-4 18l-10 20v19l-14 31v28l-4 21v28l-7 25l-4 61l-4 17 l-2 39l2 26l-2 29v25l-10 20l-17 10l-12 13l-12 39l-4 22v80l4 35l-6 37l-2 24zM106 1100l5 18l14 6l14 -18l-16 -10z" />
<glyph unicode="j" horiz-adv-x="459" d="M-242 -387l11 10l16 -2l18 -16l15 -21l16 -10l10 -12l50 -15h26l21 -4l28 4l33 15l29 14l22 23l27 22l16 25l15 14l24 29l10 28l17 35l12 29l8 29l2 28l9 27l4 22l-4 35l-9 29v29l-8 28v27l6 20l-10 31l-4 29l-6 28l-4 23l-2 29l2 28l-8 29l-5 22v33l5 25l-7 28l11 23 l-11 20l-4 27v25l-12 24l-6 33l-12 33l-9 30l-2 31l11 29l10 24l10 21l21 8l18 2l25 10h30l27 -4l29 -10l26 -10l23 -19l18 -14l14 -29l7 -20l-11 -21l-14 -36l-14 -31l-4 -35l-5 -31l-6 -34l-6 -31v-39l-8 -35v-45l-4 -29v-20l-4 -41v-37l6 -18l-2 -21l-4 -37l-2 -39v-37 l8 -34v-31l-6 -35l-10 -27l-2 -24v-29l-7 -28l-12 -35l-16 -31l-15 -33l-18 -20l-27 -29l-16 -22l-23 -9l-26 -20l-29 -12l-31 -15l-28 -16l-33 -8l-23 4l-18 -8l-35 2h-31l-26 12l-21 4l-41 25h-22l-12 22l-2 14zM-43 299l12 12l17 -10l-9 -12l-12 -4zM59 905l2 27l21 26 l29 15l39 8l32 16l21 27l20 57l19 21l18 16h21l14 -16v-21l-4 -32l-6 -23l4 -29l6 -18l-4 -12l8 -17l8 -18l-2 -29l-24 -18l-29 -11l-62 -20l-34 -10h-29l-27 4l-20 10l-17 25z" />
<glyph unicode="k" horiz-adv-x="610" d="M74 1124l8 47l-6 41l12 29l21 23l20 26l23 27l28 10l31 -6l20 -10l29 -17l25 -24l18 -29l10 -24l2 -27l-10 -29l-8 -28l-12 -37l-17 -33l-2 -35l-10 -31l-10 -45l4 -32l-14 -41l-23 -35v-51l-4 -19l2 -31v-102l-2 -29l6 -47l-4 -47l74 41l28 29l21 8l20 16l54 23l18 16 l20 2l21 11l25 4l28 2l23 -2l20 -9l15 -16l4 -14l-9 -17l-14 -10l-29 -10l-28 -14l-27 -13l-18 -18l-27 -17l-20 -2l-21 -18l-27 -18l-26 -23l-29 -27l-14 -20l-8 -16v-17l14 -20l14 -11l29 -22l20 -29l27 -24l66 -78l14 -27l27 -28l20 -27l23 -12l24 -21l25 -14l12 -21 l18 -18l7 -12l-4 -15l-15 -2h-26l-29 12l-31 17l-8 18l-25 19l-20 28l-27 25l-37 53l-14 25l-24 20l-29 21l-23 20l-26 17l-41 39l-35 38l-6 -137l-4 -26v-93l-6 -28l-5 -68l-6 -31l-18 -81l-2 -27l-10 -25l-19 -4l-16 4l-4 21v35l20 43l10 37v34l5 41l-3 37l3 49v56l-3 55 l-8 67l-20 46l-2 47v57l2 37l4 35l-8 37v43l2 47l2 20l-2 39l-11 33l-2 37v61l-12 47l6 62l-22 34l2 54v35z" />
<glyph unicode="l" horiz-adv-x="365" d="M45 1290v37l18 23l29 14l29 12h26l25 -2l29 -14l28 -25l21 -16l20 -21l17 -38l-6 -19v-24l-2 -37l-9 -33l-8 -45l8 -35l-8 -31l-4 -39l-8 -96l-8 -29l-2 -32l2 -47l-17 -33l-6 -45l-10 -49l-8 -54l-8 -37l-13 -28l2 -21v-28l-8 -27l-4 -35l-2 -28l-6 -39v-33l-10 -37v-90 l2 -29v-28l4 -29l12 -23l27 -24l14 -19l33 -32l-4 -15h-21l-24 10l-29 23l-27 39l-18 33l-2 32l-2 41v31l-6 35l-5 35v39l11 39l2 39l6 28l6 31l-4 33l4 37v40l6 31l-6 33l-4 41l4 51l-10 57l-2 56l2 47l-4 104l2 43l-2 43l-11 39l-10 41l-8 43l-16 29l-17 27zM307 403 l10 21l19 -2l2 -16l-14 -11z" />
<glyph unicode="m" horiz-adv-x="936" d="M59 596l7 27l12 18l10 12l33 15l24 8l35 -4l37 -8l27 -11l30 -14l19 -18l12 -15l10 -18l27 4l29 12l26 8l19 13l37 8l26 -10l23 -13l18 -18l10 -25v-20l7 -29l2 -26l14 18l16 10l19 25l18 20l21 13l20 16l23 8l20 4l21 -2l20 -12l29 -10l24 -19l17 -22l12 -21l10 -22 l4 -27v-29l4 -28v-25l7 -31l4 -36l10 -27l6 -25l2 -24v-31l2 -27l2 -20l10 -16l-2 -21l-8 -25l-18 -4v39l-6 21l-9 28l-4 37l-6 37l-8 23l-6 32l-12 89l-13 22l-18 21l-19 4l-16 4l-27 2h-24l-25 4l-30 -21l-17 -10l-10 -28l-10 -19l-8 -31l-11 -34l-10 -27l-6 -35l-4 -27 l2 -36l-2 -19v-47l-6 -29l-2 -20l-13 -21h-18l-14 11l-5 14v55l3 39v76l2 35l-2 37v32l-3 29v72l-6 31l-12 28l-18 10l-29 -4l-25 -10l-18 -16l-19 -19l-22 -28l-18 -27l-17 -33l-14 -37l-17 -45l-6 -47l-4 -37l-6 -39v-36l4 -33v-45l-14 -29l-23 -25l-24 -6h-23l-14 11 l-10 14l-15 45l-6 47l-8 41v47l-2 47l-6 47l-2 45l-9 39v39l5 29l-5 24l-10 29l-12 29zM821 641l10 23l21 -11l6 -18l-27 -10z" />
<glyph unicode="n" horiz-adv-x="702" d="M63 653l3 19l10 18l12 12l23 17l28 2l29 -2l22 -14l21 -15l22 -22l11 -15l8 -24l22 -11l21 7l29 4l28 8l27 8l35 4l28 4l29 -10l14 -16l13 -29l10 -20l4 -29l10 -19l15 -24l10 -33l2 -29l2 -32l6 -31l2 -31l8 -28l2 -27v-29l4 -28l11 -29l4 -29l16 -22l8 -23v-18l-8 -11 l-10 -8l-21 2l-18 17l-6 18l-2 27v22l-8 29l-2 29v26l-9 27l-2 31l-16 49l-4 74l-17 51l-24 22l-29 13l-12 16l-21 10l-32 -10l-23 -8l-20 -23l-21 -24l-26 -37l-11 -25l-6 -22l-4 -21l-16 -22l-19 -23l-8 -33l-2 -37v-36l-4 -45l-2 -41v-37l2 -35l8 -31l6 -26l2 -25 l-10 -12l-8 -11l-19 -4h-18l-12 9l-10 12l-11 35l-6 28l-8 58v22l-4 25l-4 33v38l-4 35v27l-2 27l-7 30v37l-2 33v127l-8 24l-12 19l-8 16l-8 21zM494 88l16 16l10 -16l-8 -12l-10 -4z" />
<glyph unicode="o" horiz-adv-x="647" d="M63 330l5 28l10 39v39l12 39l21 62l22 20l4 23l21 16l26 18l25 15l37 8l24 -4l21 -12l12 -23l4 -20l-2 -27l-16 -21l-19 -24l-12 -27l-2 -26l-20 -19l-11 -37l-10 -24l-2 -37v-31l6 -33l14 -26l17 -21l22 -16l21 -21l26 -8l33 -2l4 -6l37 2l33 6l37 25l22 22l17 33l6 31 v41l-10 24l-17 31l-18 25l-23 22l-24 19l-19 14l-14 12l-4 21l8 14h19l18 -12l25 -10l16 -13l33 -22l22 -17l15 -22l18 -27l16 -24l9 -23l6 -37l-4 -35l-7 -32l-14 -25l-10 -27l-17 -28l-24 -17l-16 -24l-33 -17l-33 -12l-39 -4l-39 -6l-37 -4l-39 8l-32 6l-31 12l-25 11 l-26 24l-23 27l-24 14l-17 27l-12 28l-14 27l-2 31zM354 537l8 8l13 -2l4 -13l-12 -4z" />
<glyph unicode="p" horiz-adv-x="690" d="M20 344l17 8l14 -10l-6 -16l-16 -4zM66 -123l16 12l10 -8l-2 -16l-14 2zM86 -330l2 29l4 29l-2 32l6 9l10 26l11 35l8 20l8 31l8 27l11 24l-13 35l-2 41v31l2 22l-6 35l4 62l15 26l-9 39l7 43v37l4 31l-4 35l2 24l-9 25l-14 10l6 23l12 24l3 29l-7 26v23l-8 20l-31 48 l-12 59l-2 18v19l14 20l21 23h33l63 -17l29 -8l16 -35l6 -34l9 -15l28 2l29 13l74 10l30 -2l35 -10l19 -11l24 -12l27 -23l35 -57l8 -31l12 -34l8 -29l6 -27l5 -28l4 -37l-7 -37l-10 -33l-28 -65l-27 -25l-18 -12l-25 -13l-29 -12l-30 -6h-66l-27 6l-20 6l-16 21l-9 20 l-2 19l2 10l9 14h16l10 -8v-20l4 -27l33 -18h31l20 4l39 14l21 20l30 39l13 45l8 45v25l-15 27l-8 26l-2 29l-12 20l-12 23l-13 18l-20 15l-21 6l-28 8l-29 -2l-37 -29l-22 -22l-11 -25l-8 -24l-4 -33l4 -18l-18 -17l-15 -12l-14 -15l-6 -18v-29l-4 -28v-23l-4 -24l2 -25 l-6 -18l-8 -23l-11 -70l-10 -45l-4 -28l-8 -37l-4 -43l-17 -39l-2 -29l-12 -33l-10 -30l-8 -39l-9 -35l-4 -31l-2 -32l2 -39l2 -23l8 -20l-4 -19l-20 -18l-10 -10l-19 22l-6 29l-2 26v39z" />
<glyph unicode="q" horiz-adv-x="614" d="M74 215v107l2 34l6 17l-8 20l14 31l2 25l14 30l19 35l16 33l17 18l30 17l25 6l35 4l47 -2l22 6h31l27 -2l22 -4l15 2l8 20v21l-2 18l10 8l4 21l14 10l15 6l18 -2l15 -10l8 -12l-4 -23v-24l-11 -27l-12 -27l51 -30l13 -23l14 -29v-18l-14 -22l-17 -31l-41 -12l6 -50v-45 l11 -39v-39l8 -34l-4 -35v-64l10 -26l-8 -21l6 -18l8 -37v-37l-10 -72l-4 -53l6 -37l-2 -26l10 -31l-6 -23l10 -4l15 4l20 27l8 31l25 30l8 29l22 25l21 37l14 20h9l12 -2l4 -12v-13l-8 -18l-25 -43l-18 -37l-9 -39l-32 -35l-6 -36l-17 -48l-14 -36l-12 -45l-2 -37l-3 -45 l-2 -35l-6 -33l-22 -29l-2 9l-19 10l-18 28v29l-8 45v37l-15 41l-6 64l-4 49l-10 71l-8 133l8 39v127l-2 33l-17 10l-8 6l-14 -2l-21 -12l-20 -20l-31 -19l-51 -12l-51 2l-27 23l-41 6l-18 18l-17 29l-12 31l-4 30zM141 -109l2 29v37l9 23l14 14l20 16l41 13l29 -15l2 -31 l-31 -18l-14 -31v-37l-12 -26l-31 -15zM168 182l2 -37l23 -26l24 -6l29 -11l33 4h28l35 31l16 17l4 24l25 31l-2 20l12 39l-4 29l-6 22l-2 39l4 29v35l-16 18l-19 -12h-16l-10 -6l-35 -23l-31 -10l-20 -24l-19 -19l-14 -16l-10 -31l-11 -25l-16 -36zM451 731l14 14l14 -8 l-2 -10l-14 -10z" />
<glyph unicode="r" horiz-adv-x="508" d="M78 553l4 25l10 18l17 12l28 10l31 15l27 -4l34 -15l4 -20l15 -27v-41l12 -12l12 -2l17 4l20 16l27 17l31 14l26 15l31 4l33 8h18l25 -8l8 -15v-14l-14 -4l-19 2h-18l-27 -4l-33 -19l-16 -22l-33 -14l-14 -17l-27 -24l-12 -25l-8 -23v-30l-8 -23l-9 -24l-8 -27l-2 -29 v-65l-2 -29l-8 -29l-2 -28l-4 -31v-29l-15 -30l-18 -17l-27 -8l-18 -4l-16 4l-15 16l-8 19l-8 20l2 23l-2 33v47l-2 22l2 25l2 33v28l4 33l2 33l-2 37v30l-4 25l-2 23l-17 28l-14 23l-8 24z" />
<glyph unicode="s" horiz-adv-x="545" d="M0 664l12 16l19 -4v-17l-15 -8zM63 137v29l11 29l8 18l14 20l17 3l8 -17l-8 -22l-2 -25v-29l14 -22l27 -10l28 -11l25 -10l41 -4l26 -12l33 8l27 8l20 12l27 19l20 16l15 15l2 28v33l-10 25l-21 26l-29 10l-34 17l-13 12l-37 19l-26 16l-29 12l-18 10l-27 7l-18 2l-25 14 l-23 14l-14 25l-14 20l-10 27l-2 31l8 28l2 25l12 29l16 24l17 23l4 12l14 18h19l6 21l22 6l23 12l27 2l30 5l39 12l35 8h29l28 -8l21 -12l24 -19l15 -10l16 -23l6 -14v-29l-14 -22l-14 -15l-25 -10l-41 -4l-33 4l-28 2l-31 -6l-29 -14l-20 -15l-19 -20l-8 -29l12 -22 l19 -17l26 -6l19 -14l18 -16l21 -17l18 -20l19 -4l16 -9l14 -18l19 -8l18 -11l21 -18l16 -20l2 -29l6 -33l4 -29l-4 -28l-10 -31l-14 -27l-21 -20l-26 -23l-23 -8l-25 -14l-22 -10l-31 -2h-63l-21 16l-28 2l-39 10l-33 13l-19 16l-20 8l-12 23z" />
<glyph unicode="t" horiz-adv-x="557" d="M-14 573v11l4 18l12 12l21 11l22 -2l27 6l26 4l31 2l4 18l-4 29l4 33l2 43l-2 28l-4 25l-8 25v22l12 25l29 14l20 21l31 12l25 -2l22 -10l23 -15l8 -14l16 -19l6 -16l15 -25l4 -12l-2 -29l-8 -22l-3 -25l-10 -20l4 -19l17 -12l28 -6l27 4h76l22 -4l39 -2l29 -8l14 -2 l17 -6l-2 -15l-15 -10l-26 -6l-29 -2l-31 -8h-28l-31 -2l-39 -9l-23 7l-28 -9l-21 -14l-10 -16v-19l-2 -31l-8 -16v-24l-6 -27l-11 -39l-4 -33v-129l2 -31l-2 -38l-8 -29l-2 -23l-4 -39l8 -69l8 -17l13 -28l20 -15l37 -14l22 2h44l-11 -16l-35 -13h-47l-30 5l-31 10l-29 18 l-30 10l-31 33l-15 33l-2 37l-8 37l-8 26l4 39v41l-4 31l6 29l-10 39l-4 45l-2 36l2 33l8 37v129l-27 -4l-26 -8l-29 -10l-20 -15l-19 -4l-14 2zM510 545l18 6l23 -8l-12 -21l-25 4z" />
<glyph unicode="u" horiz-adv-x="692" d="M78 502l2 26l6 21l20 22l27 11l21 2l26 -4l25 -13l18 -14l17 -25l10 -22l8 -31l-4 -22l-14 -19l-13 -22l-2 -29l-10 -33v-28l2 -39l10 -41l15 -19l16 -26l29 -21l28 -14l35 -10l27 10l26 14l21 21l20 32l15 27l12 27l10 28l8 37l5 43l-9 37l-6 33l-6 14l4 27l-2 26l4 21 l6 18l4 27l11 16l12 8l18 -6l9 -16l2 -14l8 -21l-2 -20v-31l-8 -31v-14l-9 -12l5 -25l4 -29l10 -26l2 -41l10 -27l8 -35l4 -28l11 -31l12 -23l16 -20l17 -18l45 -21l6 -14l-10 -17l-13 -8l-16 -2l-14 4l-9 10l-16 19l-20 16l-15 15l-26 57l-4 24l-7 21l-6 16h-8l-10 -12 l-12 -20l-7 -19l-6 -20l-10 -21l-12 -18l-15 -17l-16 -22l-27 -15l-20 -10l-39 -10l-31 -2l-24 4l-27 14l-33 9l-22 18l-27 14l-16 17l-23 20l-8 31l-12 33l-8 32l-9 39l-8 23l6 31l-10 37l-2 20l-2 31l-4 26zM254 414l12 12l21 -2l20 -12l29 -37l-4 -47l-29 -29l-24 23 l-17 34l2 37z" />
<glyph unicode="v" horiz-adv-x="537" d="M0 700l2 27l18 25l27 12l39 -2l35 -6l31 -13l28 -18l21 -25l24 -24l39 -21l12 -20l3 -29l8 -26l-4 -19l-13 -16l-4 -23l4 -30v-27l9 -29l4 -33l6 -28l4 -33l2 -29l-12 -22v-17l8 -14l10 10l12 25l21 53l8 12l20 48l17 28v25l16 26l11 25l18 23l10 24l21 19l16 18l18 25 l13 18l8 10h12l15 -14v-14l-11 -25l-16 -14l-18 -23l-13 -22l-16 -27l-17 -23v-14l-10 -18l-10 -31l-12 -31l-15 -35l-10 -28l-10 -27l-12 -37l-15 -39l-4 -39l-10 -36l-4 -29l-6 -23l6 -16v-23l-2 -18l-13 -18l-16 -15l-20 -4l-25 8l-10 13l-12 22l-7 33l-2 29l-12 30 l-10 25l-15 33l-10 34l-16 31l-10 35l-41 127l-17 43l-8 66l-12 22l-19 25l-12 24l-10 29l-19 24l-14 23z" />
<glyph unicode="w" horiz-adv-x="735" d="M37 532v35l14 21l12 14l27 10l31 -4l26 -14l19 -12l16 -19l6 -16l13 -19l8 -26v-29l4 -29l-4 -34l4 -33v-39l4 -23l4 -20l4 -23v-18l6 -8l13 6l12 8l10 21l6 22l9 27l22 59l16 31l15 22l16 31l12 29l7 18l10 17l8 10l23 -2l10 -15v-20l-2 -23v-20l2 -25l8 -22l12 -31 l4 -31l11 -32l8 -39l8 -33l8 -31l8 -20v-25l7 -26l4 -23l6 -18l4 -21l8 -6l12 18v19l-4 22l-12 23l-2 22l2 23l8 33l2 26v29l2 31l8 30l15 29l6 31l4 24l14 23l13 20l14 29l12 27l15 18l16 23l8 20l15 17l10 20l16 2l2 -8l8 -21l-6 -16l-8 -16l-10 -29l-19 -23l-8 -20 l-10 -31l-12 -35l-2 -34l-9 -29v-31l-2 -18l-6 -25l-4 -31l-4 -38l-2 -33l-4 -29l-12 -31l-15 -28l-2 -27v-24l-8 -27v-29l-4 -18l-6 -17l-23 -10h-16l-12 17l-7 32l-2 25l-14 14l-2 17l-6 22l-10 41l-4 27l-5 20l-6 23l-6 24l-6 17v20l-10 17l-6 16l-9 29l-2 20l-8 19 l-12 18l-12 10l-13 -12l-6 -21l-8 -22l-2 -19l-4 -14l-12 -16l-11 -29l-10 -24l-10 -29l-2 -29l-10 -26l-7 -29l-8 -31l-6 -33l-10 -24l-8 -27l-13 -18l-20 -15l-12 -2h-17l-14 9l-2 14l-8 22l-6 25l-7 23l-4 36l-10 21v22l-2 31v27l-4 26l-10 60l-7 26l-2 27l2 25l-4 30 l-6 27l-10 20l-6 23l-8 18l-13 11l-14 16zM571 559v8l11 4l6 -10l-6 -10z" />
<glyph unicode="x" horiz-adv-x="649" d="M33 631l2 20l14 17h17l24 -6l14 -11l15 -20l4 -19l14 -22l13 -23l8 -18l10 -23l33 -51l24 -8l19 -33l24 -35l35 -24l10 28l19 27l6 19l12 24l15 19l16 22l14 27l11 22l12 23v24l12 19l6 18l13 10l16 19l22 14l29 8h25l22 -4l21 -14l20 -37l-2 -14l-2 -17l-12 -16l-17 -12 l-16 -17l-18 -22l-17 -13l-18 -20l-17 -14l-20 -25l-19 -24l-22 -50l-14 -24l-25 -17l-12 -22l-19 -19l13 -12l18 -26l14 -23l29 -29l6 -28l12 -11l13 -18l12 -20l21 -27l16 -19l18 -24l15 -19l18 -18l19 -14l12 -15l14 -14l10 -18l2 -17l-4 -12l-12 -10h-20l-17 10l-14 18 l-8 19l-23 20l-12 19l-21 18l-22 25l-14 18l-43 47l-13 27l-6 24l-2 25v8l-18 12l-23 9l-16 24l-21 -2l-20 -14l-8 -23v-14l-13 -8l-6 -17l-20 -14l-21 -18l-14 -21l-10 -22l-15 -19l-16 -22l-17 -15l-8 -20l-6 -8l-14 -15l-13 -18l-16 -16l-16 -13l-23 -2l-14 15l-2 12 l2 18l10 19l14 14l17 14l12 19l16 16l17 21l12 28l15 23l18 20l10 19l17 24l22 19l16 22l17 15l16 34l-22 41l-31 41l-31 31l-10 16l-20 21l-17 29l-14 22l-4 17l-15 14l-12 18l-31 35l-18 16zM111 266l18 15l12 -17l-6 -12l-22 -6z" />
<glyph unicode="y" horiz-adv-x="737" d="M16 455l15 14l14 -4l6 -14l-10 -11l-12 4zM41 528l4 19l4 16l12 19l19 14l26 10l29 -4l23 -6l24 -18l15 -21l12 -27l20 -41l11 -34l4 -49l-2 -31l4 -37l10 -4l8 -31l10 -20l2 -17l17 -14l24 -14l29 -11l25 11l24 4l23 10l20 14l27 6l37 -2l16 15l12 18l11 12v29l-4 31 l-7 37l-8 37l-6 36v27l-14 49l-17 27v20l9 21l14 14l24 -4l15 -10l8 -17l12 -18l11 -16l6 -19l12 -22l6 -25l6 -23l4 -30l-4 -29v-27l4 -34l-2 -27l2 -29l4 -24l2 -31l-2 -29l2 -32l7 -29l-9 -31l7 -26l4 -29l-2 -29l-9 -53v-23l-6 -28l2 -27l-4 -24l-10 -15v-28l-6 -35 l-10 -31l-17 -35l-4 -18l-10 -15l-10 -18l-15 -20l-20 -21l-6 -16l-19 -19l-16 -18l-19 -17l-18 -14l-25 -10l-14 -14l-27 -11l-34 -8l-33 2l-82 14l-35 11l-22 4l-23 22l-12 4l-10 15l-7 24l-2 21v39l2 33l7 14l6 10l8 6l8 -6v-12l-2 -19l4 -18v-27l-4 -16l10 -29l13 -12 l16 -8l18 -15l17 -2h14l21 -6h24l29 -4l26 8l21 2l27 -6l14 17l16 12l19 10l16 12l25 37l30 35l2 21l15 14l8 20l10 15v16l10 29l11 22l6 29l8 35l-4 22l10 27v35l2 31l4 30l-6 37l-8 27l-6 18l-12 17l-7 6l-10 -6l-18 -17l-17 -16l-24 -8l-19 -15l-18 -10l-21 -4l-10 -10 l-26 -6l-29 -11h-33l-33 13l-30 14l-17 2l-12 16l-12 4l-23 19l-24 14l-15 27l-12 20l-8 21l-8 28l-7 35v35l-12 33v33l-6 20l-4 33l-8 29l-19 28l-6 23z" />
<glyph unicode="z" horiz-adv-x="735" d="M16 43v16l11 21l18 31l29 20l24 31l21 22l18 23l21 20l24 19l19 26l30 29l35 31l33 33l35 28l31 29l34 22l37 21l35 8l18 27l23 16l31 14l22 19l8 14l7 10l-11 9l-24 -7h-31l-20 -8h-23l-22 -10l-35 -10l-39 -10l-41 -19l-47 -16l-43 -4l-41 -6l-47 6l-41 4l-35 14 l-27 21l-10 26l-2 21l2 26l18 23l27 18l31 8l35 5h36l43 -11l58 -2h45l65 2l45 6h50l49 11l37 2l28 -4l31 -11h25l26 -8l4 -14l6 -21l-8 -10l-18 -26l-31 -29l-39 -29l-37 -28l-34 -19l-23 -14l-66 -45l-45 -21l-28 -26l-82 -64l-43 -37l-33 -33l-20 -26l-21 -19l-18 -12 l-13 -24l-18 -19l-6 -10l10 -8h27l26 -4h43l80 4l51 4h47l54 -6l47 -2l33 -9l32 -6h41l31 -6l33 -4h14l14 -2l3 -25l-11 -10h-18l-21 4l-28 6l-33 -4l-31 6h-49l-35 2l-39 9h-65l-27 -2l-31 2l-28 -11l-31 -2h-33l-30 -4l-29 6l-12 -6l-43 -2h-23l-27 -8l-10 -12h-18z" />
<glyph unicode="{" horiz-adv-x="709" d="M-61 707l2 24l14 10l14 -6l11 10l22 7l16 8h21l33 -8l18 8l10 12l9 25l6 57l-11 147v54l5 47l14 55l-6 33l16 47l12 61l21 33l43 15h24l11 10l12 2l8 16l17 19l20 18l25 33l8 26l18 19l17 12h20l25 -12l16 -21l55 -20l7 -16l18 -5l4 -14l12 -20l15 -7l8 -20l4 -23l-4 -24 l-10 -19l-13 -12l-14 -2l-39 8l-33 15h-24l-17 -9l-20 -16l-17 -12l-6 -12l-12 -9l-18 -24l-13 -15l-16 -26l-8 -29l-8 -33l-11 -34l-2 -37l-4 -45l-10 -41l-8 -47l-4 -48v-45l-17 -28l-10 -33l-22 4l-23 -12l-29 -2l-20 -15l-8 -24l24 -10l45 -41l19 -58l22 -41l4 -32 l4 -76l7 -62l2 -61v-70l2 -76l8 -47l12 -57l12 -53l19 -43l16 -37l21 -33l26 -26l27 -23l35 -27l41 -8l43 -12l39 -12l24 2l21 -9l59 -12l12 -14l-4 -15l-4 -18l-16 -4l-37 6l-39 -2l-59 -4l-43 4l-31 14l-12 -2l-23 6l-41 15l-29 8l-20 25l-23 20l-20 21l-23 47l-22 49 l-4 45l4 31l-18 45l-5 49l-14 26l-2 58l-8 37l-2 77l-4 72l-6 47l-15 56v55l-10 41l-8 26l-13 25v29l-8 18l-20 -4l-19 8h-39l-26 -2h-39l-6 8zM260 -188l10 10l6 -15l-2 -14l-14 2v17z" />
<glyph unicode="|" horiz-adv-x="709" d="M281 872l20 27l-10 76v104l-8 33l10 37l-6 37v24l8 21l-2 14l2 17l-12 30v35l12 19l-8 34l22 21l33 8l29 4l28 -4l7 -33l4 -28l6 -23l-2 -29l2 -28l-17 -27l-2 -20l-2 -25l-4 -33l-10 -22v-33l-2 -43l-8 -43l4 -35l-8 -26l12 -33l-10 -47v-35l-2 -58l-11 -28l6 -21v-45 l-6 -39l6 -43l-4 -55v-188l7 -21v-45l-7 -39l7 -43l-5 -55v-137l2 -47l7 -50l14 -22l6 -74l-2 -43l4 -45l-6 -22l2 -23l4 -33l-4 -12l-10 -8h-8l-11 8l-10 18l-14 17l-4 33v49l-2 63v94l-9 45l-6 15l2 49l-2 31l6 32l-6 39l-2 37v29l-8 63v119l2 49l-2 31l6 33l-6 39l-2 37 v28l-8 64v182zM696 279l13 14l16 -10v-15l-14 -10z" />
<glyph unicode="}" horiz-adv-x="709" d="M27 -324l4 27l16 8l14 -2l2 -18l-16 -15h-20zM72 -238l14 31l27 31l28 8l31 2l49 19l25 20l10 14l23 25l28 37l25 51l22 39l11 39l8 35l14 67l-8 49l4 115l-8 47l-8 53l-13 23l-6 35l-8 57l-8 45l8 64l22 12l29 2l21 14l6 17l-23 18l-45 41l-18 57l-29 7l-16 20l-15 29 l-6 47l-8 39v41l2 51l-8 22l8 19l-2 35l-16 35l-6 38l-9 19l2 18l-4 23v31l6 24v19l-22 14l-27 6l-28 4h-23l-16 10l-2 17l2 24l10 17l27 8l24 8l33 4l33 6h71l35 -6l33 -2l29 -20l24 -33l12 -27l5 -41l-9 -26l-12 -27l-10 -39l-6 -47l-4 -39v-53l-9 -49l11 -37l2 -47v-51 l2 -46l-2 -49l12 -26v-29l8 -18l21 4l18 -8h39l27 2h39l6 -9l10 -10l-2 -24l-14 -11l-15 6l-10 -10l-23 -6l-16 -8h-20l-33 8l-39 12l-2 -24l16 -45l17 -37l8 -47l22 -37l-2 -27l15 -41l16 -59l8 -23l-10 -26l8 -35l2 -37l6 -29l-8 -53l-4 -63l-6 -54l-12 -18l-11 -45 l-18 -39l-25 -47l-41 -57l-59 -56l-41 -28l-55 -29l-58 -33l-43 -12l-20 -2l-19 16l-22 21zM489 1217l5 26l16 8l14 -2l2 -18l-16 -14h-21z" />
<glyph unicode="~" horiz-adv-x="741" d="M-14 655l4 27l16 8l14 -2l3 -18l-17 -15h-20zM14 821l11 23l2 35l8 26v37l10 35l4 41l12 37l13 43l35 35l57 20l41 10l57 6l55 -14l37 -31l17 -26l20 -39l37 -74l27 -12l37 4l26 12l21 17l14 24l6 29l12 26l-4 33l17 33l32 29l54 2l37 -13l10 -36l-4 -103l-10 -41 l-27 -49l-23 -35l-37 -37l-47 -20l-92 -14l-45 -3l-35 17l-28 31l-25 24v-2l-6 -14l-10 -6l-19 -11l-18 7l-23 10l-16 20l-6 19l2 16l18 12h17l16 9l-6 14l-25 41l-16 22l-31 29l-41 18l-41 -16l-35 -22l-22 -43l-18 -43l-5 -48l-2 -45v-30l-18 -27l-23 -8z" />
<glyph unicode="&#xa1;" horiz-adv-x="510" d="M125 1167l10 27l19 61l32 15l43 43l35 14l37 4l23 -51l24 -20l4 -33l-10 -19l-10 -20l-27 -27l-31 -14l-28 -6l-27 8l-20 2l-21 -4l-24 -10l-21 10zM164 61l4 29l12 31l6 31l4 36l7 39l4 54l8 55l2 51l4 53l4 107v47l6 55l2 41l2 53l-4 86v115l8 23l15 28l16 11l17 -11 l10 -22l-4 -23l6 -45l2 -47l8 -51l2 -39l8 -33l9 -37v-77l6 -33v-35l-9 -23l5 -20v-57l8 -29l2 -29l14 -30l4 -35l6 -41v-43l9 -49l-5 -37v-41l5 -27l8 -31l10 -32v-23l-4 -24l-6 -19l-23 -18l-28 -11h-33l-35 5l-27 12l-20 12l-19 19l-12 24l-10 19z" />
<glyph unicode="&#xa2;" horiz-adv-x="610" d="M63 659v41l5 52l20 59l14 33l15 35l16 24l19 31l18 29l20 24l15 23l-6 41l-4 77l-5 29l-2 37l-6 39l-12 35l-16 32l-4 39v27l10 27l24 14l15 4l20 2l23 -8l30 -4l19 -10l18 -9l13 7l6 8l6 14l10 2l10 4h13l16 15l14 4l13 -2l14 -11l6 -10l-2 -10l-4 -17l-18 -12l-7 -14 l-2 -14l-8 -41l-4 -56v-51l-2 -53l16 -2l29 4l35 -14l26 -23l17 -27l6 -16l-2 -23l-6 -8l-12 -14l-27 -12l-33 -23l-31 -10l-20 -19l-14 -67v-41l-5 -37v-45l5 -49l-5 -39l5 -51l2 -54l-2 -43l-11 -34l15 -13l14 -2l18 4l23 5h29l16 10l18 -4l21 2l25 4v12l12 -4v-14 l-15 -15l-30 -4l-23 -10l-39 -18l-39 -17l-12 -4l-6 -10v-25l-4 -20l-6 -13l10 -16l10 -39l6 -37l13 -51l2 -47l4 -20l8 -15l16 -10l19 -23v-22l-4 -12l-11 -11l-12 -6l-18 -4l-17 6l-16 17l-16 26l-13 31l-2 33l-8 20l-2 31l-18 149l-2 46l-19 4l-12 6l-6 -10v-7l10 -165 v-31l6 -39l4 -37l8 -27l11 -20l2 -14l-7 -11l-10 -4h-8l-20 8l-9 15l-10 30l-10 39l-8 107v51l-4 45l-4 39l-7 27l-16 28l-31 23l-35 33l-36 43l-23 37l-16 43zM164 686l2 -41l8 -27l12 -30l13 -17l12 -12l25 -12l-5 41l-2 26l-8 31l-6 35l-2 59l-16 62zM211 238l8 12 l10 -12l2 -11l-16 -2zM260 844l12 -105v-41l-6 -30l6 -56v-77l37 -21l13 158l-3 30l-10 41v33l-4 43v96l-33 -41zM281 1114l8 -22l20 16l21 14l-11 39l5 33v33l-5 22l-2 35l-20 8l-4 -63l-6 -31v-41l-6 -31v-12z" />
<glyph unicode="&#xa3;" horiz-adv-x="1026" d="M-63 1055l12 16h16l8 -8l-8 -14l-20 -7zM57 793l11 28l10 35l31 12l14 17l27 6l24 20l39 4h35l33 -4h43l18 19l2 28l4 37l2 29l8 10l7 56l4 20l6 39l10 41l10 39l15 39l4 32l18 27l39 43l41 25l39 22l35 23l41 10h47l16 -8h35l37 -21l41 -18l28 -25l19 -16l12 -31l-2 -28 l-18 -19l-41 -16h-33l-33 12l-39 2l-41 -10l-30 -15l-23 -24l-24 -25l-11 -28l-35 -37l-6 -29l-18 -33l-16 -39l-17 -18v-43l-8 -14l-2 -31l-2 -39l4 -25l25 -14l34 -4l43 -4l19 -6l24 4l37 -6l45 -6h39l31 -2l47 -13l45 -2l33 -8l31 -8l20 -12l23 -13l-23 -6l-33 -8h-67 l-31 -2l-45 6h-43l-41 6l-49 -6l-45 -2l-58 -10l-53 -4l-26 -11l-15 -20l-2 -39l-4 -37v-31l-4 -53l4 -41l-10 -41l-2 -43l-10 -47l-7 -39l-4 -18l-10 -15l18 -22l39 -35l64 -53l61 -27l21 -14l22 -2l19 -12l45 -9l35 -14l32 -8l39 -6l17 -9l22 -6h37l29 -2l37 -8l16 -4 l10 -14l2 -19l-4 -12l-14 -10l-27 18l-33 10l-26 7l-15 -5l-32 11l-35 14l-43 16l-96 17l-39 4l-29 4l-41 8l-29 8l-28 15l-70 41l-24 6l-23 -6l-4 -19l-14 -18l-17 -19l-6 -24l-22 -17l-21 -12l-18 -6l-19 4l-10 12l-23 21l-16 16l-25 13l-14 8l-12 14l-12 6l-13 17l-4 32 l4 27l13 20l24 15l31 8l45 6l10 10l25 -6h39l24 19l4 20l2 23l6 57l3 61l6 45v105l8 47l-2 31l-10 12l-19 -6l-18 -8l-25 -6l-26 -5l-46 -2l-32 5l-23 2l-26 20l-17 8l-18 25zM217 205h12l23 -6l20 16l-14 12l-31 -8z" />
<glyph unicode="&#xa4;" horiz-adv-x="811" d="M29 1030l4 25l4 18l14 10l15 -4l26 -6l31 -8l16 -10l15 -17l6 -26l8 -13v-43l6 -30l12 -29l21 -27l10 -18l16 -14l15 -23l6 8l22 17l25 14l37 8l24 -4l21 -12l12 -23l4 -20l-2 -27l-16 -20l-19 -25l-12 -26l-16 -23l-17 -59l-10 -25l-2 -37v-31l6 -32l15 -27l16 -20 l23 -17l20 -20l27 -8l32 -3l5 -6l36 2l33 7l37 24l23 23l16 32l6 31v41l-10 25l-17 30l-18 25l-16 18l-9 7l-24 14l-33 12l-18 14l-13 21l9 27l18 24l14 25l27 32l16 29l11 37l12 33l18 22l17 13l26 8h33l25 -4l24 -11l21 -14l14 -20l2 -27l-6 -18l-14 -19l-19 -14l-14 -15 l-33 -36l-18 -25l-11 -25l-22 -26l-23 -23q12 -7 43 -30l15 -23l18 -27l17 -24l8 -23l6 -37l-4 -34l-6 -33l-15 -25l-10 -26l-16 -29l-25 -16l-20 -15l24 -39l19 -30l12 -27l27 -29l24 -16l19 -16l22 -19l27 -33l20 -34l8 -31l-4 -25l-4 -18l-14 -10l-15 4l-26 6l-31 8 l-16 10l-15 17l-6 26l-8 13v43l-6 30l-12 29l-21 27l-10 18l-16 14l-13 23l-24 35l-23 -15l-39 -4l-39 -6l-37 -4l-38 8l-21 13l-6 -11l-14 -24l-27 -33l-16 -29l-11 -37l-12 -32l-18 -23l-17 -12l-26 -8h-33l-25 4l-24 10l-21 14l-14 21l-2 26l6 19l14 18l19 15l14 14 l33 37l18 24l11 25l22 27l21 18l-9 4l-24 14l-17 27l-12 29l-14 26l-2 31l-2 39l4 29l10 39v39l12 38l21 62l14 16l-10 17l-19 30l-12 27l-26 29l-25 16l-19 16l-22 19l-27 33l-20 34z" />
<glyph unicode="&#xa5;" horiz-adv-x="1243" d="M70 807l4 29l14 18l27 18h28l37 5l31 -5l45 7l49 8l41 -8l33 22h41l-2 19l-15 20l-16 23l-18 28l-27 35l-10 37l-10 31l-13 30l-22 43l-15 39l-14 29l-12 29l-29 10l-16 10l-11 19l7 18l-15 37v31l4 24l-16 29l-6 22l-4 19l10 22l16 15l31 10h41l35 -19l31 -28l32 -33 l19 -37l14 -27l17 -38l12 -37l14 -51l12 -41l7 -33l20 -45l18 -37l9 -23l14 -24l6 -15l10 -16l13 -31l8 -22l10 -25l16 -33l46 -4l28 41l23 39l37 51l16 33l23 27l20 45l27 47l36 57l27 43l21 23l16 39l27 30l14 31l29 41l16 6l18 -6l13 -6l4 -16l-4 -19l-19 -14l-22 -27 l-25 -37l-20 -39l-21 -34l-20 -39l-19 -37l-10 -33l-27 -53l-16 -39l-10 -37l-8 -18l-17 -15v-22l-22 -25l-2 -14l-19 -33h43l43 6l56 11l57 -3l24 -2l39 -2l47 -6l43 -2h29l21 -6l10 -10l2 -13l-19 -8h-22l-37 -8l-55 6l-33 -6l-25 -4l-53 -6l-55 -8l-49 -13l-56 -6 l-69 -16l-6 -33l-13 -27v-12l5 -20l34 8h21l33 4l16 -4l22 4l31 -4l27 6l33 -2l39 10l34 -4l29 -6h35l20 6l17 -10l24 4l29 2l14 -6l27 -6l-4 -17l-21 -2h-37l-41 -6l-47 -2l-45 -8l-63 -4l-49 -8l-62 -4l-59 -7l-29 -8l-35 -14l-20 -33l-10 -49v-88l-9 -51l-4 -56l-8 -47 l-6 -45l-2 -43l-10 -51l-6 -59v-136l-7 -34l-6 -37l2 -23l15 -24l10 -15l4 -22l-10 -23l-19 -8h-22l-15 8l-12 17l-8 22l-8 29l-2 45v33l-4 45v47l4 49l-8 35l8 51l-8 51l-2 43l-3 56l3 47l-3 53l3 47l-11 37l4 35l-10 18l-2 29v33l-12 14l-29 -12h-43l-14 -9l-25 -4l-22 -6 l-35 -16l-27 -23l-22 -12l-29 4l-16 6l-19 19l-10 22v25l10 22l19 17l41 4l26 -2h43l43 6l35 4h76l26 16l-4 31v18l-10 29l-18 8l-31 -2l-37 8l-27 -16l-28 -6l-15 14l-24 -16l-49 -8l-43 8l-35 6l-37 -12l-55 22zM106 1321l11 10l22 -2l15 -12l-13 -19h-20zM389 -303l21 16 l14 -20l-14 -8zM707 559v23l12 10l18 2l17 -19l-6 -18l-27 -8z" />
<glyph unicode="&#xa6;" horiz-adv-x="817" d="M311 1337l2 25l11 16l18 19l29 16l24 6h56l26 -12l21 -21l2 -18l-2 -20l-6 -21l-7 -18l-4 -43l-2 -29l4 -25l-4 -28l2 -33l-10 -31l2 -30l-6 -19l-2 -39l-4 -41l4 -14l-10 -27l4 -28l8 -29l-2 -33l4 -35l-2 -51l-8 -47l-4 -45l-2 -31l-9 -12l2 -39v-33l-12 -14l8 -21 l-4 -28l-2 -33l-6 -35l2 -16l-10 -19l-2 -24l2 -35l2 -23l-6 -20l4 -29l4 -39l-4 -41l-6 -26l4 -19l-2 -24l-2 -31l-6 -33l2 -30l4 -17v-16l-2 -33l2 -33l4 -22l-10 -21l4 -20v-31l6 -27l12 -28l12 -19l15 -18v-12l8 -25v-20l-8 -15l-25 -18l-20 -17l-8 -8l-21 2l-16 11 l-19 18l-10 31l-2 37l4 36l8 27l8 21l11 22l4 35l-4 29l-2 28v74l-9 31l4 37l-2 36l-4 17l-2 28l2 31v35l-2 35l-2 28l2 37v37l-8 29v33l4 24l-2 35l4 70v84l-4 41v36l-4 35l-4 31v29l-14 28l-4 37l2 33l10 41l4 37v24l14 95v34l-4 23l-12 25l-2 30l4 35l-6 33z" />
<glyph unicode="&#xa7;" horiz-adv-x="758" d="M78 733l12 17l19 -5v-16l-15 -8zM125 864v76l16 43l19 41l18 35l25 28l22 23l27 23l35 20l28 10l43 2l41 6l39 9l35 20l37 12l16 15l37 -6l19 -21l12 -37l14 -20l19 -21l10 -30l4 -31l4 -39l-16 -25h-25l-26 11l-27 14l-27 22l-6 19l-33 8l-18 6l-37 -6h-65l-43 -20 l-33 -21l-29 -26l-24 -25l-11 -29l-16 -41l4 -45l14 -39l15 -24l26 -21l21 -14l26 -27l31 -22l25 -25l28 -24l60 -37l30 -29l21 -27l20 -16l7 -22l14 -27l14 -25l15 -32l6 -37l14 -39l10 -35l2 -55l-8 -39l-20 -45l-11 -41l-22 -25l-10 -24l-27 -33l-25 -21l-36 -14l-11 -2 l7 -6l18 -4l16 -8l15 -19l18 -8l19 -10l20 -19l16 -20l2 -29l7 -33l4 -28l-4 -29l-11 -31l-14 -26l-20 -21l-27 -22l-23 -9l-24 -14l-23 -10l-30 -2h-64l-20 16l-29 2l-39 11l-33 12l-18 16l-21 8l-12 23l-10 22v29l10 29l8 18l15 21l16 2l8 -17l-8 -22l-2 -25v-28l14 -23 l27 -10l29 -10l24 -11l41 -4l27 -12l32 8l27 8l21 13l26 18l21 16l14 15l2 28v33l-10 25l-21 26l-28 11l-35 16l-12 12l-37 19l-27 16l-29 12l-18 11l-27 6l-18 2l-25 14l-22 15l-15 24l-14 21l-10 26l-2 31l8 29l2 24l12 29l17 24l16 23l4 12l15 19h18l6 20l23 6l22 13 l27 2l31 4l38 12l35 8h29l29 -8l20 -12l25 -19l14 -10l16 -22l11 -19l2 8l-15 31l-6 37l-18 31l-10 34l-17 37l-10 31l-23 14l-16 21l-27 20l-22 25l-39 20l-25 27l-28 6l-25 23l-33 26l-18 17l-35 12l-31 29l-26 36l-19 37zM315 150l13 -23l18 -16l27 -7l18 -14l19 -16 l8 -8l20 6l35 14l25 18l18 17l8 22l19 33l10 35l12 27l6 24l-8 -6l-14 -14l-25 -11l-41 -4l-32 4l-29 2l-31 -6l-29 -14l-20 -14l-18 -21zM721 1079l18 17l29 2l20 -11l-2 -22l-26 -6l-19 2z" />
<glyph unicode="&#xa8;" horiz-adv-x="709" d="M102 1008l19 16l37 23l32 14h48l20 -6l4 -13l19 -2l18 -10v-33l-31 -26l-8 -17l-10 -16l-8 -4l-11 -16l-16 -15l-14 -10l-19 -2l-24 4l-15 10l-6 25l-8 8l-6 10l-12 6l-5 11v12l-2 10zM225 883l11 10l22 -6l4 -15l-24 -12zM410 987v21l16 16l37 23l33 14h47l16 -6l10 -13 l17 -2l16 -10l4 -18l-4 -15l-14 -14l-15 -12l-8 -17l-10 -16l-10 -4l-8 -16l-15 -15l-16 -10l-23 -2l-20 4l-12 10l-9 25l-6 8l-8 10l-10 6l-4 11v12z" />
<glyph unicode="&#xa9;" horiz-adv-x="1290" d="M53 565l4 94v78l2 43l4 56l27 69v13l2 14l21 35l22 26l23 13l51 -5l35 -36l8 -31l-12 -55l-9 -27v-49l-16 -53l-10 -27l-23 -61l17 -50l16 -82l2 -38l10 -31l13 -29l16 -47l20 -53l72 -80l17 -23l18 -18l41 -33l39 -26l37 -23l32 -10l80 -19l27 2h20l43 2l56 7l53 32 l78 45l24 23l80 80l37 49l37 47l25 62l10 61l26 82l5 33v37l-3 32l-2 68l-6 22l-20 68l-23 55l-20 29l-62 59l-32 56l-21 26l-92 51l-94 27l-43 16l-60 11h-8l-49 -2l-29 -6l-96 -41h-31l-10 24l-4 35l6 18l70 50l28 6l86 8l62 2h88l55 -14l64 -37l108 -54l41 -34l72 -95 l57 -69l13 -21l20 -92l12 -24l9 -27l38 -76l15 -71l-19 -76l-22 -88l-37 -123l-10 -23l-51 -71l-41 -39l-31 -45l-37 -35l-8 -12l-31 -19l-16 -12l-4 -2l-23 -13l-10 -4l-35 -6l-14 -10l-78 -23l-49 2l-43 -24l-72 8l-61 4l-56 10l-47 17l-26 10l-35 18l-15 11l-18 10 l-25 12l-18 15l-31 18l-39 27l-16 10l-18 14l-25 25l-39 47l-29 41l-20 33l-10 20l-27 51l-18 60l-7 26l-6 31zM356 569l15 13l14 -15l2 -18h-29zM373 670v24l2 29l6 18l8 13l27 59l16 18l19 31l16 37l14 27l17 26l22 19l27 18l28 15l39 6l29 6h29l22 -15l17 -22l8 -21 l14 -53l-14 -24l-29 -29l-31 -16l-20 -15l-33 -18l-22 -21l-9 -20l-10 -41v-31l4 -37l11 -28l20 -41l-2 -19l23 -35l20 -22l41 -41l31 -12h37l22 8l33 18l22 8l33 31l21 23l20 26l6 21l4 16l15 12l18 -4l6 -14l-2 -27l-10 -26l-14 -35l-15 -29l-16 -22l-33 -39l-37 -31 l-28 -10l-27 -10l-35 -9l-20 -8l-29 13l-25 8l-26 14l-29 23l-37 22l-37 27l-22 24l-33 29l-20 25l-21 28l-10 31l-10 18l-27 27z" />
<glyph unicode="&#xaa;" d="M53 1204v23l10 14l23 19l20 22l27 14l29 13l33 16l26 10l55 6l46 -4l26 -8l27 -14l26 -10l29 -21l14 -18l15 -23l8 -33l4 -26l10 -41l6 -29v-24l-8 -29l6 -39v-39l4 -35l9 -30l4 -25l6 -27l2 -26v-25l-2 -10l-14 -10l-13 2l-14 14l-4 20l-12 19l-2 22l-7 9l-10 -4l-18 -7 l-21 -18l-24 -10l-19 -11l-28 -14l-31 -4l-31 -6l-27 -6l-16 -4l-18 6l-27 6l-29 14l-26 19l-13 20l-10 21l2 35l2 22l8 27l39 47l27 14l25 14h30l29 2l33 5l28 12l35 12l19 4l18 6l12 15l-12 26l-14 21l-17 14l-14 19l-35 12l-33 2h-10l-18 2l-23 -6l-22 -12l-25 -2l-26 4 l-35 -4l-29 4l-16 12zM127 653l6 25l19 18l20 13l98 16l27 2l158 -4l32 -4l27 2h18l25 -2l33 -12l8 -13l-10 -6l-25 -10l-33 -6l-18 4l-16 -4l-29 -4l-37 -4l-27 -7l-22 -6l-33 -12l-47 -8l-18 -10l-43 -21l-23 -4l-43 -2l-20 4l-13 12l-10 19zM178 897l6 -16l23 -9l22 -2 l35 4l12 13h21l18 12l50 23l16 18l16 14l6 23l3 20l-7 13l-24 8l-21 -2l-45 -8l-24 -13h-23l-22 -4l-31 -26l-14 -17l-9 -16l-6 -14zM391 274l8 21l21 8l12 -29l-12 -8zM444 1327l13 21l37 12l-5 -29l-24 -8z" />
<glyph unicode="&#xab;" horiz-adv-x="819" d="M88 362v31l6 19l15 14l16 25l14 22l15 12l26 33l21 17l20 22l23 16l16 17l6 18l15 19l8 26l4 19l4 24l12 17l15 8l24 12l21 -2l28 -4l19 -12l20 -19l6 -14l2 -16l5 -17l-3 -12l-6 -16l-12 -15l-10 -12l-12 -12l-11 -17l-16 -12l-12 -8l-15 -15l-14 -12l-4 -16l-12 -19 l-17 -14l-14 -14l-19 -17l-22 -24l-10 -21l-13 -18l-8 -19l-14 -14l-15 -16l-4 -23l2 -22l9 -23l8 -8l8 -17l12 -22l23 -27l24 -18l17 -37l12 -25l12 -22l13 -16l14 -17l12 -18l15 -11l12 -16l10 -12l10 -19l2 -14l-2 -12l-10 -8l-14 -5h-13l-22 15l-12 16l-15 23l-10 10 l-8 16l-19 17l-10 22l-14 23l-8 24l-19 17l-14 6l-21 27l-18 16l-20 33l-17 22l-14 25l-10 22l-7 21l-10 16l-2 21l4 12zM154 635l4 18l14 4l12 -12v-10l-12 -8zM375 381l8 22l14 11l17 22l12 23l16 10l23 33l20 16l19 19l20 16l17 14l8 21l10 18l8 23l11 41l10 16l12 10 l25 9l20 -5l27 -2l18 -10l19 -16l4 -15l8 -32l-2 -13l-6 -16l-13 -12l-8 -11l-12 -10l-10 -16l-15 -12l-14 -9l-25 -24l-4 -15l-14 -20l-14 -12l-15 -15l-18 -14l-19 -23l-12 -22l-12 -16l-4 -19l-15 -12l-14 -17l-2 -18v-25l6 -20l10 -8l7 -17l12 -20l20 -25l23 -18l8 -16 l8 -19l13 -25l14 -20l8 -14l14 -19l13 -14l12 -12l14 -17l9 -10l10 -18l2 -13l-2 -10l-10 -8l-13 -2h-16l-19 10l-12 18l-10 19l-12 12l-9 17l-16 14l-8 18l-17 25l-8 20l-16 17l-14 10l-19 23l-18 14l-21 31l-16 22l-21 45l-6 19l-10 16l-2 18l4 15l-6 20z" />
<glyph unicode="&#xac;" horiz-adv-x="842" d="M45 469v27l2 28l14 23l9 18l18 15h31l26 8l31 10h35l41 -4l47 8h31l35 10l28 17l39 12l37 23l31 20h57l35 -6h41l33 -2l28 -6l31 -11l35 5l22 -7l11 -16l-2 -23v-26l-3 -23l-10 -22l4 -23l-4 -20l-6 -25v-30l-10 -39l-2 -39l2 -33l-6 -31l-4 -35l-9 -30l-10 -45l-24 -25 l-13 33l-10 37l10 34l-2 25l2 41l6 31l7 22v15l4 22l2 27l-6 12l-19 4l-22 -10l-35 -4l-39 -4h-23l-28 12h-33l-23 -8l-26 -2l-37 -13l-21 -8l-30 2l-39 6l-37 -6l-43 -10l-33 -16l-26 -13l-7 -18l-28 -16l-23 -11l-28 6l-21 15l-12 22l-21 21l-4 22z" />
<glyph unicode="&#xad;" horiz-adv-x="963" d="M145 670v45l17 22l24 15l29 2l31 -9h35l26 -2l37 9l43 8l45 6l39 -4h43l39 -2l80 -19l41 -6l26 -8h41l29 -4h21l18 -8l2 -8v-31l-8 -10l-17 -7h-18l-33 -2h-51l-31 -8l-30 -2h-35l-41 -10l-39 6l-43 -4h-25l-22 -2l-25 -16l-20 2l-23 -11l-24 -10l-33 -2l-33 -8l-39 8 l-18 8l-21 10l-18 13l-10 18z" />
<glyph unicode="&#xae;" horiz-adv-x="1151" d="M-6 905l12 25h23l8 -25l-21 -14l-20 -10zM-4 676l18 57v31l17 18v47l14 31l29 31l16 63l35 58l37 41l26 47l33 6l37 29l61 28l33 29l41 14l37 37l33 41l12 12l31 15l47 -8l43 -31l33 -15l10 -30v-31l-35 -25l-74 -32l-51 -13l-49 9l-39 -23l-20 -35l-4 -33l-15 -26 l-16 -39l-12 -23l-19 -38l-29 -27l-16 -31l-18 -33l-6 -47l-5 -37v-36l-8 -39l-2 -31l-6 -37l-14 -35l12 -20l16 -35l11 -47l-2 -31l8 -24l6 -46l18 -28l37 -33l4 -41l11 -33l36 -45l39 -6l21 -22l49 -13l63 -8l76 21l53 4l62 18l45 17l57 30l11 35l36 8l11 29l-2 39l-2 31 l8 32l33 23l-3 82l19 55l10 59l19 52l4 57l-6 68l-15 59l-14 45l-37 47l-35 47l-22 23l-13 20l4 19h39l52 -33l49 -27l24 -47l33 -28l8 -50l21 -49l14 -39l27 -41l8 -63l12 -62l-8 -49l-8 -63l-45 -115l-33 -68l-29 -40l-39 -50l-20 -24l-66 -58l-53 -30l-31 -15h-30 l-54 -28l-82 -25l-86 -12l-83 8l-74 16l-60 31l-61 37l-49 31l-64 61l-30 33l-43 53l-27 66l-16 65l-11 70l11 51l-13 68zM371 815l2 16l8 13l10 6l19 8l20 8l27 -2l8 -10l27 -16l22 -11l2 -12l10 -18v-27l9 -6l8 -2l10 2l12 10l19 12l20 9l17 10l20 2l21 6h32l25 -2l20 -8 l17 -23l6 -16l2 -31v-12l-6 -19l-4 -10l-17 -16l-20 -14l-17 -7l-4 -12l-4 -22l4 -21l15 -10l16 -12l25 -17l8 -10l14 -8l12 -13l15 -8l10 -4l14 -8l6 -8l-2 -13l-12 -12l-12 -4l-4 -2h-4l-9 2h-18l-10 4h-8l-17 6h-12l-25 11l-16 6l-25 14l-16 27l-12 12l-6 20l-11 31 l-4 17l2 20v14l6 4l11 7l16 24l-2 10l4 13l4 14l-4 33l-8 10l-10 -10l-15 -2l-20 -10l-27 -27l-8 -14l-6 -17v-18l-4 -15l-6 -16l-6 -18v-62l-3 -18l-4 -19l-2 -18l-2 -21v-18l-10 -18l-12 -13l-33 -8l-20 8l-21 19l-10 4l-10 10l-5 12l-6 13l2 14l-2 22v31l-2 14l2 17l2 20 v19l4 43l-2 24v19l-2 16l-2 15l-10 18l-10 16l-4 15zM401 1272l9 24l22 -4v-20l-22 -17z" />
<glyph unicode="&#xaf;" horiz-adv-x="741" d="M29 817l12 31l16 -23l-10 -20zM59 881l13 30l45 35h28l45 17l41 2l52 4l36 -2h97l92 -4l80 -9l16 -8l31 -16l-19 -41l-22 -4l-29 -6l-69 -9l-103 -16l-65 8l-76 31l-49 10l-74 -41l-41 -6zM358 115l43 6v-45l-14 -2l-27 -11l15 27z" />
<glyph unicode="&#xb0;" horiz-adv-x="647" d="M170 1192v22l2 19l6 22v25l6 23l9 22l4 14l14 13l2 14l12 8l17 12l14 9l23 4l14 -2l12 -6l8 -15l2 -12l-2 -16v-11l4 -12l2 -12v-13l-2 -10l-4 -12l-4 -10l-2 -11l-6 -6l-4 -12l-4 -10l-2 -12v-13l8 -20l6 -6l8 -7l9 -8l20 -4l2 -2l25 4l14 8l6 9l6 12l4 10v14l-10 21 l-6 8l-8 8l-10 6l-7 7l-6 4l-6 8l-2 12v15l6 16l12 6h13l10 -6l14 -6l11 -8l20 -13l12 -10l11 -14l10 -17l10 -14l4 -12l4 -23l-2 -20l-4 -21l-8 -14l-6 -17l-10 -16l-15 -10l-10 -14l-20 -11l-19 -8l-25 -2l-22 -4l-23 -2l-22 4l-21 4l-18 8l-14 6l-17 15l-12 16l-16 8 l-25 50zM344 1339l4 4h8l2 -8l-8 -2z" />
<glyph unicode="&#xb1;" horiz-adv-x="817" d="M12 317l6 27l29 16l37 11l35 10h37l43 2l88 -12l30 -6l45 2l-4 8l13 86l-13 51l7 55v51l-17 27l-43 -4l-47 -8l-45 -17h-57l-58 2l-39 11l-36 12l-11 27l6 26l29 17l37 10l35 10h37l43 2l88 -12l30 -6l29 8l6 55v33l-8 33l4 28v41l-4 31v37l-6 43l-10 20l-11 23l-6 23 l6 20l17 12l31 11l28 4l37 -7l27 -10l18 -18l-6 -23l6 -24l10 -19l17 -22l4 -27l-4 -35l-6 -37l-11 -22l2 -21l-10 -28l-2 -29l-6 -33l-2 -22l10 -25l25 -14l41 -6h104l49 -8l37 -2l41 -5l17 -36l-52 -15h-47l-63 6l-41 -10l-56 -4l-40 -4l-31 -19v-45l-4 -110l-11 -80 l-4 -14l60 2l41 -6h104l49 -9l37 -2l41 -4l17 -37l-52 -14h-47l-63 6l-41 -10l-56 -4l-40 -4l-187 4l-47 -8l-45 -17h-57l-58 2l-39 11l-36 12zM385 61l2 31l29 -2l14 -18l-10 -21l-17 -8z" />
<glyph unicode="&#xb2;" horiz-adv-x="848" d="M74 1331l6 8l8 2l8 -4v-8l-4 -10h-12zM166 645l12 33l19 33l12 28l27 31l18 29l12 30l21 35l20 33l25 41l22 27l17 16l8 14l12 15l19 16l49 57l24 23l15 20l14 11l25 32l6 19l10 18l2 33l4 31l-2 33l-10 24l-25 12l-12 11l-16 2l-23 4l-29 -6l-18 -13l-25 -10l-16 -16 l-18 -15l-33 -12l-21 -8l-12 -2l-12 -8l-25 -2h-35l-20 8l-14 12l-9 12l-2 17l2 16l9 8l12 21l14 14l8 12l19 15l22 14l23 10l14 2l8 11l37 8l41 12l27 4l33 -4h28l31 -4l27 -10l26 -15l17 -6l4 -10l26 -27l15 -22l14 -21l2 -22v-21l-2 -22l4 -31l-2 -33l-8 -26l-15 -12 l-12 -23l-10 -16l-12 -9l-15 -28l-8 -11l-14 -8l-8 -14l-25 -16l-20 -19l-25 -26l-18 -17l-9 -14l-18 -12l-2 -23l-19 -6l-10 -14l-16 -25l-15 -25l-8 -18l-24 -31l-15 -24l-14 -31l-16 -33l-9 -24l-20 -11l-27 -14v-12h64l22 -8l15 8l20 -4l31 4l33 -8l41 -13l22 -12l12 8 l31 -8h43l31 -8l24 8l9 -12h8l14 -17l-2 -20l-2 -4h-10l-23 -9l-32 9l-39 4h-35l-43 -13l-51 13h-90l-39 -13h-15l-30 -12l-19 -4l-16 -20l-19 4l-12 16l-2 12v37z" />
<glyph unicode="&#xb3;" horiz-adv-x="899" d="M111 1356l4 20l14 15l21 12l32 2h37l12 4l21 2l37 4l30 -6l39 8l39 4h23l26 -6h27l14 2h58l39 4l32 2l25 -2l23 2h24l19 -6l4 -20v-21l-2 -10l-11 -10l-20 -25l-19 -16l-18 -10l-43 -39l-25 -17l-20 -22l-10 -15l-17 -8l-14 -18l-20 -23l-25 -22l-21 -25l-14 -18l-18 -21 l-11 -20l-14 -21l-2 -8l6 -2l27 -14h16l23 2l14 -6h16l19 -11l10 -6l14 -2l11 -8l26 -10l15 -21l12 -14l16 -14l6 -19l13 -10l6 -25l14 -43l19 -51v-24l-6 -29l-13 -31l-6 -26l-14 -31l-8 -23l-17 -28l-18 -4l-4 -15l-25 -18l-22 -15l-29 -14l-31 -12l-35 -12l-30 -5l-23 -4 h-35l-14 4l-18 7l-17 4l-16 10l-17 14l-12 13l-8 14v8l-2 16l10 17l21 14l14 4l12 -2l10 -6l5 -35l14 -22l22 -11l29 -2l25 17l30 6l29 12l21 10l30 19l25 20l14 23l12 22l11 33l10 27l4 39l-4 24l-2 35l-19 37l-28 10l-23 4l-20 13l-19 12l-24 10l-33 4l-37 6l-20 5l-15 -5 l-18 5l-29 4l-12 8l-8 4l-8 8l-7 12l-14 23l4 27l6 8l11 6l20 4l16 25l25 20l8 20l23 33l20 25l21 29l18 14l2 6l33 33l20 18l7 15l18 10l20 24l23 23l20 16l5 23l-33 -10l-23 -9l-22 -2l-21 -12l-41 -4l-26 -10l-29 -6l-10 -13l-27 -8l-18 -4l-15 2l-20 -2l-12 2l-33 4 l-33 2l-27 6l-22 6l-21 7l-16 18l-12 20z" />
<glyph unicode="&#xb4;" horiz-adv-x="586" d="M102 858v27l25 28l31 19l26 29l31 26l37 37l31 25l26 26l31 23l18 8h27l29 -19l8 -14v-18l-6 -19l-15 -10v-20l2 -25l-18 -27l-25 -14l-24 -16l-39 -6l-33 -13l-26 -12l-19 -4l-24 -10l-31 -15l-21 -10l-22 -6z" />
<glyph unicode="&#xb5;" horiz-adv-x="692" d="M78 502l2 26l6 21l20 22l27 11l21 2l26 -4l25 -13l18 -14l17 -25l10 -22l8 -31l-4 -22l-14 -19l-13 -22l-2 -29l-10 -33v-28l2 -39l10 -41l15 -19l16 -26l29 -21l28 -14l35 -10l27 10l26 14l21 21l20 32l15 27l12 27l10 28l8 37l5 43l-9 37l-6 33l-6 14l4 27l-2 26l4 21 l6 18l4 27l11 16l12 8l18 -6l9 -16l2 -14l8 -21l-2 -20v-31l-8 -31v-14l-9 -12l5 -25l4 -29l10 -26l2 -41l10 -27l8 -35l4 -28l11 -31l12 -23l16 -20l17 -18l45 -21l6 -14l-10 -17l-13 -8l-16 -2l-14 4l-9 10l-16 19l-20 16l-15 15l-26 57l-4 24l-7 21l-6 16h-8l-10 -12 l-12 -20l-7 -19l-6 -20l-10 -21l-12 -18l-15 -17l-16 -22l-27 -15l-20 -10l-39 -10l-31 -2l-24 4l-17 -12l11 -29l8 -35l-10 -51l-15 -33l-26 -10l-33 -2l-39 4l-25 25l-24 26l-6 41l8 49l20 31l6 25l13 22l-8 21l-11 20l-8 31l-12 33l-8 32l-9 39l-8 23l6 31l-10 37l-2 20 l-2 31l-4 26zM467 731l31 10l39 -14l18 -16l-10 -25l-17 -6l-10 -29l-16 15l-6 26l-9 19z" />
<glyph unicode="&#xb6;" horiz-adv-x="827" d="M74 842v106l2 35l6 16l-8 21l14 31l2 24l14 31l19 35l16 33l17 18l30 16l25 6l35 5l47 -2l22 6h31l27 -2l22 -4l29 -5l27 -6l22 -8l51 -31l13 -22l14 -29v-18l-14 -23l-17 -31l-41 -12l6 -49v-45l11 -39v-39l8 -35l-4 -34v-64l10 -27l-8 -20l6 -18l2 -37l8 -39l-6 -45 l6 -39l-2 -39l6 -37l-12 -33l-2 -33l-4 -30l8 -27l-8 -22l2 -19l6 -35l-2 -37l20 -40l-12 -33l-2 -33l-4 -31l8 -26l-8 -23l2 -18l6 -35l-2 -37l-4 -53l6 -37l-2 -27l10 -30l-6 -23l10 -4l15 4l20 27l8 30l25 31l8 29l27 28v33l-8 35l-6 10l2 37l-2 23l6 24l-6 31l-3 27v22 l-8 47v88l2 37l-2 25l6 24l-6 29l-2 27v22l-8 47v137l-12 17l20 16l-10 58v77l-8 25l10 29l-6 26v19l8 16l-2 10l2 13l-12 22v27l12 14l-8 29l22 12l33 6l29 6l29 -6l6 -24l4 -19l6 -20l-2 -21l2 -22l-16 -17l-5 -37l-4 -24l-10 -17v-24l-2 -33l-8 -33l4 -22l-8 -23l12 -24 l-10 -33v-29l-2 -43l-10 -22l6 -15v-34l-6 -29l6 -33l-4 -41v-141l6 -14v-35l-6 -29l6 -33l-4 -41v-102l2 -37l4 -8l12 24l14 21l13 -4l8 2l4 -12v-13l-8 -18l-25 -64l4 -37l-2 -32l4 -33l-6 -16l2 -19l4 -24l-4 -9l-10 -6h-8l-10 6l-11 15l-14 12l-4 25l-10 8l-29 -33 l-6 -37l-17 -47l-14 -37l-12 -45l-2 -37l-2 -45l-2 -35l-6 -32l-23 -29l-2 8l-18 10l-19 29v29l-8 45v37l-14 41l-7 63l-4 49l-10 72l-8 133l-14 82l-2 63l4 125l6 68l4 80l-6 78l6 104l-2 41v127l-2 33l-17 10l-8 6l-14 -2l-21 -12l-20 -21l-31 -18l-51 -12l-51 2l-27 22 l-41 6l-18 19l-17 28l-12 31l-4 31zM168 809l2 -37l23 -27l24 -6l29 -10l33 4h28l35 31l16 16l4 25l25 31l-2 20l12 39l-4 29l-6 22l-2 39l4 29v35l-16 18l-19 -12h-16l-10 -6l-35 -23l-31 -10l-20 -25l-19 -18l-14 -17l-10 -30l-11 -25l-16 -37zM227 780l15 15l14 -9 l-2 -10l-14 -10zM270 543l13 10l16 -6v-12l-14 -7zM588 1126l10 9l4 20l14 10l15 6l18 -2l15 -10l8 -12l-4 -23v-24l-19 -21h-22l-19 11l-18 18z" />
<glyph unicode="&#xb7;" horiz-adv-x="502" d="M125 745l25 23l47 29l43 16l32 4h23l24 -10l9 -16l22 -3l21 -14l4 -22l-4 -19l-37 -33l-10 -18l-15 -23l-8 -6l-14 -20l-21 -19l-18 -10l-23 -2l-28 4l-17 15l-10 28l-6 10l-12 13l-13 10l-6 12v13l-6 18zM297 602l10 6l12 -4v-10l-10 -10z" />
<glyph unicode="&#xb8;" horiz-adv-x="985" d="M348 -221l19 2l26 8l31 4l43 4l31 13l30 14l27 20l10 33l4 29l-2 24l-12 33l-18 25l-11 10l-16 6h-43l-25 -4l-16 8l-20 12l-13 17v16l4 19l13 18l6 29l2 18l-2 23l-8 28l34 25l43 12l43 -12l9 -25l-9 -34l-2 -21l2 -14l11 -13l26 -18l29 -18l24 -21l27 -29l17 -26l8 -17 l10 -32l2 -33l-6 -29l-14 -26l-19 -21l-25 -26l-10 -5l-14 -16l-35 -20l-37 -21l-43 -10l-45 -6l-37 2l-28 10l-15 10l-6 13v12z" />
<glyph unicode="&#xb9;" horiz-adv-x="451" d="M-31 1102l4 14l11 19l6 12l20 49l4 21l9 16l20 22l16 11l19 16l10 10l4 11v10l8 14l6 6l15 10q22 12 60 54q29 32 64 32q17 0 40 -6l20 -10q35 -25 35 -49q0 -10 -14 -57v-15l-9 -10l7 -22v-25l10 -25l-6 -55l-6 -25l2 -30l-5 -29v-27l3 -20l-5 -25l-2 -22v-33l-6 -22 v-23l-6 -29l-6 -22l-6 -51l-2 -29l-2 -12l-6 -8l6 -19l-2 -29l2 -28v-27l2 -12l-2 -6l8 -17l-10 -14l-6 -21l-7 -6h-12l-29 6l-8 25l-6 21l-6 34v23l-4 39v80l4 49v117l2 47l-8 39l-4 36l-8 33l-7 35l-2 39l17 20l-2 17l-4 8l-9 4l-22 -4l-19 -10l-14 -15l-18 -14l-31 -35 l-27 -45l-4 -10l-8 -10l-10 -17l-23 -10l-12 -4l-14 2l-9 6l-4 10zM35 1313l4 10l16 4l13 -6l2 -10l-11 -8l-14 -3z" />
<glyph unicode="&#xba;" d="M63 1100l5 28l10 39v39l12 39l21 62l22 20l4 23l21 16l26 18l25 15l37 8l24 -4l21 -12l12 -23l4 -20l-2 -27l-16 -21l-19 -24l-12 -27l-2 -26l-20 -19l-11 -37l-10 -24l-2 -37v-31l6 -33l14 -26l17 -21l22 -16l21 -21l26 -8l33 -2l4 -6l37 2l33 6l37 25l22 22l17 33l6 31 v41l-10 24l-17 31l-18 25l-23 22l-24 19l-19 14l-14 12l-4 21l8 14h19l18 -12l25 -10l16 -13l33 -22l22 -17l15 -22l18 -27l16 -24l9 -23l6 -37l-4 -35l-7 -32l-14 -25l-10 -27l-17 -28l-24 -17l-16 -24l-33 -17l-33 -12l-39 -4l-39 -6l-37 -4l-39 8l-32 6l-31 12l-25 11 l-26 24l-23 27l-24 14l-17 27l-12 29l-14 26l-2 31zM127 653l6 25l19 18l20 13l98 16l27 2l158 -4l32 -4l27 2h18l25 -2l33 -12l8 -13l-10 -6l-25 -10l-33 -6l-18 4l-16 -4l-29 -4l-37 -4l-27 -7l-22 -6l-33 -12l-47 -8l-18 -10l-43 -21l-23 -4l-43 -2l-20 4l-13 12l-10 19z M354 1307l8 8l13 -2l4 -13l-12 -4zM391 274l8 21l21 8l12 -29l-12 -8z" />
<glyph unicode="&#xbb;" horiz-adv-x="819" d="M61 594v16l9 15l18 12l29 8l28 -2l27 -4l21 -10l14 -15l18 -12l25 -41l14 -20l15 -31l14 -23l14 -18l12 -25l13 -16l14 -29l25 -22l30 -27l11 -18l18 -15l4 -18v-16l-10 -19l-12 -14l-11 -23l-16 -22l-16 -25l-21 -14l-29 -37l-16 -23l-10 -18l-21 -22l-16 -17l-10 -14 l-15 -25l-16 -16l-12 -17l-13 -18l-10 -12l-10 -8h-12l-4 10l2 14l8 19l14 18l10 25l15 14l14 18l16 23l17 20l14 19l29 43l14 14l8 21l15 22l18 19l10 20l13 12l-2 15l-15 10l-16 8l-25 14l-16 19l-25 20l-16 21l-18 16l-35 35l-17 23l-16 10l-16 20l-15 11l-28 28l-23 21 l-14 18l-8 14zM319 635v16l11 17l18 12l31 8l31 -2l28 -4l23 -10l16 -15l17 -16l14 -20l10 -23l17 -23l12 -30l18 -23l13 -20l16 -23l12 -20l15 -29l57 -53l31 -35l4 -20v-17l-11 -20l-10 -15l-12 -24l-18 -23l-17 -24l-22 -17l-15 -20l-14 -17l-19 -24l-12 -19l-18 -26 l-19 -19l-12 -14l-16 -23l-17 -20l-12 -12l-12 -23l-8 -12l-15 -8h-12l-4 12l2 12l10 23l12 18l13 25l14 14l16 23l17 18l16 25l17 18l18 25l10 22l15 13l12 22l14 23l19 22l10 21l14 14l-2 12l-18 10l-17 13l-24 14l-17 21l-24 16l-19 25l-34 34l-25 19l-14 22l-19 15 l-16 20l-17 12l-28 31l-23 16l-16 21l-8 14zM326 713l4 14l18 6l14 -12l-4 -21l-12 -4h-16z" />
<glyph unicode="&#xbc;" horiz-adv-x="1345" d="M-1 1102l4 14l11 19l6 12l20 49l4 21l9 16l20 22l16 11l19 16l10 10l4 11v10l8 14l6 6l15 10q22 12 60 54q29 32 64 32q17 0 40 -6l20 -10q35 -25 35 -49q0 -10 -14 -57v-15l-9 -10l7 -22v-25l10 -25l-6 -55l-6 -25l2 -30l-5 -29v-27l3 -20l-5 -25l-2 -22v-33l-6 -22v-23 l-6 -29l-6 -22l-6 -51l-2 -29l-2 -12l-6 -8l6 -19l-2 -29l2 -28v-27l2 -12l-2 -6l8 -17l-10 -14l-6 -21l-7 -6h-12l-29 6l-8 25l-6 21l-6 34v23l-4 39v80l4 49v117l2 47l-8 39l-4 36l-8 33l-7 35l-2 39l17 20l-2 17l-4 8l-9 4l-22 -4l-19 -10l-14 -15l-18 -14l-31 -35 l-27 -45l-4 -10l-8 -10l-10 -17l-23 -10l-12 -4l-14 2l-9 6l-4 10zM39 -78l8 31l21 34l26 33l23 19l18 16l25 16l26 29l13 27l18 30l21 33l20 31l17 33l22 30l21 33l8 19l37 53l20 31l35 61l27 31l20 32l12 29l21 31l18 20l23 33l20 29l25 28l12 17l19 14l16 23l20 30l13 21 l16 14l14 31l23 37l29 33l20 22l6 19l19 22l20 27l25 28l20 29l4 16l31 43l20 31l13 23l16 14l10 18l21 27l12 29l6 30v43l8 13l7 26l14 17l16 10l31 8l27 6l14 4l14 -10l4 -18l5 -25l-9 -31l-20 -34l-27 -33l-22 -19l-19 -16l-24 -16l-27 -29l-12 -27l-19 -30l-20 -33 l-21 -31l-16 -33l-22 -30l-21 -33l-8 -19l-58 -84l-34 -61l-27 -31l-20 -32l-13 -29l-20 -31l-19 -20l-22 -33l-21 -31l-24 -26l-12 -17l-19 -14l-16 -23l-21 -30l-12 -21l-16 -14l-15 -31l-22 -37l-29 -33l-20 -22l-7 -19l-18 -22l-21 -27l-24 -28l-21 -29l-4 -16l-30 -43 l-21 -31l-12 -23l-17 -14l-10 -18l-20 -27l-13 -29l-6 -30v-43l-8 -13l-6 -26l-14 -17l-17 -10l-30 -8l-27 -6l-14 -4l-15 10l-4 18zM65 1313l4 10l16 4l13 -6l2 -10l-11 -8l-14 -3zM761 370l2 16l-2 19l6 18l10 18l4 15l12 24l11 15l18 28l8 29l10 25l2 20v19l5 18l14 16 l12 9l10 16l17 24l12 17l6 20l15 35l8 15l-2 14l4 4l2 12l2 19l14 12l21 8l14 2l10 -2h13l14 -6l22 -8l13 -10l12 -9l12 -18l-4 -10l-4 -13l-6 -6l-6 -12l-17 -14l-16 -19l-14 -18l-19 -17l-14 -20l-14 -19l-11 -12l-8 -2l-4 -14l-8 -15l-4 -18l-4 -16l-13 -17l-10 -14 l-6 -16l-14 -17l-13 -16l-10 -13l-6 -14l-4 -12l4 -6l8 -4l17 -7l22 -2h19l20 -2l41 4h14l6 7v20l-6 16l4 29l15 21l-2 22v27l2 10v18l4 15l10 6h10l13 -6l10 -12l14 -9l10 -12l2 -16v-107l5 -6l10 -12l10 -4l16 4l17 2h108l11 6l20 -2l19 6v-10l12 -2l2 -6l-2 -9l-12 -14 h-39l-13 -6l-8 -6l-37 -13l-98 -14l-6 -12v-103l2 -26l-10 -12l8 -21l-6 -16l6 -27l-2 -14v-21l6 -22l-6 -23l-2 -28v-17l-4 -16l-11 -19l-18 -2h-16l-5 6l-10 23v20l4 41v23l-6 18l2 23l-2 31l-8 20v27l-4 61l2 31l2 22l-6 17l-2 10h-15l-16 6h-33l-24 4l-35 -4h-27l-16 -4 l-16 -8l-19 -10l-24 -9l-15 -4l-8 6l-10 3zM1242 511v12h20l8 -12l-4 -4z" />
<glyph unicode="&#xbd;" horiz-adv-x="1311" d="M-31 1102l4 14l11 19l6 12l20 49l4 21l9 16l20 22l16 11l19 16l10 10l4 11v10l8 14l6 6l15 10q22 12 60 54q29 32 64 32q17 0 40 -6l20 -10q35 -25 35 -49q0 -10 -14 -57v-15l-9 -10l7 -22v-25l10 -25l-6 -55l-6 -25l2 -30l-5 -29v-27l3 -20l-5 -25l-2 -22v-33l-6 -22 v-23l-6 -29l-6 -22l-6 -51l-2 -29l-2 -12l-6 -8l6 -19l-2 -29l2 -28v-27l2 -12l-2 -6l8 -17l-10 -14l-6 -21l-7 -6h-12l-29 6l-8 25l-6 21l-6 34v23l-4 39v80l4 49v117l2 47l-8 39l-4 36l-8 33l-7 35l-2 39l17 20l-2 17l-4 8l-9 4l-22 -4l-19 -10l-14 -15l-18 -14l-31 -35 l-27 -45l-4 -10l-8 -10l-10 -17l-23 -10l-12 -4l-14 2l-9 6l-4 10zM35 1313l4 10l16 4l13 -6l2 -10l-11 -8l-14 -3zM51 -92l8 31l21 34l26 33l23 19l18 16l25 16l26 29l13 27l18 30l21 33l20 31l17 33l22 30l21 33l8 19l37 53l20 31l35 61l27 31l20 32l12 29l21 31l18 20 l23 33l20 29l25 28l12 17l19 14l16 23l20 30l13 21l16 14l14 31l23 37l29 33l20 22l6 19l19 22l20 27l25 28l20 29l4 16l31 43l20 31l13 23l16 14l10 18l21 27l12 29l6 30v43l8 13l7 26l14 17l16 10l31 8l27 6l14 4l14 -10l4 -18l5 -25l-9 -31l-20 -34l-27 -33l-22 -19 l-19 -16l-24 -16l-27 -29l-12 -27l-19 -30l-20 -33l-21 -31l-16 -33l-22 -30l-21 -33l-8 -19l-58 -84l-34 -61l-27 -31l-20 -32l-13 -29l-20 -31l-19 -20l-22 -33l-21 -31l-24 -26l-12 -17l-19 -14l-16 -23l-21 -30l-12 -21l-16 -14l-15 -31l-22 -37l-29 -33l-20 -22l-7 -19 l-18 -22l-21 -27l-24 -28l-21 -29l-4 -16l-30 -43l-21 -31l-12 -23l-17 -14l-10 -18l-20 -27l-13 -29l-6 -30v-43l-8 -13l-6 -26l-14 -17l-17 -10l-30 -8l-27 -6l-14 -4l-15 10l-4 18zM707 792l6 8l8 2l8 -4v-8l-4 -10h-12zM799 106l12 33l19 33l12 28l27 31l18 29l12 30 l21 35l20 33l25 41l22 27l17 16l8 14l12 15l19 16l49 57l24 23l15 20l14 11l25 32l6 19l10 18l2 33l4 31l-2 33l-10 24l-25 12l-12 11l-16 2l-23 4l-29 -6l-18 -13l-25 -10l-16 -16l-18 -15l-33 -12l-21 -8l-12 -2l-12 -8l-25 -2h-35l-20 8l-14 12l-9 12l-2 17l2 16l9 8 l12 21l14 14l8 12l19 15l22 14l23 10l14 2l8 11l37 8l41 12l27 4l33 -4h28l31 -4l27 -10l26 -15l17 -6l4 -10l26 -27l15 -22l14 -21l2 -22v-21l-2 -22l4 -31l-2 -33l-8 -26l-15 -12l-12 -23l-10 -16l-12 -9l-15 -28l-8 -11l-14 -8l-8 -14l-25 -16l-20 -19l-25 -26l-18 -17 l-9 -14l-18 -12l-2 -23l-19 -6l-10 -14l-16 -25l-15 -25l-8 -18l-24 -31l-15 -24l-14 -31l-16 -33l-9 -24l-20 -11l-27 -14v-12h64l22 -8l15 8l20 -4l31 4l33 -8l41 -13l22 -12l12 8l31 -8h43l31 -8l24 8l9 -12h8l14 -17l-2 -20l-2 -4h-10l-23 -9l-32 9l-39 4h-35l-43 -13 l-51 13h-90l-39 -13h-15l-30 -12l-19 -4l-16 -20l-19 4l-12 16l-2 12v37z" />
<glyph unicode="&#xbe;" horiz-adv-x="1358" d="M-5 1356l4 20l15 15l20 12l33 2h37l12 4l20 2l37 4l31 -6l39 8l39 4h22l27 -6h27l14 2h57l39 4l33 2l25 -2l22 2h25l18 -6l4 -20v-21l-2 -10l-10 -10l-21 -25l-18 -16l-18 -10l-43 -39l-25 -17l-21 -22l-10 -15l-16 -8l-15 -18l-20 -23l-25 -22l-20 -25l-14 -18l-19 -21 l-10 -20l-14 -21l-2 -8l6 -2l26 -14h17l22 2l15 -6h16l18 -11l11 -6l14 -2l10 -8l27 -10l14 -21l12 -14l17 -14l6 -19l12 -10l6 -25l15 -43l18 -51v-24l-6 -29l-12 -31l-6 -26l-15 -31l-8 -23l-16 -28l-19 -4l-4 -15l-24 -18l-23 -15l-29 -14l-30 -12l-35 -12l-31 -5l-22 -4 h-35l-15 4l-18 7l-16 4l-17 10l-16 14l-12 13l-9 14v8l-2 16l11 17l20 14l14 4l13 -2l10 -6l4 -35l14 -22l23 -11l29 -2l24 17l31 6l29 12l20 10l31 19l24 20l15 23l12 22l10 33l10 27l5 39l-5 24l-2 35l-18 37l-29 10l-22 4l-21 13l-18 12l-25 10l-33 4l-36 6l-21 5l-14 -5 l-19 5l-28 4l-13 8l-8 4l-8 8l-6 12l-14 23l4 27l6 8l10 6l21 4l16 25l24 20l9 20l22 33l21 25l20 29l19 14l2 6l32 33l21 18l6 15l18 10l21 24l22 23l21 16l4 23l-33 -10l-22 -9l-23 -2l-20 -12l-41 -4l-27 -10l-29 -6l-10 -13l-26 -8l-19 -4l-14 2l-21 -2l-12 2l-33 4 l-32 2l-27 6l-23 6l-20 7l-16 18l-13 20zM117 -92l9 31l20 34l27 33l22 19l19 16l24 16l27 29l12 27l19 30l20 33l21 31l16 33l22 30l21 33l8 19l57 84l35 61l27 31l20 32l13 29l20 31l19 20l22 33l21 29l24 28l12 17l19 14l16 23l21 30l12 21l16 14l15 31l22 37l29 33 l20 22l7 19l18 22l20 27l25 28l21 29l4 16l30 43l21 31l12 23l17 14l10 18l20 27l13 29l6 30v43l8 13l6 26l14 17l17 10l30 8l27 6l14 4l15 -10l4 -18l4 -25l-8 -31l-21 -34l-26 -33l-23 -19l-18 -16l-25 -16l-27 -29l-12 -27l-18 -30l-21 -33l-20 -31l-17 -33l-22 -30 l-21 -33l-8 -19l-37 -53l-20 -31l-35 -61l-27 -31l-20 -32l-12 -29l-21 -31l-18 -20l-23 -33l-20 -31l-25 -26l-12 -17l-19 -14l-16 -23l-20 -30l-13 -21l-16 -14l-14 -31l-23 -37l-29 -33l-20 -22l-6 -19l-19 -22l-20 -27l-25 -28l-20 -29l-4 -16l-31 -43l-21 -31l-12 -23 l-16 -14l-10 -18l-21 -27l-12 -29l-6 -30v-43l-9 -13l-6 -26l-14 -17l-16 -10l-31 -8l-27 -6l-14 -4l-14 10l-5 18zM760 371l2 16l-2 18l6 19l11 18l4 15l12 24l10 15l19 28l8 29l10 24l2 21v18l4 19l15 16l12 8l10 17l17 24l12 17l6 20l14 35l8 14l-2 15l5 4l2 12l2 18 l14 13l20 8l15 2l10 -2h12l15 -6l22 -8l12 -11l13 -8l12 -18l-4 -10l-4 -13l-6 -6l-6 -12l-17 -15l-16 -18l-15 -18l-18 -17l-14 -20l-15 -19l-10 -12l-8 -2l-4 -14l-8 -15l-4 -18l-5 -17l-12 -16l-10 -14l-6 -17l-15 -16l-12 -16l-10 -13l-6 -14l-4 -12l4 -6l8 -5l16 -6 l23 -2h18l21 -2l41 4h14l6 6v21l-6 16l4 29l14 20l-2 23v27l2 10v18l5 15l10 6h10l12 -6l11 -13l14 -8l10 -12l2 -17v-106l4 -6l11 -12l10 -5l16 5l17 2h108l10 6l21 -2l18 6v-10l13 -2l2 -7l-2 -8l-13 -14h-39l-12 -6l-8 -6l-37 -13l-98 -14l-6 -12v-103l2 -26l-11 -13 l9 -20l-7 -16l7 -27l-3 -14v-21l7 -22l-7 -23l-2 -29v-16l-4 -16l-10 -19l-18 -2h-17l-4 6l-10 23v20l4 41v23l-6 18l2 23l-2 30l-8 21v27l-4 61l2 31l2 22l-6 17l-2 10h-15l-16 6h-33l-25 4l-34 -4h-27l-16 -4l-17 -8l-18 -11l-25 -8l-14 -4l-8 6l-11 2zM1242 512v12h20 l8 -12l-4 -4zM1528 -88z" />
<glyph unicode="&#xbf;" horiz-adv-x="731" d="M63 233v33l5 29l10 33l18 34l10 31l23 21l21 24l20 15l27 20l20 14l19 5l22 14l33 20l28 19l31 22l29 25l24 14l21 19l4 32l6 39l-2 35v57l-4 29l4 23l4 24l21 2l16 -12l6 -18v-33l10 -39v-37l9 -39l4 -35l-4 -28l-13 -31l-14 -21l-27 -28l-26 -25l-33 -18l-33 -29 l-18 -20l-23 -13l-18 -2l-10 -8l-31 -16l-25 -21l-26 -24l-23 -23l-18 -33l-8 -39l6 -47l6 -37l8 -32l10 -35l15 -27l20 -20l29 -4l37 -11l41 7l32 6l31 24l29 31l20 29l10 35l17 26l18 27l29 14l29 10l34 11h35l27 -15l20 -20l9 -23l6 -28l-8 -19l-11 -26l-26 -27l-27 -19 l-25 -14l-36 -31l-25 -24l-23 -29l-43 -24l-32 -15l-33 -10l-23 -8l-24 -6h-29l-33 -4l-43 10l-28 10l-37 23l-25 18l-16 23l-19 30l-8 33l-8 29l-6 35l-6 30l-2 29zM311 1075l2 21l21 14l16 14l17 6l4 15l10 20l12 21l33 24l23 2l26 -4l14 -12l7 -25l-2 -12l14 -14l16 -4 l17 -11l10 -14l-4 -16l-10 -17l-19 -20l6 -14v-21l-6 -16l-24 -15h-23l-25 13h-28l-19 4l-16 6l-18 8l-11 16h-18l-23 13zM418 952l16 11l12 -13l-10 -6h-10z" />
<glyph unicode="&#xc0;" horiz-adv-x="1030" d="M51 154v10l6 4l11 -2l2 -6v-6l-9 -4zM70 -16v41l10 26l-2 23l6 14l12 6v19l19 10l8 18l12 25l17 8l16 37l6 41l10 6l-4 27l8 41v26l-18 39l-12 35l-4 39l-2 27l6 8l-4 14v8l30 37v12l17 19l22 35l27 39l6 28l2 21l-2 16l10 51l8 49l17 62l4 35l8 16l-2 53l-4 47l4 45 l16 37l15 29l18 14l6 27l13 18l6 17l-6 12l4 27l-15 32l4 33l-12 15l6 26h13l22 17l12 2l9 16l32 4l27 -12l23 -35l10 -6l16 -31l19 -37l8 -35l18 -40l23 -31l2 -17l16 -18l10 -21l19 -26l-2 -25l18 -37l2 -16l11 -20l10 -35l16 -29l6 -49l9 -35l12 -49v-18l10 -27l14 -47 l13 -43l4 -35l10 -25l27 -18l32 -10l39 2h37l37 -8l6 -11l8 -10l-8 -6l-6 -10l-16 -17l-21 -2l-8 -10l-31 -6l-35 -16l-14 -13v-24l6 -29l13 -29l16 -28l14 -41l10 -25l13 -39l14 -35l21 -43l14 -36l8 -56l10 -6l13 -29l14 -28v-17l10 -10l8 -27l-8 -10l-16 -6l-6 10l-11 15 l-14 28l-20 27l-29 51l-21 49l-8 35l-14 19l-25 71l-20 25l-16 37l-23 37l-18 16l-43 47l-9 27l-34 24l-43 8l-46 -6l-47 -8l-34 -14l-37 -33l-35 -18l-8 -17l-27 -20l-57 -33l-11 -12l-8 -45v-29l-14 -16v-35l-6 -37l6 -60l-6 -41l-12 -43l-19 -34l-22 -27l-37 -33l-35 -6 l-33 -4l-10 8h-19l-14 17l-10 8v20zM84 -104l10 2h12v-11l-2 -8l-14 2zM174 649v10l10 11l11 4l2 -6v-11l-2 -10l-9 -6zM241 1669v18l9 14l28 19h27l18 -8l33 -23l25 -26l32 -25l35 -37l60 -51l28 -27l25 -24l4 -27l-23 -10l-20 6l-18 10l-60 25l-18 4l-27 12l-33 13l-39 6 l-22 16l-25 14l-20 27l2 25v20l-14 10zM358 700l17 -24l47 -21l49 -18l41 -23l23 -16l40 -8l27 6l8 6l15 23l-9 22l-20 37l-4 35l-10 16l-7 21l-12 20l2 53l-26 35l8 15l-10 24l-13 72l-16 33l-2 26l-23 29l-8 16l-20 43l-41 -41l4 -26l-15 -23v-24l-4 -13l-8 -41l-4 -36 v-11l-10 -14v-29l-4 -57v-27l-11 -24l7 -25zM506 625l2 8h10l6 4l4 -6v-10l-12 -3zM967 555v6l2 8l4 2l10 -4l-2 -8l-8 -4h-6zM983 -92l6 6l10 -2l2 -8q-1 -2 -10 -4l-6 2z" />
<glyph unicode="&#xc1;" horiz-adv-x="1030" d="M51 154v10l6 4l11 -2l2 -6v-6l-9 -4zM70 -16v41l10 26l-2 23l6 14l12 6v19l19 10l8 18l12 25l17 8l16 37l6 41l10 6l-4 27l8 41v26l-18 39l-12 35l-4 39l-2 27l6 8l-4 14v8l30 37v12l17 19l22 35l27 39l6 28l2 21l-2 16l10 51l8 49l17 62l4 35l8 16l-2 53l-4 47l4 45 l16 37l15 29l18 14l6 27l13 18l6 17l-6 12l4 27l-15 32l4 33l-12 15l6 26h13l22 17l12 2l9 16l32 4l27 -12l23 -35l10 -6l16 -31l19 -37l8 -35l18 -40l23 -31l2 -17l16 -18l10 -21l19 -26l-2 -25l18 -37l2 -16l11 -20l10 -35l16 -29l6 -49l9 -35l12 -49v-18l10 -27l14 -47 l13 -43l4 -35l10 -25l27 -18l32 -10l39 2h37l37 -8l6 -11l8 -10l-8 -6l-6 -10l-16 -17l-21 -2l-8 -10l-31 -6l-35 -16l-14 -13v-24l6 -29l13 -29l16 -28l14 -41l10 -25l13 -39l14 -35l21 -43l14 -36l8 -56l10 -6l13 -29l14 -28v-17l10 -10l8 -27l-8 -10l-16 -6l-6 10l-11 15 l-14 28l-20 27l-29 51l-21 49l-8 35l-14 19l-25 71l-20 25l-16 37l-23 37l-18 16l-43 47l-9 27l-34 24l-43 8l-46 -6l-47 -8l-34 -14l-37 -33l-35 -18l-8 -17l-27 -20l-57 -33l-11 -12l-8 -45v-29l-14 -16v-35l-6 -37l6 -60l-6 -41l-12 -43l-19 -34l-22 -27l-37 -33l-35 -6 l-33 -4l-10 8h-19l-14 17l-10 8v20zM84 -104l10 2h12v-11l-2 -8l-14 2zM174 649v10l10 11l11 4l2 -6v-11l-2 -10l-9 -6zM303 1472v27l25 28l31 19l26 29l31 26l37 37l31 25l26 26l31 23l18 8h27l29 -19l8 -14v-18l-6 -19l-15 -10v-20l2 -25l-18 -27l-25 -14l-24 -16l-39 -6 l-33 -13l-26 -12l-19 -4l-24 -10l-31 -15l-21 -10l-22 -6zM358 700l17 -24l47 -21l49 -18l41 -23l23 -16l40 -8l27 6l8 6l15 23l-9 22l-20 37l-4 35l-10 16l-7 21l-12 20l2 53l-26 35l8 15l-10 24l-13 72l-16 33l-2 26l-23 29l-8 16l-20 43l-41 -41l4 -26l-15 -23v-24 l-4 -13l-8 -41l-4 -36v-11l-10 -14v-29l-4 -57v-27l-11 -24l7 -25zM506 625l2 8h10l6 4l4 -6v-10l-12 -3zM967 555v6l2 8l4 2l10 -4l-2 -8l-8 -4h-6zM983 -92l6 6l10 -2l2 -8q-1 -2 -10 -4l-6 2z" />
<glyph unicode="&#xc2;" horiz-adv-x="1030" d="M51 154v10l6 4l11 -2l2 -6v-6l-9 -4zM70 -16v41l10 26l-2 23l6 14l12 6v19l19 10l8 18l12 25l17 8l16 37l6 41l10 6l-4 27l8 41v26l-18 39l-12 35l-4 39l-2 27l6 8l-4 14v8l30 37v12l17 19l22 35l27 39l6 28l2 21l-2 16l10 51l8 49l17 62l4 35l8 16l-2 53l-4 47l4 45 l16 37l15 29l18 14l6 27l13 18l6 17l-6 12l4 27l-15 32l4 33l-12 15l6 26h13l22 17l12 2l9 16l32 4l27 -12l23 -35l10 -6l16 -31l19 -37l8 -35l18 -40l23 -31l2 -17l16 -18l10 -21l19 -26l-2 -25l18 -37l2 -16l11 -20l10 -35l16 -29l6 -49l9 -35l12 -49v-18l10 -27l14 -47 l13 -43l4 -35l10 -25l27 -18l32 -10l39 2h37l37 -8l6 -11l8 -10l-8 -6l-6 -10l-16 -17l-21 -2l-8 -10l-31 -6l-35 -16l-14 -13v-24l6 -29l13 -29l16 -28l14 -41l10 -25l13 -39l14 -35l21 -43l14 -36l8 -56l10 -6l13 -29l14 -28v-17l10 -10l8 -27l-8 -10l-16 -6l-6 10l-11 15 l-14 28l-20 27l-29 51l-21 49l-8 35l-14 19l-25 71l-20 25l-16 37l-23 37l-18 16l-43 47l-9 27l-34 24l-43 8l-46 -6l-47 -8l-34 -14l-37 -33l-35 -18l-8 -17l-27 -20l-57 -33l-11 -12l-8 -45v-29l-14 -16v-35l-6 -37l6 -60l-6 -41l-12 -43l-19 -34l-22 -27l-37 -33l-35 -6 l-33 -4l-10 8h-19l-14 17l-10 8v20zM84 -104l10 2h12v-11l-2 -8l-14 2zM174 649v10l10 11l11 4l2 -6v-11l-2 -10l-9 -6zM182 1472v27l25 24l31 27l26 25l31 26l37 37l31 25l26 26l31 23l18 8h27l29 -19l16 -16l19 -14l26 -25l19 -20l18 -17l20 -16l23 -31l16 -26l25 -29 l16 -25l17 -22l-13 -8l-22 8l-39 31l-16 12l-21 12l-26 19l-21 18l-20 10l-25 21l-16 12l-11 -6l-16 -14l-25 -15l-30 -16l-31 -12l-33 -13l-26 -12l-19 -4l-24 -10l-31 -15l-21 -10l-22 -6zM358 700l17 -24l47 -21l49 -18l41 -23l23 -16l40 -8l27 6l8 6l15 23l-9 22l-20 37 l-4 35l-10 16l-7 21l-12 20l2 53l-26 35l8 15l-10 24l-13 72l-16 33l-2 26l-23 29l-8 16l-20 43l-41 -41l4 -26l-15 -23v-24l-4 -13l-8 -41l-4 -36v-11l-10 -14v-29l-4 -57v-27l-11 -24l7 -25zM506 625l2 8h10l6 4l4 -6v-10l-12 -3zM967 555v6l2 8l4 2l10 -4l-2 -8l-8 -4h-6 zM983 -92l6 6l10 -2l2 -8q-1 -2 -10 -4l-6 2z" />
<glyph unicode="&#xc3;" horiz-adv-x="1030" d="M51 154v10l6 4l11 -2l2 -6v-6l-9 -4zM70 -16v41l10 26l-2 23l6 14l12 6v19l19 10l8 18l12 25l17 8l16 37l6 41l10 6l-4 27l8 41v26l-18 39l-12 35l-4 39l-2 27l6 8l-4 14v8l30 37v12l17 19l22 35l27 39l6 28l2 21l-2 16l10 51l8 49l17 62l4 35l8 16l-2 53l-4 47l4 45 l16 37l15 29l18 14l6 27l13 18l6 17l-6 12l4 27l-15 32l4 33l-12 15l6 26h13l22 17l12 2l9 16l32 4l27 -12l23 -35l10 -6l16 -31l19 -37l8 -35l18 -40l23 -31l2 -17l16 -18l10 -21l19 -26l-2 -25l18 -37l2 -16l11 -20l10 -35l16 -29l6 -49l9 -35l12 -49v-18l10 -27l14 -47 l13 -43l4 -35l10 -25l27 -18l32 -10l39 2h37l37 -8l6 -11l8 -10l-8 -6l-6 -10l-16 -17l-21 -2l-8 -10l-31 -6l-35 -16l-14 -13v-24l6 -29l13 -29l16 -28l14 -41l10 -25l13 -39l14 -35l21 -43l14 -36l8 -56l10 -6l13 -29l14 -28v-17l10 -10l8 -27l-8 -10l-16 -6l-6 10l-11 15 l-14 28l-20 27l-29 51l-21 49l-8 35l-14 19l-25 71l-20 25l-16 37l-23 37l-18 16l-43 47l-9 27l-34 24l-43 8l-46 -6l-47 -8l-34 -14l-37 -33l-35 -18l-8 -17l-27 -20l-57 -33l-11 -12l-8 -45v-29l-14 -16v-35l-6 -37l6 -60l-6 -41l-12 -43l-19 -34l-22 -27l-37 -33l-35 -6 l-33 -4l-10 8h-19l-14 17l-10 8v20zM84 -104l10 2h12v-11l-2 -8l-14 2zM174 649v10l10 11l11 4l2 -6v-11l-2 -10l-9 -6zM182 1474v80l7 31l18 39l18 26l27 29l37 16l41 6l31 5l34 2l27 -13l23 -24l45 -45l16 -31l20 -33l13 -16l26 -23l31 -14l33 12l24 19l17 32l14 33l2 37 v59l12 21l17 6l4 -12l-6 -19l-2 -26l-4 -21v-28l-6 -27l-3 -33l-10 -28l-8 -33l-25 -27l-45 -16l-30 -8l-45 -5l-43 11l-29 24l-14 21l-47 88l-21 8l-29 -2l-20 -10l-16 -13l-11 -18l-4 -22l-8 -21l4 -27l-12 -24l-25 -23l-41 -2l-28 10zM358 700l17 -24l47 -21l49 -18 l41 -23l23 -16l40 -8l27 6l8 6l15 23l-9 22l-20 37l-4 35l-10 16l-7 21l-12 20l2 53l-26 35l8 15l-10 24l-13 72l-16 33l-2 26l-23 29l-8 16l-20 43l-41 -41l4 -26l-15 -23v-24l-4 -13l-8 -41l-4 -36v-11l-10 -14v-29l-4 -57v-27l-11 -24l7 -25zM451 1720l2 16l16 2l14 -10 l3 -12l-13 -6l-18 -4zM506 625l2 8h10l6 4l4 -6v-10l-12 -3zM967 555v6l2 8l4 2l10 -4l-2 -8l-8 -4h-6zM983 -92l6 6l10 -2l2 -8q-1 -2 -10 -4l-6 2z" />
<glyph unicode="&#xc4;" horiz-adv-x="1030" d="M51 154v10l6 4l11 -2l2 -6v-6l-9 -4zM70 -16v41l10 26l-2 23l6 14l12 6v19l19 10l8 18l12 25l17 8l16 37l6 41l10 6l-4 27l8 41v26l-18 39l-12 35l-4 39l-2 27l6 8l-4 14v8l30 37v12l17 19l22 35l27 39l6 28l2 21l-2 16l10 51l8 49l17 62l4 35l8 16l-2 53l-4 47l4 45 l16 37l15 29l18 14l6 27l13 18l6 17l-6 12l4 27l-15 32l4 33l-12 15l6 26h13l22 17l12 2l9 16l32 4l27 -12l23 -35l10 -6l16 -31l19 -37l8 -35l18 -40l23 -31l2 -17l16 -18l10 -21l19 -26l-2 -25l18 -37l2 -16l11 -20l10 -35l16 -29l6 -49l9 -35l12 -49v-18l10 -27l14 -47 l13 -43l4 -35l10 -25l27 -18l32 -10l39 2h37l37 -8l6 -11l8 -10l-8 -6l-6 -10l-16 -17l-21 -2l-8 -10l-31 -6l-35 -16l-14 -13v-24l6 -29l13 -29l16 -28l14 -41l10 -25l13 -39l14 -35l21 -43l14 -36l8 -56l10 -6l13 -29l14 -28v-17l10 -10l8 -27l-8 -10l-16 -6l-6 10l-11 15 l-14 28l-20 27l-29 51l-21 49l-8 35l-14 19l-25 71l-20 25l-16 37l-23 37l-18 16l-43 47l-9 27l-34 24l-43 8l-46 -6l-47 -8l-34 -14l-37 -33l-35 -18l-8 -17l-27 -20l-57 -33l-11 -12l-8 -45v-29l-14 -16v-35l-6 -37l6 -60l-6 -41l-12 -43l-19 -34l-22 -27l-37 -33l-35 -6 l-33 -4l-10 8h-19l-14 17l-10 8v20zM84 -104l10 2h12v-11l-2 -8l-14 2zM174 649v10l10 11l11 4l2 -6v-11l-2 -10l-9 -6zM184 1622l19 16l37 23l32 14h48l20 -6l4 -13l19 -2l18 -10v-33l-31 -26l-8 -17l-10 -16l-8 -4l-11 -16l-16 -15l-14 -10l-19 -2l-24 4l-15 10l-6 25 l-8 8l-6 10l-12 6l-5 11v12l-2 10zM307 1497l11 10l22 -6l4 -15l-24 -12zM358 700l17 -24l47 -21l49 -18l41 -23l23 -16l40 -8l27 6l8 6l15 23l-9 22l-20 37l-4 35l-10 16l-7 21l-12 20l2 53l-26 35l8 15l-10 24l-13 72l-16 33l-2 26l-23 29l-8 16l-20 43l-41 -41l4 -26 l-15 -23v-24l-4 -13l-8 -41l-4 -36v-11l-10 -14v-29l-4 -57v-27l-11 -24l7 -25zM492 1601v21l16 16l37 23l33 14h47l16 -6l10 -13l17 -2l16 -10l4 -18l-4 -15l-14 -14l-15 -12l-8 -17l-10 -16l-10 -4l-8 -16l-15 -15l-16 -10l-23 -2l-20 4l-12 10l-9 25l-6 8l-8 10l-10 6 l-4 11v12zM506 625l2 8h10l6 4l4 -6v-10l-12 -3zM967 555v6l2 8l4 2l10 -4l-2 -8l-8 -4h-6zM983 -92l6 6l10 -2l2 -8q-1 -2 -10 -4l-6 2z" />
<glyph unicode="&#xc5;" horiz-adv-x="1030" d="M51 154v10l6 4l11 -2l2 -6v-6l-9 -4zM70 -16v41l10 26l-2 23l6 14l12 6v19l19 10l8 18l12 25l17 8l16 37l6 41l10 6l-4 27l8 41v26l-18 39l-12 35l-4 39l-2 27l6 8l-4 14v8l30 37v12l17 19l22 35l27 39l6 28l2 21l-2 16l10 51l8 49l17 62l4 35l8 16l-2 53l-4 47l4 45 l16 37l15 29l18 14l6 27l13 18l6 17l-6 12l4 27l-15 32l4 33l-12 15l6 26h13l22 17l12 2l9 16l32 4l27 -12l23 -35l10 -6l16 -31l19 -37l8 -35l18 -40l23 -31l2 -17l16 -18l10 -21l19 -26l-2 -25l18 -37l2 -16l11 -20l10 -35l16 -29l6 -49l9 -35l12 -49v-18l10 -27l14 -47 l13 -43l4 -35l10 -25l27 -18l32 -10l39 2h37l37 -8l6 -11l8 -10l-8 -6l-6 -10l-16 -17l-21 -2l-8 -10l-31 -6l-35 -16l-14 -13v-24l6 -29l13 -29l16 -28l14 -41l10 -25l13 -39l14 -35l21 -43l14 -36l8 -56l10 -6l13 -29l14 -28v-17l10 -10l8 -27l-8 -10l-16 -6l-6 10l-11 15 l-14 28l-20 27l-29 51l-21 49l-8 35l-14 19l-25 71l-20 25l-16 37l-23 37l-18 16l-43 47l-9 27l-34 24l-43 8l-46 -6l-47 -8l-34 -14l-37 -33l-35 -18l-8 -17l-27 -20l-57 -33l-11 -12l-8 -45v-29l-14 -16v-35l-6 -37l6 -60l-6 -41l-12 -43l-19 -34l-22 -27l-37 -33l-35 -6 l-33 -4l-10 8h-19l-14 17l-10 8v20zM84 -104l10 2h12v-11l-2 -8l-14 2zM174 649v10l10 11l11 4l2 -6v-11l-2 -10l-9 -6zM311 1613v27l25 29l59 37l56 22h69l31 -10l10 -21l29 -4l29 -16l2 -27l-2 -24l-25 -19l-25 -22l-16 -21l-14 -28l-13 -7l-14 -28l-27 -19l-20 -16 l-31 -4l-39 6l-18 16l-12 37l-11 15l-12 14l-18 14l-9 15v16zM358 700l17 -24l47 -21l49 -18l41 -23l23 -16l40 -8l27 6l8 6l15 23l-9 22l-20 37l-4 35l-10 16l-7 21l-12 20l2 53l-26 35l8 15l-10 24l-13 72l-16 33l-2 26l-23 29l-8 16l-20 43l-41 -41l4 -26l-15 -23v-24 l-4 -13l-8 -41l-4 -36v-11l-10 -14v-29l-4 -57v-27l-11 -24l7 -25zM383 1593l2 -12v-11l12 -12l11 -8l4 -10l8 -19l8 -8l23 -6l16 2l14 10l11 10l12 15l4 6l12 14l6 15l13 12l12 6l2 14l-2 15l-14 12l-17 2l-6 10l-16 4h-41l-29 -12l-33 -18l-12 -15v-16zM506 625l2 8h10 l6 4l4 -6v-10l-12 -3zM967 555v6l2 8l4 2l10 -4l-2 -8l-8 -4h-6zM983 -92l6 6l10 -2l2 -8q-1 -2 -10 -4l-6 2z" />
<glyph unicode="&#xc6;" horiz-adv-x="1425" d="M-16 14l2 25l12 31l22 26l15 15l14 32l12 31l17 31l4 22l18 19l19 28l12 25l19 18l43 48l18 34l18 29l21 31l16 26l21 35l14 23l8 18l-14 10l-19 -4l-16 4l-6 11l4 14l21 10h26l21 4l20 19l6 28v33l2 37l13 39l18 37l14 33l19 34l12 31l12 33l7 31l16 41l22 28l17 37 l12 35l8 31l17 34l24 62l15 27l18 26l20 31l13 26l4 31l10 29l25 14l22 15l15 12l8 12l20 19l23 12l20 -2l25 -12l22 -17l17 -18l39 -11l51 -2h145l53 -4h148l31 4l45 -4h78l38 -4l-6 -10l-16 -4l-21 -2l-34 -4l-29 -4l-31 -4l-53 -9l-61 -8h-35l-21 -16l-37 -6l-39 2h-90 l-32 -2l-35 -7l-29 -8l-22 -14l-15 -18l6 -35l-8 -19l-2 -22l-10 -23l-4 -28l-4 -43v-111l-15 -35l-2 -39l-2 -28v-29l-10 -31l-6 -35l-4 -39l-6 -30l2 -21l10 -14l35 -6h37l30 6l35 6l33 4l33 10l30 4h74l31 11h65l50 -6l36 -2l39 -7l33 -4l-22 -24h-19l-35 -13l-41 -4h-39 l-30 -6l-21 -8l-33 -8l-43 -8l-43 -13l-40 -10l-43 -8l-39 -14l-33 -7l-29 -12l-35 -20l-28 -23l2 -24l-2 -43l-4 -37v-35l-5 -47l-2 -37l-4 -31v-72l-4 -24l-10 -47l18 -25l41 -18l80 -4l80 -9h37l29 5l30 -7l37 -6l43 -2h33l35 -8l29 2l20 -8l20 -12l7 -13l-7 -16l-22 -6 l-31 -4l-45 -2h-143l-47 -6h-140l-104 -31l-23 -10l-22 6l-27 18l-12 17l-18 20l-9 29l9 26l36 49l13 19l2 33v39l4 32l2 37v35l2 41l-4 90l-4 29l6 28l-2 21l-19 16h-26l-35 -8l-41 2h-49l-39 -2h-109l-22 -6l-19 -12l-28 -54l-19 -30l-24 -45l-15 -37l-22 -31l-14 -37 l-15 -18l-14 -33l-29 -51l-8 -23l-16 -16l-11 -29l-16 -22l-10 -33l-4 -72l-17 -22l-30 -13l-39 -8l-19 10l-18 17zM31 713l4 14l16 10l21 -2l2 -16l-11 -14l-20 -5zM410 649l10 -14h20l37 -6l39 6l37 10l31 -2l18 10l45 4l31 17l24 20l15 51l-12 41v50l-13 49l-8 61l-4 45 l-23 31l-30 4l-23 -16l-39 -68l-20 -65l-39 -48l-10 -26l-21 -29l-24 -33l-13 -36l-18 -21l-8 -20z" />
<glyph unicode="&#xc7;" horiz-adv-x="985" d="M72 782l10 72l20 61l27 58l4 55l14 59l21 27l12 19l29 16l43 27l39 14l55 6l68 29l59 18l29 23l55 -6l61 -3l35 -28l29 -6l43 -41l20 -39l15 -29l2 -24l-29 -5l-28 -10l-27 -4l-35 -14l-53 6l-45 20l-49 7l-47 -15l-62 -12l-51 -25l-33 -26l-22 -33l-25 -45l-27 -66 l-18 -123l-2 -55l10 -61l23 -68l16 -10l27 -39l47 -41l47 -45l35 -23l26 -26l66 -21l84 -6l67 25l56 33l28 45l47 59l31 8l31 10l22 37l25 15l27 -4v-33l-15 -45l-4 -29l-55 -80l-2 -41l-14 -22l-27 -33l-31 -29l-20 -33l-43 -26l-80 -17l-37 -6l-21 4l-8 -34l-2 -21l2 -14 l11 -13l26 -18l29 -18l24 -21l27 -29l16 -26l9 -17l10 -32l2 -33l-6 -29l-15 -26l-18 -21l-25 -26l-10 -5l-14 -16l-35 -20l-37 -21l-43 -10l-45 -6l-37 2l-28 10l-15 10l-6 13v12l19 2l26 8l31 4l43 4l31 13l30 14l27 20l10 33l4 29l-2 24l-12 33l-19 25l-10 10l-16 6h-43 l-25 -4l-16 8l-21 12l-12 17v16l4 19l13 18l6 29l2 18l-2 23v12l-13 16l2 31l-36 17l-66 38l-61 43l-52 52l-32 22l-21 35l-41 39l-49 102l-12 58v75zM733 -371l6 13l11 12l10 -12v-17l-12 -6zM766 -354l6 12q8 10 14 4l11 -16l-6 -15l-11 -2z" />
<glyph unicode="&#xc8;" horiz-adv-x="879" d="M78 1157l2 35l8 45l14 33l37 24l33 11l25 10l43 -12l47 -23l61 -2l84 2l111 4h65l51 -14l52 -4l39 -6l36 -11l27 -8h18l39 -22l33 -21l17 -22l-2 -19l-15 -6h-14l-29 12l-26 13h-70l-47 -15l-53 -10l-66 -33l-45 -8h-29l-28 -12l-76 -2h-64l-67 -6l-58 -11l-30 -10 l-19 -31l-8 -34l-6 -52l-4 -51l-10 -88l2 -18l-9 -58l9 -6l16 4l25 10l34 31l31 12h66l86 -2l55 -4l10 -8l17 -14h51l18 -12l19 2l39 -13l41 -6l2 -10l-7 -8l-24 -17h-23l-18 4l-68 2l-75 -12l-70 -8l-64 -10l-63 -4l-51 -19l-49 35l-7 -55l3 -39l4 -49l12 -54l18 -59 l19 -53l57 -80l31 -35l43 -27l43 -22l53 -27l64 -8l67 -12l51 -12l33 2l29 -9l78 -12l16 -14l-4 -15l-6 -18l-23 -4l-49 6l-51 -2l-80 -4l-55 4l-41 14l-19 -2l-28 6l-56 15l-37 8l-28 25l-31 20l-27 21l-28 47l-31 49l-6 45l6 31l-24 45l-7 49l-18 26l-4 58l-10 37l6 38 l-11 56l11 37l-15 26l7 11l-3 30l11 33l-6 33l16 35l-6 47v37l14 24l-4 35l8 20l-4 37l-18 21l-37 37zM217 1669v18l9 14l28 19h27l18 -8l33 -23l25 -26l32 -25l35 -37l60 -51l28 -27l25 -24l4 -27l-23 -10l-20 6l-18 10l-60 25l-18 4l-27 12l-33 13l-39 6l-22 16l-25 14 l-20 27l2 25v20l-14 10zM240 135v17l14 10l8 -15l-4 -14z" />
<glyph unicode="&#xc9;" horiz-adv-x="879" d="M78 1157l2 35l8 45l14 33l37 24l33 11l25 10l43 -12l47 -23l61 -2l84 2l111 4h65l51 -14l52 -4l39 -6l36 -11l27 -8h18l39 -22l33 -21l17 -22l-2 -19l-15 -6h-14l-29 12l-26 13h-70l-47 -15l-53 -10l-66 -33l-45 -8h-29l-28 -12l-76 -2h-64l-67 -6l-58 -11l-30 -10 l-19 -31l-8 -34l-6 -52l-4 -51l-10 -88l2 -18l-9 -58l9 -6l16 4l25 10l34 31l31 12h66l86 -2l55 -4l10 -8l17 -14h51l18 -12l19 2l39 -13l41 -6l2 -10l-7 -8l-24 -17h-23l-18 4l-68 2l-75 -12l-70 -8l-64 -10l-63 -4l-51 -19l-49 35l-7 -55l3 -39l4 -49l12 -54l18 -59 l19 -53l57 -80l31 -35l43 -27l43 -22l53 -27l64 -8l67 -12l51 -12l33 2l29 -9l78 -12l16 -14l-4 -15l-6 -18l-23 -4l-49 6l-51 -2l-80 -4l-55 4l-41 14l-19 -2l-28 6l-56 15l-37 8l-28 25l-31 20l-27 21l-28 47l-31 49l-6 45l6 31l-24 45l-7 49l-18 26l-4 58l-10 37l6 38 l-11 56l11 37l-15 26l7 11l-3 30l11 33l-6 33l16 35l-6 47v37l14 24l-4 35l8 20l-4 37l-18 21l-37 37zM240 135v17l14 10l8 -15l-4 -14zM376 1472v27l25 28l31 19l26 29l31 26l37 37l31 25l26 26l31 23l18 8h27l29 -19l8 -14v-18l-6 -19l-15 -10v-20l2 -25l-18 -27l-25 -14 l-24 -16l-39 -6l-33 -13l-26 -12l-19 -4l-24 -10l-31 -15l-21 -10l-22 -6z" />
<glyph unicode="&#xca;" horiz-adv-x="879" d="M78 1157l2 35l8 45l14 33l37 24l33 11l25 10l43 -12l47 -23l61 -2l84 2l111 4h65l51 -14l52 -4l39 -6l36 -11l27 -8h18l39 -22l33 -21l17 -22l-2 -19l-15 -6h-14l-29 12l-26 13h-70l-47 -15l-53 -10l-66 -33l-45 -8h-29l-28 -12l-76 -2h-64l-67 -6l-58 -11l-30 -10 l-19 -31l-8 -34l-6 -52l-4 -51l-10 -88l2 -18l-9 -58l9 -6l16 4l25 10l34 31l31 12h66l86 -2l55 -4l10 -8l17 -14h51l18 -12l19 2l39 -13l41 -6l2 -10l-7 -8l-24 -17h-23l-18 4l-68 2l-75 -12l-70 -8l-64 -10l-63 -4l-51 -19l-49 35l-7 -55l3 -39l4 -49l12 -54l18 -59 l19 -53l57 -80l31 -35l43 -27l43 -22l53 -27l64 -8l67 -12l51 -12l33 2l29 -9l78 -12l16 -14l-4 -15l-6 -18l-23 -4l-49 6l-51 -2l-80 -4l-55 4l-41 14l-19 -2l-28 6l-56 15l-37 8l-28 25l-31 20l-27 21l-28 47l-31 49l-6 45l6 31l-24 45l-7 49l-18 26l-4 58l-10 37l6 38 l-11 56l11 37l-15 26l7 11l-3 30l11 33l-6 33l16 35l-6 47v37l14 24l-4 35l8 20l-4 37l-18 21l-37 37zM204 1472v27l25 24l31 27l26 25l31 26l37 37l31 25l26 26l31 23l18 8h27l29 -19l16 -16l19 -14l26 -25l19 -20l18 -17l20 -16l23 -31l16 -26l25 -29l16 -25l17 -22 l-13 -8l-22 8l-39 31l-16 12l-21 12l-26 19l-21 18l-20 10l-25 21l-16 12l-11 -6l-16 -14l-25 -15l-30 -16l-31 -12l-33 -13l-26 -12l-19 -4l-24 -10l-31 -15l-21 -10l-22 -6zM240 135v17l14 10l8 -15l-4 -14z" />
<glyph unicode="&#xcb;" horiz-adv-x="879" d="M78 1157l2 35l8 45l14 33l37 24l33 11l25 10l43 -12l47 -23l61 -2l84 2l111 4h65l51 -14l52 -4l39 -6l36 -11l27 -8h18l39 -22l33 -21l17 -22l-2 -19l-15 -6h-14l-29 12l-26 13h-70l-47 -15l-53 -10l-66 -33l-45 -8h-29l-28 -12l-76 -2h-64l-67 -6l-58 -11l-30 -10 l-19 -31l-8 -34l-6 -52l-4 -51l-10 -88l2 -18l-9 -58l9 -6l16 4l25 10l34 31l31 12h66l86 -2l55 -4l10 -8l17 -14h51l18 -12l19 2l39 -13l41 -6l2 -10l-7 -8l-24 -17h-23l-18 4l-68 2l-75 -12l-70 -8l-64 -10l-63 -4l-51 -19l-49 35l-7 -55l3 -39l4 -49l12 -54l18 -59 l19 -53l57 -80l31 -35l43 -27l43 -22l53 -27l64 -8l67 -12l51 -12l33 2l29 -9l78 -12l16 -14l-4 -15l-6 -18l-23 -4l-49 6l-51 -2l-80 -4l-55 4l-41 14l-19 -2l-28 6l-56 15l-37 8l-28 25l-31 20l-27 21l-28 47l-31 49l-6 45l6 31l-24 45l-7 49l-18 26l-4 58l-10 37l6 38 l-11 56l11 37l-15 26l7 11l-3 30l11 33l-6 33l16 35l-6 47v37l14 24l-4 35l8 20l-4 37l-18 21l-37 37zM240 135v17l14 10l8 -15l-4 -14zM245 1622l19 16l37 23l32 14h48l20 -6l4 -13l19 -2l18 -10v-33l-31 -26l-8 -17l-10 -16l-8 -4l-11 -16l-16 -15l-14 -10l-19 -2l-24 4 l-15 10l-6 25l-8 8l-6 10l-12 6l-5 11v12l-2 10zM368 1497l11 10l22 -6l4 -15l-24 -12zM553 1601v21l16 16l37 23l33 14h47l16 -6l10 -13l17 -2l16 -10l4 -18l-4 -15l-14 -14l-15 -12l-8 -17l-10 -16l-10 -4l-8 -16l-15 -15l-16 -10l-23 -2l-20 4l-12 10l-9 25l-6 8l-8 10 l-10 6l-4 11v12z" />
<glyph unicode="&#xcc;" horiz-adv-x="709" d="M-47 1157l6 29l14 18l29 10l35 -8l31 -12h24l41 -6h55l56 -2h43v24l8 21l-2 14l2 17l-12 30v35l12 19l-8 34l22 21l33 8l29 4l28 -4l7 -33l4 -28l6 -23l-2 -29l2 -28l-17 -27l-2 -20l9 -15l20 -2h39l37 -8h53l31 -4h30l9 -6v-10l-23 -7l-47 5l-35 -5h-41l-43 -6l-30 -6 l-25 -16v-33l-2 -43l-8 -43l4 -35l-8 -26l12 -33l-10 -47v-35l-2 -58l-11 -28l6 -21v-45l-6 -39l6 -43l-4 -55v-137l-6 -43l4 -47l6 -49l35 -9l31 -2l35 -8l39 -18l30 -2l52 -11l37 -18l22 4l27 -4l12 -8v-17l-18 -14l-19 -10h-61l-56 -8l-49 -15l-35 -12l-30 -12l-25 -19 l-10 -24l2 -23l4 -33l-4 -12l-10 -8h-9l-10 8l-10 19l-20 2l-27 -9l-14 -14l-19 -16l-29 -13l-36 -10h-29l-27 10l-28 19l-9 24l-22 17l-16 20l-3 43l13 37l26 29l27 22l39 35l47 19h43l23 4l20 18l12 2l9 17l-9 45l-2 28l-8 37l2 49l-2 31l6 33l-6 39l-2 37v28l-8 64v182 l-12 18l20 27l-10 76v104l-8 33l10 37l-27 -2l-30 -6h-25l-82 -15h-23l-20 -10l-41 -6h-33l-32 12l-17 13zM163 1669v18l9 14l28 19h27l18 -8l33 -23l25 -26l32 -25l35 -37l60 -51l28 -27l25 -24l4 -27l-23 -10l-20 6l-18 10l-60 25l-18 4l-27 12l-33 13l-39 6l-22 16 l-25 14l-20 27l2 25v20l-14 10zM696 279l13 14l16 -10v-15l-14 -10z" />
<glyph unicode="&#xcd;" horiz-adv-x="709" d="M-47 1157l6 29l14 18l29 10l35 -8l31 -12h24l41 -6h55l56 -2h43v24l8 21l-2 14l2 17l-12 30v35l12 19l-8 34l22 21l33 8l29 4l28 -4l7 -33l4 -28l6 -23l-2 -29l2 -28l-17 -27l-2 -20l9 -15l20 -2h39l37 -8h53l31 -4h30l9 -6v-10l-23 -7l-47 5l-35 -5h-41l-43 -6l-30 -6 l-25 -16v-33l-2 -43l-8 -43l4 -35l-8 -26l12 -33l-10 -47v-35l-2 -58l-11 -28l6 -21v-45l-6 -39l6 -43l-4 -55v-137l-6 -43l4 -47l6 -49l35 -9l31 -2l35 -8l39 -18l30 -2l52 -11l37 -18l22 4l27 -4l12 -8v-17l-18 -14l-19 -10h-61l-56 -8l-49 -15l-35 -12l-30 -12l-25 -19 l-10 -24l2 -23l4 -33l-4 -12l-10 -8h-9l-10 8l-10 19l-20 2l-27 -9l-14 -14l-19 -16l-29 -13l-36 -10h-29l-27 10l-28 19l-9 24l-22 17l-16 20l-3 43l13 37l26 29l27 22l39 35l47 19h43l23 4l20 18l12 2l9 17l-9 45l-2 28l-8 37l2 49l-2 31l6 33l-6 39l-2 37v28l-8 64v182 l-12 18l20 27l-10 76v104l-8 33l10 37l-27 -2l-30 -6h-25l-82 -15h-23l-20 -10l-41 -6h-33l-32 12l-17 13zM200 1472v27l25 28l31 19l26 29l31 26l37 37l31 25l26 26l31 23l18 8h27l29 -19l8 -14v-18l-6 -19l-15 -10v-20l2 -25l-18 -27l-25 -14l-24 -16l-39 -6l-33 -13 l-26 -12l-19 -4l-24 -10l-31 -15l-21 -10l-22 -6zM696 279l13 14l16 -10v-15l-14 -10z" />
<glyph unicode="&#xce;" horiz-adv-x="709" d="M-47 1157l6 29l14 18l29 10l35 -8l31 -12h24l41 -6h55l56 -2h43v24l8 21l-2 14l2 17l-12 30v35l12 19l-8 34l22 21l33 8l29 4l28 -4l7 -33l4 -28l6 -23l-2 -29l2 -28l-17 -27l-2 -20l9 -15l20 -2h39l37 -8h53l31 -4h30l9 -6v-10l-23 -7l-47 5l-35 -5h-41l-43 -6l-30 -6 l-25 -16v-33l-2 -43l-8 -43l4 -35l-8 -26l12 -33l-10 -47v-35l-2 -58l-11 -28l6 -21v-45l-6 -39l6 -43l-4 -55v-137l-6 -43l4 -47l6 -49l35 -9l31 -2l35 -8l39 -18l30 -2l52 -11l37 -18l22 4l27 -4l12 -8v-17l-18 -14l-19 -10h-61l-56 -8l-49 -15l-35 -12l-30 -12l-25 -19 l-10 -24l2 -23l4 -33l-4 -12l-10 -8h-9l-10 8l-10 19l-20 2l-27 -9l-14 -14l-19 -16l-29 -13l-36 -10h-29l-27 10l-28 19l-9 24l-22 17l-16 20l-3 43l13 37l26 29l27 22l39 35l47 19h43l23 4l20 18l12 2l9 17l-9 45l-2 28l-8 37l2 49l-2 31l6 33l-6 39l-2 37v28l-8 64v182 l-12 18l20 27l-10 76v104l-8 33l10 37l-27 -2l-30 -6h-25l-82 -15h-23l-20 -10l-41 -6h-33l-32 12l-17 13zM77 1472v27l25 24l31 27l26 25l31 26l37 37l31 25l26 26l31 23l18 8h27l29 -19l16 -16l19 -14l26 -25l19 -20l18 -17l20 -16l23 -31l16 -26l25 -29l16 -25l17 -22 l-13 -8l-22 8l-39 31l-16 12l-21 12l-26 19l-21 18l-20 10l-25 21l-16 12l-11 -6l-16 -14l-25 -15l-30 -16l-31 -12l-33 -13l-26 -12l-19 -4l-24 -10l-31 -15l-21 -10l-22 -6zM696 279l13 14l16 -10v-15l-14 -10z" />
<glyph unicode="&#xcf;" horiz-adv-x="709" d="M-47 1157l6 29l14 18l29 10l35 -8l31 -12h24l41 -6h55l56 -2h43v24l8 21l-2 14l2 17l-12 30v35l12 19l-8 34l22 21l33 8l29 4l28 -4l7 -33l4 -28l6 -23l-2 -29l2 -28l-17 -27l-2 -20l9 -15l20 -2h39l37 -8h53l31 -4h30l9 -6v-10l-23 -7l-47 5l-35 -5h-41l-43 -6l-30 -6 l-25 -16v-33l-2 -43l-8 -43l4 -35l-8 -26l12 -33l-10 -47v-35l-2 -58l-11 -28l6 -21v-45l-6 -39l6 -43l-4 -55v-137l-6 -43l4 -47l6 -49l35 -9l31 -2l35 -8l39 -18l30 -2l52 -11l37 -18l22 4l27 -4l12 -8v-17l-18 -14l-19 -10h-61l-56 -8l-49 -15l-35 -12l-30 -12l-25 -19 l-10 -24l2 -23l4 -33l-4 -12l-10 -8h-9l-10 8l-10 19l-20 2l-27 -9l-14 -14l-19 -16l-29 -13l-36 -10h-29l-27 10l-28 19l-9 24l-22 17l-16 20l-3 43l13 37l26 29l27 22l39 35l47 19h43l23 4l20 18l12 2l9 17l-9 45l-2 28l-8 37l2 49l-2 31l6 33l-6 39l-2 37v28l-8 64v182 l-12 18l20 27l-10 76v104l-8 33l10 37l-27 -2l-30 -6h-25l-82 -15h-23l-20 -10l-41 -6h-33l-32 12l-17 13zM102 1622l19 16l37 23l32 14h48l20 -6l4 -13l19 -2l18 -10v-33l-31 -26l-8 -17l-10 -16l-8 -4l-11 -16l-16 -15l-14 -10l-19 -2l-24 4l-15 10l-6 25l-8 8l-6 10 l-12 6l-5 11v12l-2 10zM225 1497l11 10l22 -6l4 -15l-24 -12zM410 1601v21l16 16l37 23l33 14h47l16 -6l10 -13l17 -2l16 -10l4 -18l-4 -15l-14 -14l-15 -12l-8 -17l-10 -16l-10 -4l-8 -16l-15 -15l-16 -10l-23 -2l-20 4l-12 10l-9 25l-6 8l-8 10l-10 6l-4 11v12zM696 279 l13 14l16 -10v-15l-14 -10z" />
<glyph unicode="&#xd0;" horiz-adv-x="852" d="M31 645v29l8 24l20 17l19 8h84l22 -2l17 8l-15 64l-6 61l15 49v39l14 72v39l-8 30l2 27l-17 20l-8 27l-4 23l6 39l19 18l45 16l43 21l47 14l45 2h31l77 -16l35 -4l27 -15l6 -14l31 -6l30 -27l27 -22l21 -43l18 -33l12 -39l15 -29l14 -41l18 -49l7 -39l4 -47l10 -39v-39 l-10 -43l-4 -57l-13 -55l6 -41l4 -60l-12 -40v-56l-24 -47l-19 -47l-74 -121l-34 -28l-45 -31l-45 -17l-95 -12l-53 6l-43 -6l-27 -2l-20 8l-10 8l-11 15l11 28l24 29l31 10l18 -6l37 29l35 14l37 4l31 25l35 14l32 19l35 41l29 47l28 39l15 39l-6 45l8 41l-8 34l-7 35 l13 41l-4 31l10 41l-4 49l-10 47l-15 64l-18 59l-17 27l-4 34l-22 39l-31 29l-35 18l-75 -4l-66 -14l-23 -29l-8 -45l-14 -41l-12 -53l-11 -47l-8 -55l-8 -33l-6 -27l6 -39l8 -36l53 -21l27 -8l21 -4l18 -6l20 -7l13 -8l12 -10l4 -12l-8 -4l-23 -9h-28l-15 9h-39l-30 4 l-23 -4h-20v-29l-13 -31l-2 -45v-33l11 -32l-9 -25v-31l-6 -37l-14 -51v-26l-2 -66l-2 -31l2 -30l8 -39l14 -19l-2 -24l-12 -27l-18 -4l-19 4l-14 8l-8 11l-10 22l-9 53l-2 41l2 43l-2 43v31l8 55l5 56l10 49l16 39l8 41v55l13 31l-23 -13l-16 -6l-41 -12h-21l-37 6l-14 8 l-10 15zM49 381l21 16l24 -10l-20 -14zM506 557l16 23l37 -5l10 -10l-10 -12z" />
<glyph unicode="&#xd1;" horiz-adv-x="975" d="M45 295v33l27 41l18 18l16 21l19 43l2 55l20 47l7 43l18 33l-8 96l-10 31l-7 55l11 55l14 37l12 47l31 29l14 121l29 37l8 41l29 36l10 11l14 10l5 25l12 8h18l13 -15l6 -30l12 -49l10 -58l15 -135l8 -61l14 -37l6 -39l4 -37l15 -55l6 -62l26 -41l15 -61l4 -58l14 -49 l15 -57l10 -37l8 -20h16l13 20l24 21l8 43l15 10l-4 20l14 49l-6 33l6 41l18 19l19 30l16 37l21 37l20 23v38l19 37l10 25l14 45l8 37l-4 59l-14 45l-16 47l-17 35v41l-4 53l21 23v29l16 20l10 64l15 38l16 -8l35 13l20 24l37 15l25 8l22 -17l13 -30l12 2l6 -37l-2 -29v-33 l-12 -22l4 -17l-8 -28l-23 -29l-18 -27l-9 -59v-37l-10 -51l2 -27l-10 -45l-2 -41l-19 -37l-8 -47l-4 -47l-61 -129l-21 -16l-6 -31l-18 -29l-9 -47l-10 -28v-39l-24 -64l-17 -30l-6 -48l-4 -38l-10 -37l2 -31l-6 -33l4 -18l-17 -21l-18 -41h-16l-21 4l-8 29l-39 21l-14 36 l-9 31l-22 37v25l-21 24l19 37l-21 37l-6 55l-30 66l-11 57l-10 45l-14 72l-8 24l-11 35l-16 43l-29 86l-33 49l-22 -41l-8 -16v-115l-8 -55l6 -51l-11 -60l-10 -63l-16 -31l-8 -51l-9 -61l-4 -117l-14 -29l8 -26l-22 -29l-37 -16l-47 -2l-37 22l-10 37l-15 45zM119 45l6 21 l22 -5l7 -16l-19 -8zM348 1474v80l7 31l18 39l18 26l27 29l37 16l41 6l31 5l34 2l27 -13l23 -24l45 -45l16 -31l20 -33l13 -16l26 -23l31 -14l33 12l24 19l17 32l14 33l2 37v59l12 21l17 6l4 -12l-6 -19l-2 -26l-4 -21v-28l-6 -27l-3 -33l-10 -28l-8 -33l-25 -27l-45 -16 l-30 -8l-45 -5l-43 11l-29 24l-14 21l-47 88l-21 8l-29 -2l-20 -10l-16 -13l-11 -18l-4 -22l-8 -21l4 -27l-12 -24l-25 -23l-41 -2l-28 10zM588 1171v27l22 -2l2 -10zM617 1720l2 16l16 2l14 -10l3 -12l-13 -6l-18 -4z" />
<glyph unicode="&#xd2;" horiz-adv-x="950" d="M72 872l10 21h18l6 -21l-16 -12l-16 -8zM74 680l14 49v25l14 16v39l13 25l22 26l15 53l28 48l31 34l22 39l27 4l31 25l22 10l29 14l29 23l32 12l31 31l29 35l10 10l25 12l39 -8l36 -24l31 -35l12 -53l-6 -37l-39 -39l-51 -23l-69 -4l-45 -61l-29 -62l-33 -45l-29 -78 l-8 -77l-16 -70l28 -72l9 -69l37 -43l36 -82l27 -6l14 -15l33 -8l45 -6l53 14l52 17l32 26l2 72l23 14l-2 58l14 38l6 41l13 35l-8 35l-5 53l-20 37l-27 19l-20 41l-35 47l6 39l12 34l23 15h33l43 -27l41 -22l20 -39l27 -25l8 -41l16 -41l13 -33l22 -32l6 -54l11 -51 l-15 -94l-37 -96l-26 -56l-25 -34l-33 -41l-38 -39l-46 -25l-67 -20l-72 -11l-69 9l-62 12l-49 27l-92 55l-53 51l-27 29l-35 43l-22 55l-15 55l-8 58l8 43l-10 55zM295 1669v18l9 14l28 19h27l18 -8l33 -23l25 -26l32 -25l35 -37l60 -51l28 -27l25 -24l4 -27l-23 -10l-20 6 l-18 10l-60 25l-18 4l-27 12l-33 13l-39 6l-22 16l-25 14l-20 27l2 25v20l-14 10zM412 1178l6 20l18 -4v-16l-18 -15z" />
<glyph unicode="&#xd3;" horiz-adv-x="950" d="M72 872l10 21h18l6 -21l-16 -12l-16 -8zM74 680l14 49v25l14 16v39l13 25l22 26l15 53l28 48l31 34l22 39l27 4l31 25l22 10l29 14l29 23l32 12l31 31l29 35l10 10l25 12l39 -8l36 -24l31 -35l12 -53l-6 -37l-39 -39l-51 -23l-69 -4l-45 -61l-29 -62l-33 -45l-29 -78 l-8 -77l-16 -70l28 -72l9 -69l37 -43l36 -82l27 -6l14 -15l33 -8l45 -6l53 14l52 17l32 26l2 72l23 14l-2 58l14 38l6 41l13 35l-8 35l-5 53l-20 37l-27 19l-20 41l-35 47l6 39l12 34l23 15h33l43 -27l41 -22l20 -39l27 -25l8 -41l16 -41l13 -33l22 -32l6 -54l11 -51 l-15 -94l-37 -96l-26 -56l-25 -34l-33 -41l-38 -39l-46 -25l-67 -20l-72 -11l-69 9l-62 12l-49 27l-92 55l-53 51l-27 29l-35 43l-22 55l-15 55l-8 58l8 43l-10 55zM344 1472v27l25 28l31 19l26 29l31 26l37 37l31 25l26 26l31 23l18 8h27l29 -19l8 -14v-18l-6 -19l-15 -10 v-20l2 -25l-18 -27l-25 -14l-24 -16l-39 -6l-33 -13l-26 -12l-19 -4l-24 -10l-31 -15l-21 -10l-22 -6zM412 1178l6 20l18 -4v-16l-18 -15z" />
<glyph unicode="&#xd4;" horiz-adv-x="950" d="M72 872l10 21h18l6 -21l-16 -12l-16 -8zM74 680l14 49v25l14 16v39l13 25l22 26l15 53l28 48l31 34l22 39l27 4l31 25l22 10l29 14l29 23l32 12l31 31l29 35l10 10l25 12l39 -8l36 -24l31 -35l12 -53l-6 -37l-39 -39l-51 -23l-69 -4l-45 -61l-29 -62l-33 -45l-29 -78 l-8 -77l-16 -70l28 -72l9 -69l37 -43l36 -82l27 -6l14 -15l33 -8l45 -6l53 14l52 17l32 26l2 72l23 14l-2 58l14 38l6 41l13 35l-8 35l-5 53l-20 37l-27 19l-20 41l-35 47l6 39l12 34l23 15h33l43 -27l41 -22l20 -39l27 -25l8 -41l16 -41l13 -33l22 -32l6 -54l11 -51 l-15 -94l-37 -96l-26 -56l-25 -34l-33 -41l-38 -39l-46 -25l-67 -20l-72 -11l-69 9l-62 12l-49 27l-92 55l-53 51l-27 29l-35 43l-22 55l-15 55l-8 58l8 43l-10 55zM213 1472v27l25 24l31 27l26 25l31 26l37 37l31 25l26 26l31 23l18 8h27l29 -19l16 -16l19 -14l26 -25 l19 -20l18 -17l20 -16l23 -31l16 -26l25 -29l16 -25l17 -22l-13 -8l-22 8l-39 31l-16 12l-21 12l-26 19l-21 18l-20 10l-25 21l-16 12l-11 -6l-16 -14l-25 -15l-30 -16l-31 -12l-33 -13l-26 -12l-19 -4l-24 -10l-31 -15l-21 -10l-22 -6zM412 1178l6 20l18 -4v-16l-18 -15z " />
<glyph unicode="&#xd5;" horiz-adv-x="950" d="M72 872l10 21h18l6 -21l-16 -12l-16 -8zM74 680l14 49v25l14 16v39l13 25l22 26l15 53l28 48l31 34l22 39l27 4l31 25l22 10l29 14l29 23l32 12l31 31l29 35l10 10l25 12l39 -8l36 -24l31 -35l12 -53l-6 -37l-39 -39l-51 -23l-69 -4l-45 -61l-29 -62l-33 -45l-29 -78 l-8 -77l-16 -70l28 -72l9 -69l37 -43l36 -82l27 -6l14 -15l33 -8l45 -6l53 14l52 17l32 26l2 72l23 14l-2 58l14 38l6 41l13 35l-8 35l-5 53l-20 37l-27 19l-20 41l-35 47l6 39l12 34l23 15h33l43 -27l41 -22l20 -39l27 -25l8 -41l16 -41l13 -33l22 -32l6 -54l11 -51 l-15 -94l-37 -96l-26 -56l-25 -34l-33 -41l-38 -39l-46 -25l-67 -20l-72 -11l-69 9l-62 12l-49 27l-92 55l-53 51l-27 29l-35 43l-22 55l-15 55l-8 58l8 43l-10 55zM217 1474v80l7 31l18 39l18 26l27 29l37 16l41 6l31 5l34 2l27 -13l23 -24l45 -45l16 -31l20 -33l13 -16 l26 -23l31 -14l33 12l24 19l17 32l14 33l2 37v59l12 21l17 6l4 -12l-6 -19l-2 -26l-4 -21v-28l-6 -27l-3 -33l-10 -28l-8 -33l-25 -27l-45 -16l-30 -8l-45 -5l-43 11l-29 24l-14 21l-47 88l-21 8l-29 -2l-20 -10l-16 -13l-11 -18l-4 -22l-8 -21l4 -27l-12 -24l-25 -23 l-41 -2l-28 10zM412 1178l6 20l18 -4v-16l-18 -15zM486 1720l2 16l16 2l14 -10l3 -12l-13 -6l-18 -4z" />
<glyph unicode="&#xd6;" horiz-adv-x="950" d="M72 872l10 21h18l6 -21l-16 -12l-16 -8zM74 680l14 49v25l14 16v39l13 25l22 26l15 53l28 48l31 34l22 39l27 4l31 25l22 10l29 14l29 23l32 12l31 31l29 35l10 10l25 12l39 -8l36 -24l31 -35l12 -53l-6 -37l-39 -39l-51 -23l-69 -4l-45 -61l-29 -62l-33 -45l-29 -78 l-8 -77l-16 -70l28 -72l9 -69l37 -43l36 -82l27 -6l14 -15l33 -8l45 -6l53 14l52 17l32 26l2 72l23 14l-2 58l14 38l6 41l13 35l-8 35l-5 53l-20 37l-27 19l-20 41l-35 47l6 39l12 34l23 15h33l43 -27l41 -22l20 -39l27 -25l8 -41l16 -41l13 -33l22 -32l6 -54l11 -51 l-15 -94l-37 -96l-26 -56l-25 -34l-33 -41l-38 -39l-46 -25l-67 -20l-72 -11l-69 9l-62 12l-49 27l-92 55l-53 51l-27 29l-35 43l-22 55l-15 55l-8 58l8 43l-10 55zM249 1622l19 16l37 23l32 14h48l20 -6l4 -13l19 -2l18 -10v-33l-31 -26l-8 -17l-10 -16l-8 -4l-11 -16 l-16 -15l-14 -10l-19 -2l-24 4l-15 10l-6 25l-8 8l-6 10l-12 6l-5 11v12l-2 10zM372 1497l11 10l22 -6l4 -15l-24 -12zM412 1178l6 20l18 -4v-16l-18 -15zM557 1601v21l16 16l37 23l33 14h47l16 -6l10 -13l17 -2l16 -10l4 -18l-4 -15l-14 -14l-15 -12l-8 -17l-10 -16l-10 -4 l-8 -16l-15 -15l-16 -10l-23 -2l-20 4l-12 10l-9 25l-6 8l-8 10l-10 6l-4 11v12z" />
<glyph unicode="&#xd7;" horiz-adv-x="649" d="M31 997l4 13l12 10h21l16 -10l14 -19l8 -18l23 -21l12 -18l21 -19l22 -24l15 -19l43 -47l12 -26l6 -25l2 -24v-9l19 -12l22 -8l16 -25l21 2l20 15l9 22v15l12 8l6 16l21 14l20 19l14 20l11 23l14 18l16 23l17 14l8 21l6 8l14 14l13 19l16 16l16 12l23 2l14 -14l2 -12 l-2 -19l-10 -18l-14 -14l-17 -15l-12 -18l-16 -17l-17 -20l-12 -29l-14 -22l-19 -21l-10 -18l-16 -25l-23 -18l-16 -23l-17 -14l-16 -35l22 -41l31 -41l31 -31l10 -16l21 -20l16 -29l14 -23l4 -16l15 -14l12 -19l31 -35l18 -16l8 -12l-2 -21l-14 -16h-16l-25 6l-14 10 l-15 21l-4 18l-14 23l-12 22l-9 19l-10 22l-33 51l-24 9l-19 32l-24 35l-35 25l-10 -29l-19 -27l-6 -18l-12 -25l-14 -18l-17 -22l-14 -27l-10 -23l-13 -22v-25l-12 -18l-6 -19l-12 -10l-17 -18l-22 -15l-29 -8h-25l-22 4l-21 15l-20 36l2 15l2 16l12 17l17 12l16 16l19 23 l16 12l18 21l17 14l20 24l19 25l22 49l15 25l24 16l12 23l19 18l-12 12l-19 27l-14 23l-29 28l-6 29l-12 10l-13 19l-12 20l-20 27l-17 18l-18 25l-15 18l-18 19l-18 14l-13 14l-14 15l-10 18zM506 698l6 13l23 6l2 -21l-19 -14z" />
<glyph unicode="&#xd8;" horiz-adv-x="1135" d="M31 43l6 29l20 24l25 25l24 22l15 35l14 27l15 33l8 28l14 17l18 20l19 27l2 28l4 19l-16 10l-19 37l-16 47l-12 39l-13 25v32l-4 29l4 37l2 35v53l9 31l2 36l-2 29l-7 27l9 28l8 33l12 35l14 33l13 24l16 27l2 25l8 24l21 23l18 16l10 21l21 18l24 20l21 25l-2 23l12 22 l21 12l28 11h29l33 8l65 18l29 21l29 8l24 2l37 -2l29 -2l26 -6l25 -23l18 -28l5 -27l-5 -25l-26 -18l-37 -4l-37 2h-76l-20 -10l-25 -17l-20 -18l-29 -23l-31 -26l-8 -21l-10 -6l-21 -29l-16 -24l-16 -27l-19 -24l-4 -21l-8 -22l-12 -29l-6 -23l-11 -30l-8 -29l-10 -29 l-6 -24l-6 -29l-5 -27v-24l-4 -27l-8 -26v-29l2 -31v-22l8 -15l13 -10h24l27 19l49 57l19 31l18 26l4 23l29 53l16 27l37 45l10 28l29 23l6 20l12 19l27 26l2 29v25l16 14l21 16l12 29l19 18l28 19l25 27l26 20l25 20l20 29l25 29l27 24l24 25l25 18l18 27l25 18l20 21 l19 27l30 28l27 21l16 20l19 8l18 25l29 23l29 26l24 17l25 14l22 10l17 -4l2 -16l-25 -37l-18 -19l-23 -14l-30 -25l-23 -22l-23 -27l-22 -28l-21 -35l-18 -39l-16 -31l-17 -37l-14 -35l-10 -43l-27 -43l-8 -22l-16 -25l-15 -28l-6 -29l-2 -29l16 -30l15 -39l20 -39l8 -37 l17 -35l12 -61l10 -39l15 -43l4 -37l4 -45l2 -35l-2 -43l4 -39l-4 -35v-47l-8 -35l-21 -43l-24 -28l-11 -23l-16 -10l-31 -25l-39 -22l-155 -39l-52 -8l-100 -4l-51 10l-37 12l-37 17l-37 18l-28 20l-29 25l-16 12l-19 11l-14 -13l-17 -18l-22 -33l-27 -31l-24 -39l-23 -30 l-20 -27l-6 -20l-29 -27l-41 -2l-33 4l-14 18zM57 1188l21 8l24 -6l15 -12l-4 -19l-9 -16l-18 4l-27 14zM82 266v23l14 10l17 -4l8 -14l-8 -15l-19 -12zM379 336l6 -25l2 -20l16 -17l21 -4l18 -14l29 -18l27 -11l34 -8l33 -10l43 -12h82l31 10l35 6l28 12l35 17l23 14l18 16 l14 19l11 20l12 6l14 21l13 29l10 30l2 29l4 29l6 28l4 37l-4 37v66l-10 28l-4 25l-21 96l-6 19l-12 20l-6 25l-13 30l-8 29l-10 18l-29 9h-28l-25 -19l-18 -18l-21 -19l-16 -22l-19 -27l-22 -29l-14 -24l-15 -8l-18 -25l-4 -16l-13 -17l-12 -18l-22 -29l-25 -22l-27 -27 l-8 -29l-22 -26l-23 -29l-18 -31l-25 -26l-14 -25l-12 -30l-17 -31zM451 1026l6 12l18 6l17 -24l-11 -12l-18 6z" />
<glyph unicode="&#xd9;" horiz-adv-x="891" d="M104 473l5 55v45l4 50l10 28l-8 19v28l14 29l4 41l-2 31l8 45l11 43v39l10 41v43l-21 34l-8 39l-2 21l10 37l17 24l14 6l35 17l41 6l39 -8l32 -21l19 -14l10 -14l21 -17l10 -26l-2 -37l-21 -37l-22 -33l-23 -43l-8 -31l-12 -57l-23 -49l-14 -55l-14 -52l-15 -47l-14 -51 l-2 -57l-12 -45l10 -60l2 -73l8 -50l21 -32l30 -25l17 -14l26 -8l51 -11l35 -4l37 2l66 13l51 32l29 31l22 35l23 29l2 28l14 19l18 43l13 37l8 36l20 35l-2 21l2 20l17 21l-6 34l14 56l6 47l14 41l-6 47l8 41l3 49l-3 39v39l9 31l-11 14l5 22l-5 25l2 23l3 28l4 29v16l18 6 l6 -8l-6 -28l4 -43v-23l6 -55l4 -68l-4 -61l2 -35l-6 -55v-37l-12 -43v-39l-12 -29l2 -31l-17 -36l6 -19l-8 -14l-6 -31l-2 -51l-18 -35l-11 -37l-8 -39l-14 -16l-14 -41l-21 -43l-31 -43l-35 -37l-38 -31l-45 -16l-48 -10l-43 -6h-53l-55 6l-37 10l-33 20l-33 19l-24 31 l-19 34l-14 39l-14 35l-4 43l-6 41zM274 1669v18l9 14l28 19h27l18 -8l33 -23l25 -26l32 -25l35 -37l60 -51l28 -27l25 -24l4 -27l-23 -10l-20 6l-18 10l-60 25l-18 4l-27 12l-33 13l-39 6l-22 16l-25 14l-20 27l2 25v20l-14 10zM846 971l10 20l16 -4l5 -20l-5 -15h-18z" />
<glyph unicode="&#xda;" horiz-adv-x="891" d="M104 473l5 55v45l4 50l10 28l-8 19v28l14 29l4 41l-2 31l8 45l11 43v39l10 41v43l-21 34l-8 39l-2 21l10 37l17 24l14 6l35 17l41 6l39 -8l32 -21l19 -14l10 -14l21 -17l10 -26l-2 -37l-21 -37l-22 -33l-23 -43l-8 -31l-12 -57l-23 -49l-14 -55l-14 -52l-15 -47l-14 -51 l-2 -57l-12 -45l10 -60l2 -73l8 -50l21 -32l30 -25l17 -14l26 -8l51 -11l35 -4l37 2l66 13l51 32l29 31l22 35l23 29l2 28l14 19l18 43l13 37l8 36l20 35l-2 21l2 20l17 21l-6 34l14 56l6 47l14 41l-6 47l8 41l3 49l-3 39v39l9 31l-11 14l5 22l-5 25l2 23l3 28l4 29v16l18 6 l6 -8l-6 -28l4 -43v-23l6 -55l4 -68l-4 -61l2 -35l-6 -55v-37l-12 -43v-39l-12 -29l2 -31l-17 -36l6 -19l-8 -14l-6 -31l-2 -51l-18 -35l-11 -37l-8 -39l-14 -16l-14 -41l-21 -43l-31 -43l-35 -37l-38 -31l-45 -16l-48 -10l-43 -6h-53l-55 6l-37 10l-33 20l-33 19l-24 31 l-19 34l-14 39l-14 35l-4 43l-6 41zM389 1472v27l25 28l31 19l26 29l31 26l37 37l31 25l26 26l31 23l18 8h27l29 -19l8 -14v-18l-6 -19l-15 -10v-20l2 -25l-18 -27l-25 -14l-24 -16l-39 -6l-33 -13l-26 -12l-19 -4l-24 -10l-31 -15l-21 -10l-22 -6zM846 971l10 20l16 -4 l5 -20l-5 -15h-18z" />
<glyph unicode="&#xdb;" horiz-adv-x="891" d="M104 473l5 55v45l4 50l10 28l-8 19v28l14 29l4 41l-2 31l8 45l11 43v39l10 41v43l-21 34l-8 39l-2 21l10 37l17 24l14 6l35 17l41 6l39 -8l32 -21l19 -14l10 -14l21 -17l10 -26l-2 -37l-21 -37l-22 -33l-23 -43l-8 -31l-12 -57l-23 -49l-14 -55l-14 -52l-15 -47l-14 -51 l-2 -57l-12 -45l10 -60l2 -73l8 -50l21 -32l30 -25l17 -14l26 -8l51 -11l35 -4l37 2l66 13l51 32l29 31l22 35l23 29l2 28l14 19l18 43l13 37l8 36l20 35l-2 21l2 20l17 21l-6 34l14 56l6 47l14 41l-6 47l8 41l3 49l-3 39v39l9 31l-11 14l5 22l-5 25l2 23l3 28l4 29v16l18 6 l6 -8l-6 -28l4 -43v-23l6 -55l4 -68l-4 -61l2 -35l-6 -55v-37l-12 -43v-39l-12 -29l2 -31l-17 -36l6 -19l-8 -14l-6 -31l-2 -51l-18 -35l-11 -37l-8 -39l-14 -16l-14 -41l-21 -43l-31 -43l-35 -37l-38 -31l-45 -16l-48 -10l-43 -6h-53l-55 6l-37 10l-33 20l-33 19l-24 31 l-19 34l-14 39l-14 35l-4 43l-6 41zM217 1472v27l25 24l31 27l26 25l31 26l37 37l31 25l26 26l31 23l18 8h27l29 -19l16 -16l19 -14l26 -25l19 -20l18 -17l20 -16l23 -31l16 -26l25 -29l16 -25l17 -22l-13 -8l-22 8l-39 31l-16 12l-21 12l-26 19l-21 18l-20 10l-25 21 l-16 12l-11 -6l-16 -14l-25 -15l-30 -16l-31 -12l-33 -13l-26 -12l-19 -4l-24 -10l-31 -15l-21 -10l-22 -6zM846 971l10 20l16 -4l5 -20l-5 -15h-18z" />
<glyph unicode="&#xdc;" horiz-adv-x="891" d="M104 473l5 55v45l4 50l10 28l-8 19v28l14 29l4 41l-2 31l8 45l11 43v39l10 41v43l-21 34l-8 39l-2 21l10 37l17 24l14 6l35 17l41 6l39 -8l32 -21l19 -14l10 -14l21 -17l10 -26l-2 -37l-21 -37l-22 -33l-23 -43l-8 -31l-12 -57l-23 -49l-14 -55l-14 -52l-15 -47l-14 -51 l-2 -57l-12 -45l10 -60l2 -73l8 -50l21 -32l30 -25l17 -14l26 -8l51 -11l35 -4l37 2l66 13l51 32l29 31l22 35l23 29l2 28l14 19l18 43l13 37l8 36l20 35l-2 21l2 20l17 21l-6 34l14 56l6 47l14 41l-6 47l8 41l3 49l-3 39v39l9 31l-11 14l5 22l-5 25l2 23l3 28l4 29v16l18 6 l6 -8l-6 -28l4 -43v-23l6 -55l4 -68l-4 -61l2 -35l-6 -55v-37l-12 -43v-39l-12 -29l2 -31l-17 -36l6 -19l-8 -14l-6 -31l-2 -51l-18 -35l-11 -37l-8 -39l-14 -16l-14 -41l-21 -43l-31 -43l-35 -37l-38 -31l-45 -16l-48 -10l-43 -6h-53l-55 6l-37 10l-33 20l-33 19l-24 31 l-19 34l-14 39l-14 35l-4 43l-6 41zM233 1622l19 16l37 23l32 14h48l20 -6l4 -13l19 -2l18 -10v-33l-31 -26l-8 -17l-10 -16l-8 -4l-11 -16l-16 -15l-14 -10l-19 -2l-24 4l-15 10l-6 25l-8 8l-6 10l-12 6l-5 11v12l-2 10zM356 1497l11 10l22 -6l4 -15l-24 -12zM541 1601v21 l16 16l37 23l33 14h47l16 -6l10 -13l17 -2l16 -10l4 -18l-4 -15l-14 -14l-15 -12l-8 -17l-10 -16l-10 -4l-8 -16l-15 -15l-16 -10l-23 -2l-20 4l-12 10l-9 25l-6 8l-8 10l-10 6l-4 11v12zM846 971l10 20l16 -4l5 -20l-5 -15h-18z" />
<glyph unicode="&#xdd;" horiz-adv-x="805" d="M-53 1237l6 35l6 37l23 18l4 12l14 9l35 2l41 6l41 -10l41 -15l37 -22l28 -29l29 -45l4 -39l2 -49l8 -53l19 -60l14 -37l18 -49l19 -37l39 -82l6 -20l27 -27l18 6l31 -6l12 11l8 26l19 45l24 49l29 48l-4 57l4 26l14 46l25 34l12 35l25 27l18 41l25 37l24 47l23 28l28 39 l29 27l78 63l10 5l17 6l10 -6l10 -9l-6 -22l-10 -25l-21 -22l-26 -21l-19 -28l-18 -15l-17 -20l-18 -37l-19 -31l-14 -37l-14 -35l-19 -41l-10 -40l-10 -46v-81l-2 -41l-17 -43l-8 -35l-28 -35l-7 -18l-22 -17l-29 -33l-20 -41l-13 -47l-10 -20l-6 -39l-10 -41l-12 -51 l-7 -51l-12 -39l-8 -47l-10 -35l-17 -45l-10 -52l-8 -57v-39l-8 -41l8 -39l2 -18l-6 -14l4 -43l-8 -29l-9 -14l-10 -5h-10l-10 11l-11 37l-10 47l-16 118l6 48v47l2 43l6 26l-6 35v33l-20 90l-2 47l-15 33l6 39l-10 35l-6 30l-16 29l-25 14l-16 21l-27 14l-14 25l-6 18l6 17 l14 30l16 29l-6 22l-30 31l-29 39l-27 31l-39 47l-45 53l-33 47l-20 27l-33 39l-14 31zM342 1319v27l25 28l31 19l26 29l31 26l37 37l31 25l26 26l31 23l18 8h27l29 -19l8 -14v-18l-6 -19l-15 -10v-20l2 -25l-18 -27l-25 -14l-24 -16l-39 -6l-33 -13l-26 -12l-19 -4l-24 -10 l-31 -15l-21 -10l-22 -6zM870 1516l7 12l20 8l2 -10l-8 -21z" />
<glyph unicode="&#xde;" horiz-adv-x="748" d="M45 55l6 60l-2 55l4 55v41l15 10l10 25l12 47l-8 49l18 33l19 86l8 51l10 43l-10 41l4 37l12 68l4 69l11 60l-2 55l12 47l16 70v53l11 76l-11 47l-6 49l-6 31l10 47l23 22l43 11l39 -15l28 -16l4 -29l23 -20l10 -31l-14 -45l-14 -47l-15 -53l-10 -43h31l55 -17l51 4 l58 -20l61 -33l43 -37l37 -45l27 -65l12 -21v-33l14 -32l6 -39v-39l-10 -31l4 -31l-10 -39l-19 -49l-18 -37l-18 -24l-15 -27l-26 -28l-33 -13l-25 -26l-37 -23l-36 -6l-33 -10l-62 4l-61 6l-55 20l-35 9l-27 14q-1 -11 -10 -39l-29 -57l2 -49l-2 -35l-14 -31l-12 -35 l12 -47l-37 -20l-14 -37l8 -51l18 -25l6 -27l-6 -10l-18 -2h-10l-9 12l-14 35zM57 1227l17 10l22 -8l-4 -12l-18 -11zM190 475l13 -2l30 -16l35 -15l68 -16l59 -6l39 2l31 24l18 27l41 33l15 26l24 23l17 43l10 43l10 33l-6 41l8 39l-14 39l-27 65l-6 25l-20 14l-9 37 l-47 29l-37 20l-63 16l-66 15l-24 4v-10l-8 -41l-5 -54l-10 -41v-45l-12 -49l-6 -37l-6 -43l-17 -47l-6 -45l-14 -53l-8 -53z" />
<glyph unicode="&#xdf;" horiz-adv-x="844" d="M14 1208l17 17l12 -8v-19l-12 -4l-15 4zM88 602l4 12l17 29l18 39l-2 43l-6 37v45l2 57l4 39l2 58l-2 47l2 55l8 41l-14 16l4 21h22l9 10v29l-9 24v23l17 33l31 20l45 18l32 15l33 22l29 15l28 16l21 12h41l33 4l30 -4l35 -12l31 -10l27 -17l36 -20l31 -25l27 -34l20 -33 l21 -39l10 -37l6 -41l-6 -43l-8 -53l-21 -33l-12 -33l-20 -28l-46 -82l-24 -31l-14 -25l-19 -22l-2 -25l25 -18v-27l34 -39l29 -28l31 -39l16 -25l17 -29l20 -38l10 -39l11 -45l6 -33l10 -37l-4 -35l4 -39l-10 -41l-4 -35l-9 -34l-20 -23v-20l-10 -25l-27 -14l-31 -11 l-34 -8l-31 -14l-23 -14l-26 2l-37 2l-21 -2l-34 2l-27 16l-29 27l-14 20l-25 8l-8 11l-6 10l4 12l19 10l20 9l25 10l41 -21l43 -18l41 -2l28 -6h37l41 6l29 8l20 21l12 22l9 31l6 37v69l2 29l-4 31l-19 73l-18 45l-23 39l-26 33l-27 25l-29 28l-32 13l-41 16l-31 8h-29 l-22 2l-23 13v22l35 31l21 24l36 21l29 35l27 28l26 33l15 25l4 14l14 33l16 33l11 55l10 47l2 37l-6 45l-17 39l-24 33l-23 14l-20 14l-33 6l-31 -2l-30 -8l-27 -10l-27 -25l-20 -22l-12 -37l-9 -31l-16 -33l-4 -30l-8 -27l-10 -27l-9 -38l-18 -43l-16 -82l-5 -35v-68 l-22 -178l-6 -68l-8 -143l-7 -57l7 -47l-9 -64v-59l2 -53l-2 -60l-8 -67v-56l6 -43l-4 -33l-22 -24l-29 -14l-18 -7l-29 2l-18 11l-17 18v35l10 47l4 51v99l15 30v64l6 49l4 41l-4 33l-2 24l10 25l19 16l10 21v47l-6 43v43l-2 28l-37 52l-19 22l-10 19z" />
<glyph unicode="&#xe0;" d="M0 545l6 22l21 25l22 29l27 22l30 16l33 27l31 14l57 11l49 4l35 -10l29 -15l31 -10l35 -23l18 -18l18 -29l13 -37l10 -36l14 -48l13 -36l2 -31l-2 -39l10 -45l6 -47l18 -82l11 -31l10 -28l8 -35l2 -29l-2 -14l-14 -15h-15l-16 17l-8 26l-13 21l-8 29l-8 8l-12 -6 l-17 -11l-18 -22l-29 -17l-18 -18l-31 -16l-35 -13l-30 -10l-27 -8l-20 -8l-21 6l-29 4l-34 14l-31 19l-19 24l-14 27l-2 43v29l6 32l19 33l18 31l25 22l26 19l35 6l31 4l35 8l30 19l39 20l19 8l20 6l8 21l-16 29l-19 26l-40 37l-41 12l-33 2l-12 -2h-21l-25 -12l-22 -14 l-27 -4h-30l-35 -9h-31l-25 13l-18 18zM65 1055v18l9 14l28 19h27l18 -8l33 -23l25 -26l32 -25l35 -37l60 -51l28 -27l25 -24l4 -27l-23 -10l-20 6l-18 10l-60 25l-18 4l-27 12l-33 13l-39 6l-22 16l-25 14l-20 27l2 25v20l-14 10zM178 152l10 -21l27 -8h29l32 8l15 16l20 5 l47 32l23 15l16 26l17 21l2 28l2 25l-8 12l-29 8l-25 -2l-22 -10l-25 -8l-26 -14l-25 -4l-22 -11l-19 -14l-12 -18l-15 -23l-4 -20l-8 -19v-24zM446 92l5 12l12 7l8 -19l-8 -6zM528 260v12l19 9l4 -17l-12 -8z" />
<glyph unicode="&#xe1;" d="M0 545l6 22l21 25l22 29l27 22l30 16l33 27l31 14l57 11l49 4l35 -10l29 -15l31 -10l35 -23l18 -18l18 -29l13 -37l10 -36l14 -48l13 -36l2 -31l-2 -39l10 -45l6 -47l18 -82l11 -31l10 -28l8 -35l2 -29l-2 -14l-14 -15h-15l-16 17l-8 26l-13 21l-8 29l-8 8l-12 -6 l-17 -11l-18 -22l-29 -17l-18 -18l-31 -16l-35 -13l-30 -10l-27 -8l-20 -8l-21 6l-29 4l-34 14l-31 19l-19 24l-14 27l-2 43v29l6 32l19 33l18 31l25 22l26 19l35 6l31 4l35 8l30 19l39 20l19 8l20 6l8 21l-16 29l-19 26l-40 37l-41 12l-33 2l-12 -2h-21l-25 -12l-22 -14 l-27 -4h-30l-35 -9h-31l-25 13l-18 18zM100 858v27l25 28l31 19l26 29l31 26l37 37l31 25l26 26l31 23l18 8h27l29 -19l8 -14v-18l-6 -19l-15 -10v-20l2 -25l-18 -27l-25 -14l-24 -16l-39 -6l-33 -13l-26 -12l-19 -4l-24 -10l-31 -15l-21 -10l-22 -6zM178 152l10 -21l27 -8 h29l32 8l15 16l20 5l47 32l23 15l16 26l17 21l2 28l2 25l-8 12l-29 8l-25 -2l-22 -10l-25 -8l-26 -14l-25 -4l-22 -11l-19 -14l-12 -18l-15 -23l-4 -20l-8 -19v-24zM446 92l5 12l12 7l8 -19l-8 -6zM528 260v12l19 9l4 -17l-12 -8z" />
<glyph unicode="&#xe2;" d="M0 545l6 22l21 25l22 29l27 22l30 16l33 27l31 14l57 11l49 4l35 -10l29 -15l31 -10l35 -23l18 -18l18 -29l13 -37l10 -36l14 -48l13 -36l2 -31l-2 -39l10 -45l6 -47l18 -82l11 -31l10 -28l8 -35l2 -29l-2 -14l-14 -15h-15l-16 17l-8 26l-13 21l-8 29l-8 8l-12 -6 l-17 -11l-18 -22l-29 -17l-18 -18l-31 -16l-35 -13l-30 -10l-27 -8l-20 -8l-21 6l-29 4l-34 14l-31 19l-19 24l-14 27l-2 43v29l6 32l19 33l18 31l25 22l26 19l35 6l31 4l35 8l30 19l39 20l19 8l20 6l8 21l-16 29l-19 26l-40 37l-41 12l-33 2l-12 -2h-21l-25 -12l-22 -14 l-27 -4h-30l-35 -9h-31l-25 13l-18 18zM12 858v27l25 24l31 27l26 25l31 26l37 37l31 25l26 26l31 23l18 8h27l29 -19l16 -16l19 -14l26 -25l19 -20l18 -17l20 -16l23 -31l16 -26l25 -29l16 -25l17 -22l-13 -8l-22 8l-39 31l-16 12l-21 12l-26 19l-21 18l-20 10l-25 21 l-16 12l-11 -6l-16 -14l-25 -15l-30 -16l-31 -12l-33 -13l-26 -12l-19 -4l-24 -10l-31 -15l-21 -10l-22 -6zM178 152l10 -21l27 -8h29l32 8l15 16l20 5l47 32l23 15l16 26l17 21l2 28l2 25l-8 12l-29 8l-25 -2l-22 -10l-25 -8l-26 -14l-25 -4l-22 -11l-19 -14l-12 -18 l-15 -23l-4 -20l-8 -19v-24zM446 92l5 12l12 7l8 -19l-8 -6zM528 260v12l19 9l4 -17l-12 -8z" />
<glyph unicode="&#xe3;" d="M0 545l6 22l21 25l22 29l27 22l30 16l33 27l31 14l57 11l49 4l35 -10l29 -15l31 -10l35 -23l18 -18l18 -29l13 -37l10 -36l14 -48l13 -36l2 -31l-2 -39l10 -45l6 -47l18 -82l11 -31l10 -28l8 -35l2 -29l-2 -14l-14 -15h-15l-16 17l-8 26l-13 21l-8 29l-8 8l-12 -6 l-17 -11l-18 -22l-29 -17l-18 -18l-31 -16l-35 -13l-30 -10l-27 -8l-20 -8l-21 6l-29 4l-34 14l-31 19l-19 24l-14 27l-2 43v29l6 32l19 33l18 31l25 22l26 19l35 6l31 4l35 8l30 19l39 20l19 8l20 6l8 21l-16 29l-19 26l-40 37l-41 12l-33 2l-12 -2h-21l-25 -12l-22 -14 l-27 -4h-30l-35 -9h-31l-25 13l-18 18zM32 860v80l7 31l18 39l18 26l27 29l37 16l41 6l31 5l34 2l27 -13l23 -24l45 -45l16 -31l20 -33l13 -16l26 -23l31 -14l33 12l24 19l17 32l14 33l2 37v59l12 21l17 6l4 -12l-6 -19l-2 -26l-4 -21v-28l-6 -27l-3 -33l-10 -28l-8 -33 l-25 -27l-45 -16l-30 -8l-45 -5l-43 11l-29 24l-14 21l-47 88l-21 8l-29 -2l-20 -10l-16 -13l-11 -18l-4 -22l-8 -21l4 -27l-12 -24l-25 -23l-41 -2l-28 10zM178 152l10 -21l27 -8h29l32 8l15 16l20 5l47 32l23 15l16 26l17 21l2 28l2 25l-8 12l-29 8l-25 -2l-22 -10l-25 -8 l-26 -14l-25 -4l-22 -11l-19 -14l-12 -18l-15 -23l-4 -20l-8 -19v-24zM301 1106l2 16l16 2l14 -10l3 -12l-13 -6l-18 -4zM446 92l5 12l12 7l8 -19l-8 -6zM528 260v12l19 9l4 -17l-12 -8z" />
<glyph unicode="&#xe4;" d="M0 545l6 22l21 25l22 29l27 22l30 16l33 27l31 14l57 11l49 4l35 -10l29 -15l31 -10l35 -23l18 -18l18 -29l13 -37l10 -36l14 -48l13 -36l2 -31l-2 -39l10 -45l6 -47l18 -82l11 -31l10 -28l8 -35l2 -29l-2 -14l-14 -15h-15l-16 17l-8 26l-13 21l-8 29l-8 8l-12 -6 l-17 -11l-18 -22l-29 -17l-18 -18l-31 -16l-35 -13l-30 -10l-27 -8l-20 -8l-21 6l-29 4l-34 14l-31 19l-19 24l-14 27l-2 43v29l6 32l19 33l18 31l25 22l26 19l35 6l31 4l35 8l30 19l39 20l19 8l20 6l8 21l-16 29l-19 26l-40 37l-41 12l-33 2l-12 -2h-21l-25 -12l-22 -14 l-27 -4h-30l-35 -9h-31l-25 13l-18 18zM10 1008l19 16l37 23l32 14h48l20 -6l4 -13l19 -2l18 -10v-33l-31 -26l-8 -17l-10 -16l-8 -4l-11 -16l-16 -15l-14 -10l-19 -2l-24 4l-15 10l-6 25l-8 8l-6 10l-12 6l-5 11v12l-2 10zM133 883l11 10l22 -6l4 -15l-24 -12zM178 152 l10 -21l27 -8h29l32 8l15 16l20 5l47 32l23 15l16 26l17 21l2 28l2 25l-8 12l-29 8l-25 -2l-22 -10l-25 -8l-26 -14l-25 -4l-22 -11l-19 -14l-12 -18l-15 -23l-4 -20l-8 -19v-24zM318 987v21l16 16l37 23l33 14h47l16 -6l10 -13l17 -2l16 -10l4 -18l-4 -15l-14 -14l-15 -12 l-8 -17l-10 -16l-10 -4l-8 -16l-15 -15l-16 -10l-23 -2l-20 4l-12 10l-9 25l-6 8l-8 10l-10 6l-4 11v12zM446 92l5 12l12 7l8 -19l-8 -6zM528 260v12l19 9l4 -17l-12 -8z" />
<glyph unicode="&#xe5;" d="M0 545l6 22l21 25l22 29l27 22l30 16l33 27l31 14l57 11l49 4l35 -10l29 -15l31 -10l35 -23l18 -18l18 -29l13 -37l10 -36l14 -48l13 -36l2 -31l-2 -39l10 -45l6 -47l18 -82l11 -31l10 -28l8 -35l2 -29l-2 -14l-14 -15h-15l-16 17l-8 26l-13 21l-8 29l-8 8l-12 -6 l-17 -11l-18 -22l-29 -17l-18 -18l-31 -16l-35 -13l-30 -10l-27 -8l-20 -8l-21 6l-29 4l-34 14l-31 19l-19 24l-14 27l-2 43v29l6 32l19 33l18 31l25 22l26 19l35 6l31 4l35 8l30 19l39 20l19 8l20 6l8 21l-16 29l-19 26l-40 37l-41 12l-33 2l-12 -2h-21l-25 -12l-22 -14 l-27 -4h-30l-35 -9h-31l-25 13l-18 18zM102 999v27l25 29l59 37l56 22h69l31 -10l10 -21l29 -4l29 -16l2 -27l-2 -24l-25 -19l-25 -22l-16 -21l-14 -28l-13 -7l-14 -28l-27 -19l-20 -16l-31 -4l-39 6l-18 16l-12 37l-11 15l-12 14l-18 14l-9 15v16zM174 979l2 -12v-11 l12 -12l11 -8l4 -10l8 -19l8 -8l23 -6l16 2l14 10l11 10l12 15l4 6l12 14l6 15l13 12l12 6l2 14l-2 15l-14 12l-17 2l-6 10l-16 4h-41l-29 -12l-33 -18l-12 -15v-16zM178 152l10 -21l27 -8h29l32 8l15 16l20 5l47 32l23 15l16 26l17 21l2 28l2 25l-8 12l-29 8l-25 -2 l-22 -10l-25 -8l-26 -14l-25 -4l-22 -11l-19 -14l-12 -18l-15 -23l-4 -20l-8 -19v-24zM446 92l5 12l12 7l8 -19l-8 -6zM528 260v12l19 9l4 -17l-12 -8z" />
<glyph unicode="&#xe6;" horiz-adv-x="1094" d="M31 596l4 27l6 16l35 29l37 4l30 14l17 10l28 2l31 13l39 6l23 14l30 -6h31l45 -10l31 -8l28 -11l46 -14l28 -23l21 -20l18 -16l35 10l20 20l27 19l31 18l24 21l39 14l33 16l35 15l39 6h35l34 -10l29 -17l31 -20l28 -29l21 -33l18 -41v-39l-12 -43l-27 -32l-20 -29 l-55 -25l-45 -18l-52 -12l-32 -17l-39 -4l-31 -6l-29 -12l-6 -29l6 -29l21 -34l26 -29l31 -21l37 -26l37 -19l45 -26l39 -12l41 -9l47 -8l37 -4l37 -8v-10l-9 -9l-28 -6l-41 -4l-101 8l-51 13l-47 16l-35 14l-34 17l-39 16l-31 8h-27l-8 -18v-25l8 -26l8 -29l11 -18l2 -15 l-10 -8l-21 -6h-20l-9 14l-16 19l-8 18l-8 21l-23 -7l-2 -8l-29 -6l-34 -16l-41 -13l-35 -8l-41 -8h-53l-35 8l-41 8l-45 11l-29 18l-31 29l-35 43l7 28v35l-7 31v35l7 28l22 23l29 8l24 8l37 19l23 6l16 14h29l29 11l30 4l37 6l35 12l33 14l32 11l9 26l-9 29l-18 27l-16 20 l-11 21l-28 18h-27l-33 6l-34 -8l-29 -6l-31 -10l-4 -15l-33 -18l-26 -17l-29 -10l-47 -2l-37 12l-27 19l-22 18zM197 817l12 12l18 -8l-2 -14l-20 -8zM283 166l20 -16l25 -9l34 -4l44 -4l18 10h18l31 7l35 12l20 10l23 -4l16 8l-2 33l-6 37l-4 35l2 20l-10 21l-35 8l-31 2 l-35 -2l-30 -8l-31 -3l-33 -12l-33 -8l-10 -25l-8 -20l-8 -31l-10 -28v-29zM651 518l21 -18l18 -11l31 11l18 10l29 6l31 4l30 8l21 13h29l18 12l18 20l7 19l4 22l-2 25l-19 14l-35 11l-39 -7l-38 -8l-35 -20l-37 -17l-31 -18l-18 -21l-21 -26v-29z" />
<glyph unicode="&#xe7;" d="M16 465l13 14h18v-20l-10 -15l-10 9zM74 356l2 33l6 35l14 29l6 20v39l9 29l39 34l18 9l14 4l37 14l25 8l22 2l37 9l37 14l29 8l30 8l29 -2l33 -6l31 -10l30 -23l25 -16l20 -21l6 -26l-4 -27l-10 -20l-27 -19l-28 -8h-39l-33 10l-26 4l-35 11h-31l-21 -9l-36 -20l-43 -51 l-15 -29l-8 -24l-12 -33l-8 -25l-9 -41l-2 -30v-58l13 -31l26 -26l23 -10l35 -11l22 -10h76l33 6l18 8l14 11l19 -2l10 -17l-4 -14l-20 -16l-27 -13l-35 -14l-31 -10l-14 -15l-6 -32l-2 -21l2 -12l10 -15l25 -18l69 -39l25 -20l27 -29l14 -25l10 -18l10 -33l4 -35l-10 -28 l-14 -23l-16 -24l-25 -23l-10 -6l-15 -16l-32 -21l-39 -18l-43 -11l-45 -10l-39 6l-29 8l-12 13l-6 12v12l18 2l27 7l30 2l41 8l35 12l31 12l24 21l11 33l4 30l-2 23l-13 31l-18 26l-10 12l-17 5h-45l-22 -5l-17 9l-22 12l-10 16l-2 17l6 16l12 23l6 28l2 19l-2 20l-2 10 l-10 19l-2 24l-17 5l-28 12l-27 12l-28 19l-21 8l-12 28l-13 25l-8 29l-4 37l-10 41l-6 45v32z" />
<glyph unicode="&#xe8;" horiz-adv-x="700" d="M63 389l3 37l8 39l8 33l10 22l10 25l9 12l18 16l14 2l25 35l29 25l30 16l37 6h47l39 2l53 -6l43 -12l119 -59l31 -19l29 -26l16 -21l10 -35v-30l-18 -27l-29 -16l-35 -15l-43 -14l-47 -4l-43 -10l-30 -15l-35 -12l-29 -8l-47 -2l-37 4l-25 -2l-22 -8l-10 -23l4 -43 l12 -23l23 -28l43 -47l22 -21l43 -22l23 -11l28 -12h33l31 8l26 4l29 11l29 6h18l2 -8l-10 -11l-18 -12l-31 -16l-33 -17l-31 -12l-30 -8l-45 2l-45 10l-37 19l-43 28l-39 33l-27 18l-20 19l-17 24l-12 9l-25 61l-22 53l-14 43zM137 1055v18l9 14l28 19h27l18 -8l33 -23 l25 -26l32 -25l35 -37l60 -51l28 -27l25 -24l4 -27l-23 -10l-20 6l-18 10l-60 25l-18 4l-27 12l-33 13l-39 6l-22 16l-25 14l-20 27l2 25v20l-14 10zM209 492l6 -13l14 2l23 -2h39l33 -8h34l37 2l33 8l29 8l4 21l-17 18l-26 13l-29 12l-33 4h-32l-29 -8l-29 -12l-26 -19 l-15 -8zM526 147l6 13h15l2 -13l-12 -10z" />
<glyph unicode="&#xe9;" horiz-adv-x="700" d="M63 389l3 37l8 39l8 33l10 22l10 25l9 12l18 16l14 2l25 35l29 25l30 16l37 6h47l39 2l53 -6l43 -12l119 -59l31 -19l29 -26l16 -21l10 -35v-30l-18 -27l-29 -16l-35 -15l-43 -14l-47 -4l-43 -10l-30 -15l-35 -12l-29 -8l-47 -2l-37 4l-25 -2l-22 -8l-10 -23l4 -43 l12 -23l23 -28l43 -47l22 -21l43 -22l23 -11l28 -12h33l31 8l26 4l29 11l29 6h18l2 -8l-10 -11l-18 -12l-31 -16l-33 -17l-31 -12l-30 -8l-45 2l-45 10l-37 19l-43 28l-39 33l-27 18l-20 19l-17 24l-12 9l-25 61l-22 53l-14 43zM209 492l6 -13l14 2l23 -2h39l33 -8h34l37 2 l33 8l29 8l4 21l-17 18l-26 13l-29 12l-33 4h-32l-29 -8l-29 -12l-26 -19l-15 -8zM256 858v27l25 28l31 19l26 29l31 26l37 37l31 25l26 26l31 23l18 8h27l29 -19l8 -14v-18l-6 -19l-15 -10v-20l2 -25l-18 -27l-25 -14l-24 -16l-39 -6l-33 -13l-26 -12l-19 -4l-24 -10 l-31 -15l-21 -10l-22 -6zM526 147l6 13h15l2 -13l-12 -10z" />
<glyph unicode="&#xea;" horiz-adv-x="700" d="M63 389l3 37l8 39l8 33l10 22l10 25l9 12l18 16l14 2l25 35l29 25l30 16l37 6h47l39 2l53 -6l43 -12l119 -59l31 -19l29 -26l16 -21l10 -35v-30l-18 -27l-29 -16l-35 -15l-43 -14l-47 -4l-43 -10l-30 -15l-35 -12l-29 -8l-47 -2l-37 4l-25 -2l-22 -8l-10 -23l4 -43 l12 -23l23 -28l43 -47l22 -21l43 -22l23 -11l28 -12h33l31 8l26 4l29 11l29 6h18l2 -8l-10 -11l-18 -12l-31 -16l-33 -17l-31 -12l-30 -8l-45 2l-45 10l-37 19l-43 28l-39 33l-27 18l-20 19l-17 24l-12 9l-25 61l-22 53l-14 43zM84 858v27l25 24l31 27l26 25l31 26l37 37 l31 25l26 26l31 23l18 8h27l29 -19l16 -16l19 -14l26 -25l19 -20l18 -17l20 -16l23 -31l16 -26l25 -29l16 -25l17 -22l-13 -8l-22 8l-39 31l-16 12l-21 12l-26 19l-21 18l-20 10l-25 21l-16 12l-11 -6l-16 -14l-25 -15l-30 -16l-31 -12l-33 -13l-26 -12l-19 -4l-24 -10 l-31 -15l-21 -10l-22 -6zM209 492l6 -13l14 2l23 -2h39l33 -8h34l37 2l33 8l29 8l4 21l-17 18l-26 13l-29 12l-33 4h-32l-29 -8l-29 -12l-26 -19l-15 -8zM526 147l6 13h15l2 -13l-12 -10z" />
<glyph unicode="&#xeb;" horiz-adv-x="700" d="M63 389l3 37l8 39l8 33l10 22l10 25l9 12l18 16l14 2l25 35l29 25l30 16l37 6h47l39 2l53 -6l43 -12l119 -59l31 -19l29 -26l16 -21l10 -35v-30l-18 -27l-29 -16l-35 -15l-43 -14l-47 -4l-43 -10l-30 -15l-35 -12l-29 -8l-47 -2l-37 4l-25 -2l-22 -8l-10 -23l4 -43 l12 -23l23 -28l43 -47l22 -21l43 -22l23 -11l28 -12h33l31 8l26 4l29 11l29 6h18l2 -8l-10 -11l-18 -12l-31 -16l-33 -17l-31 -12l-30 -8l-45 2l-45 10l-37 19l-43 28l-39 33l-27 18l-20 19l-17 24l-12 9l-25 61l-22 53l-14 43zM102 1008l19 16l37 23l32 14h48l20 -6l4 -13 l19 -2l18 -10v-33l-31 -26l-8 -17l-10 -16l-8 -4l-11 -16l-16 -15l-14 -10l-19 -2l-24 4l-15 10l-6 25l-8 8l-6 10l-12 6l-5 11v12l-2 10zM209 492l6 -13l14 2l23 -2h39l33 -8h34l37 2l33 8l29 8l4 21l-17 18l-26 13l-29 12l-33 4h-32l-29 -8l-29 -12l-26 -19l-15 -8z M225 883l11 10l22 -6l4 -15l-24 -12zM410 987v21l16 16l37 23l33 14h47l16 -6l10 -13l17 -2l16 -10l4 -18l-4 -15l-14 -14l-15 -12l-8 -17l-10 -16l-10 -4l-8 -16l-15 -15l-16 -10l-23 -2l-20 4l-12 10l-9 25l-6 8l-8 10l-10 6l-4 11v12zM526 147l6 13h15l2 -13l-12 -10z " />
<glyph unicode="&#xec;" horiz-adv-x="340" d="M0 1055v18l9 14l28 19h27l18 -8l33 -23l25 -26l32 -25l35 -37l60 -51l28 -27l25 -24l4 -27l-23 -10l-20 6l-18 10l-60 25l-18 4l-27 12l-33 13l-39 6l-22 16l-25 14l-20 27l2 25v20l-14 10zM66 672l8 24l12 19l16 6l23 6l25 -6l18 -16l18 -15h23l16 -16l15 -10l12 -11 v-18l-6 -10l-21 -11l-14 -12l-6 -24l-4 -33l-11 -33l7 -29l-9 -24l-2 -33l-4 -35v-35l4 -43l-4 -32v-35l6 -27l9 -26l-9 -31l11 -27v-47l2 -18l8 -27l2 -29l8 -20v-19l8 -18l-10 -18l-12 -5l-8 5l-9 20l-6 23l-4 18l-10 20v19l-14 31v28l-4 21v28l-7 25l-4 61l-4 17l-2 39 l2 26l-2 29v25l-10 20l-17 10l-12 13l-12 39l-4 22v80l4 35l-6 37l-2 24z" />
<glyph unicode="&#xed;" horiz-adv-x="340" d="M66 672l8 24l12 19l16 6l23 6l25 -6l18 -16l18 -15h23l16 -16l15 -10l12 -11v-18l-6 -10l-21 -11l-14 -12l-6 -24l-4 -33l-11 -33l7 -29l-9 -24l-2 -33l-4 -35v-35l4 -43l-4 -32v-35l6 -27l9 -26l-9 -31l11 -27v-47l2 -18l8 -27l2 -29l8 -20v-19l8 -18l-10 -18l-12 -5 l-8 5l-9 20l-6 23l-4 18l-10 20v19l-14 31v28l-4 21v28l-7 25l-4 61l-4 17l-2 39l2 26l-2 29v25l-10 20l-17 10l-12 13l-12 39l-4 22v80l4 35l-6 37l-2 24zM106 858v27l25 28l31 19l26 29l31 26l37 37l31 25l26 26l31 23l18 8h27l29 -19l8 -14v-18l-6 -19l-15 -10v-20l2 -25 l-18 -27l-25 -14l-24 -16l-39 -6l-33 -13l-26 -12l-19 -4l-24 -10l-31 -15l-21 -10l-22 -6z" />
<glyph unicode="&#xee;" horiz-adv-x="340" d="M-103 858v27l25 24l31 27l26 25l31 26l37 37l31 25l26 26l31 23l18 8h27l29 -19l16 -16l19 -14l26 -25l19 -20l18 -17l20 -16l23 -31l16 -26l25 -29l16 -25l17 -22l-13 -8l-22 8l-39 31l-16 12l-21 12l-26 19l-21 18l-20 10l-25 21l-16 12l-11 -6l-16 -14l-25 -15 l-30 -16l-31 -12l-33 -13l-26 -12l-19 -4l-24 -10l-31 -15l-21 -10l-22 -6zM66 672l8 24l12 19l16 6l23 6l25 -6l18 -16l18 -15h23l16 -16l15 -10l12 -11v-18l-6 -10l-21 -11l-14 -12l-6 -24l-4 -33l-11 -33l7 -29l-9 -24l-2 -33l-4 -35v-35l4 -43l-4 -32v-35l6 -27l9 -26 l-9 -31l11 -27v-47l2 -18l8 -27l2 -29l8 -20v-19l8 -18l-10 -18l-12 -5l-8 5l-9 20l-6 23l-4 18l-10 20v19l-14 31v28l-4 21v28l-7 25l-4 61l-4 17l-2 39l2 26l-2 29v25l-10 20l-17 10l-12 13l-12 39l-4 22v80l4 35l-6 37l-2 24z" />
<glyph unicode="&#xef;" horiz-adv-x="340" d="M-80 1008l19 16l37 23l32 14h48l20 -6l4 -13l19 -2l18 -10v-33l-31 -26l-8 -17l-10 -16l-8 -4l-11 -16l-16 -15l-14 -10l-19 -2l-24 4l-15 10l-6 25l-8 8l-6 10l-12 6l-5 11v12l-2 10zM43 883l11 10l22 -6l4 -15l-24 -12zM66 672l8 24l12 19l16 6l23 6l25 -6l18 -16 l18 -15h23l16 -16l15 -10l12 -11v-18l-6 -10l-21 -11l-14 -12l-6 -24l-4 -33l-11 -33l7 -29l-9 -24l-2 -33l-4 -35v-35l4 -43l-4 -32v-35l6 -27l9 -26l-9 -31l11 -27v-47l2 -18l8 -27l2 -29l8 -20v-19l8 -18l-10 -18l-12 -5l-8 5l-9 20l-6 23l-4 18l-10 20v19l-14 31v28 l-4 21v28l-7 25l-4 61l-4 17l-2 39l2 26l-2 29v25l-10 20l-17 10l-12 13l-12 39l-4 22v80l4 35l-6 37l-2 24zM228 987v21l16 16l37 23l33 14h47l16 -6l10 -13l17 -2l16 -10l4 -18l-4 -15l-14 -14l-15 -12l-8 -17l-10 -16l-10 -4l-8 -16l-15 -15l-16 -10l-23 -2l-20 4l-12 10 l-9 25l-6 8l-8 10l-10 6l-4 11v12z" />
<glyph unicode="&#xf0;" horiz-adv-x="647" d="M63 330l5 28l10 39v39l12 39l21 62l22 20l4 23l21 16l26 18l25 15l37 8l24 -4l21 -12l12 -23l4 -20l-2 -27l-16 -21l-19 -24l-12 -27l-2 -26l-20 -19l-11 -37l-10 -24l-2 -37v-31l6 -33l14 -26l17 -21l22 -16l21 -21l26 -8l33 -2l4 -6l37 2l33 6l37 25l22 22l17 33l6 31 l10 39l2 63v62l-6 63l-10 49l-29 56l-14 47l-17 57l-38 43l-41 53l-43 60q-3 0 -9 -4l-37 -19l-65 -20l-70 -4l-28 4l-25 14l-12 20l-4 15l-2 20l12 23l18 16l50 21l30 4l33 -2l47 6h4l-55 78l-19 35l-30 18l-25 45l-18 41l18 29l35 2l35 -15l55 -51l43 -65l43 -56l23 -39 q4 3 14 7l37 6l37 14l121 4l12 -24l-6 -9l-113 -45l-25 -4l-14 -10l-18 -2l-4 -2l16 -25l41 -63l70 -123l22 -45l14 -41l9 -39l14 -59l2 -66l-4 -78l-4 -53l-6 -35l-4 -35l-7 -32l-14 -25l-10 -27l-17 -28l-24 -17l-16 -24l-33 -17l-33 -12l-39 -4l-39 -6l-37 -4l-39 8 l-32 6l-31 12l-25 11l-26 24l-23 27l-24 14l-17 27l-12 28l-14 27l-2 31zM410 1180l8 8l12 -2l4 -12l-12 -5zM541 68l16 16l25 -4l8 -25l-25 -8z" />
<glyph unicode="&#xf1;" horiz-adv-x="702" d="M63 653l3 19l10 18l12 12l23 17l28 2l29 -2l22 -14l21 -15l22 -22l11 -15l8 -24l22 -11l21 7l29 4l28 8l27 8l35 4l28 4l29 -10l14 -16l13 -29l10 -20l4 -29l10 -19l15 -24l10 -33l2 -29l2 -32l6 -31l2 -31l8 -28l2 -27v-29l4 -28l11 -29l4 -29l16 -22l8 -23v-18l-8 -11 l-10 -8l-21 2l-18 17l-6 18l-2 27v22l-8 29l-2 29v26l-9 27l-2 31l-16 49l-4 74l-17 51l-24 22l-29 13l-12 16l-21 10l-32 -10l-23 -8l-20 -23l-21 -24l-26 -37l-11 -25l-6 -22l-4 -21l-16 -22l-19 -23l-8 -33l-2 -37v-36l-4 -45l-2 -41v-37l2 -35l8 -31l6 -26l2 -25 l-10 -12l-8 -11l-19 -4h-18l-12 9l-10 12l-11 35l-6 28l-8 58v22l-4 25l-4 33v38l-4 35v27l-2 27l-7 30v37l-2 33v127l-8 24l-12 19l-8 16l-8 21zM75 860v80l7 31l18 39l18 26l27 29l37 16l41 6l31 5l34 2l27 -13l23 -24l45 -45l16 -31l20 -33l13 -16l26 -23l31 -14l33 12 l24 19l17 32l14 33l2 37v59l12 21l17 6l4 -12l-6 -19l-2 -26l-4 -21v-28l-6 -27l-3 -33l-10 -28l-8 -33l-25 -27l-45 -16l-30 -8l-45 -5l-43 11l-29 24l-14 21l-47 88l-21 8l-29 -2l-20 -10l-16 -13l-11 -18l-4 -22l-8 -21l4 -27l-12 -24l-25 -23l-41 -2l-28 10zM344 1106 l2 16l16 2l14 -10l3 -12l-13 -6l-18 -4zM494 88l16 16l10 -16l-8 -12l-10 -4z" />
<glyph unicode="&#xf2;" horiz-adv-x="647" d="M63 330l5 28l10 39v39l12 39l21 62l22 20l4 23l21 16l26 18l25 15l37 8l24 -4l21 -12l12 -23l4 -20l-2 -27l-16 -21l-19 -24l-12 -27l-2 -26l-20 -19l-11 -37l-10 -24l-2 -37v-31l6 -33l14 -26l17 -21l22 -16l21 -21l26 -8l33 -2l4 -6l37 2l33 6l37 25l22 22l17 33l6 31 v41l-10 24l-17 31l-18 25l-23 22l-24 19l-19 14l-14 12l-4 21l8 14h19l18 -12l25 -10l16 -13l33 -22l22 -17l15 -22l18 -27l16 -24l9 -23l6 -37l-4 -35l-7 -32l-14 -25l-10 -27l-17 -28l-24 -17l-16 -24l-33 -17l-33 -12l-39 -4l-39 -6l-37 -4l-39 8l-32 6l-31 12l-25 11 l-26 24l-23 27l-24 14l-17 27l-12 28l-14 27l-2 31zM127 1055v18l9 14l28 19h27l18 -8l33 -23l25 -26l32 -25l35 -37l60 -51l28 -27l25 -24l4 -27l-23 -10l-20 6l-18 10l-60 25l-18 4l-27 12l-33 13l-39 6l-22 16l-25 14l-20 27l2 25v20l-14 10zM354 537l8 8l13 -2l4 -13 l-12 -4z" />
<glyph unicode="&#xf3;" horiz-adv-x="647" d="M63 330l5 28l10 39v39l12 39l21 62l22 20l4 23l21 16l26 18l25 15l37 8l24 -4l21 -12l12 -23l4 -20l-2 -27l-16 -21l-19 -24l-12 -27l-2 -26l-20 -19l-11 -37l-10 -24l-2 -37v-31l6 -33l14 -26l17 -21l22 -16l21 -21l26 -8l33 -2l4 -6l37 2l33 6l37 25l22 22l17 33l6 31 v41l-10 24l-17 31l-18 25l-23 22l-24 19l-19 14l-14 12l-4 21l8 14h19l18 -12l25 -10l16 -13l33 -22l22 -17l15 -22l18 -27l16 -24l9 -23l6 -37l-4 -35l-7 -32l-14 -25l-10 -27l-17 -28l-24 -17l-16 -24l-33 -17l-33 -12l-39 -4l-39 -6l-37 -4l-39 8l-32 6l-31 12l-25 11 l-26 24l-23 27l-24 14l-17 27l-12 28l-14 27l-2 31zM186 858v27l25 28l31 19l26 29l31 26l37 37l31 25l26 26l31 23l18 8h27l29 -19l8 -14v-18l-6 -19l-15 -10v-20l2 -25l-18 -27l-25 -14l-24 -16l-39 -6l-33 -13l-26 -12l-19 -4l-24 -10l-31 -15l-21 -10l-22 -6zM354 537 l8 8l13 -2l4 -13l-12 -4z" />
<glyph unicode="&#xf4;" horiz-adv-x="647" d="M63 330l5 28l10 39v39l12 39l21 62l22 20l4 23l21 16l26 18l25 15l37 8l24 -4l21 -12l12 -23l4 -20l-2 -27l-16 -21l-19 -24l-12 -27l-2 -26l-20 -19l-11 -37l-10 -24l-2 -37v-31l6 -33l14 -26l17 -21l22 -16l21 -21l26 -8l33 -2l4 -6l37 2l33 6l37 25l22 22l17 33l6 31 v41l-10 24l-17 31l-18 25l-23 22l-24 19l-19 14l-14 12l-4 21l8 14h19l18 -12l25 -10l16 -13l33 -22l22 -17l15 -22l18 -27l16 -24l9 -23l6 -37l-4 -35l-7 -32l-14 -25l-10 -27l-17 -28l-24 -17l-16 -24l-33 -17l-33 -12l-39 -4l-39 -6l-37 -4l-39 8l-32 6l-31 12l-25 11 l-26 24l-23 27l-24 14l-17 27l-12 28l-14 27l-2 31zM63 858v27l25 24l31 27l26 25l31 26l37 37l31 25l26 26l31 23l18 8h27l29 -19l16 -16l19 -14l26 -25l19 -20l18 -17l20 -16l23 -31l16 -26l25 -29l16 -25l17 -22l-13 -8l-22 8l-39 31l-16 12l-21 12l-26 19l-21 18l-20 10 l-25 21l-16 12l-11 -6l-16 -14l-25 -15l-30 -16l-31 -12l-33 -13l-26 -12l-19 -4l-24 -10l-31 -15l-21 -10l-22 -6zM354 537l8 8l13 -2l4 -13l-12 -4z" />
<glyph unicode="&#xf5;" horiz-adv-x="647" d="M63 330l5 28l10 39v39l12 39l21 62l22 20l4 23l21 16l26 18l25 15l37 8l24 -4l21 -12l12 -23l4 -20l-2 -27l-16 -21l-19 -24l-12 -27l-2 -26l-20 -19l-11 -37l-10 -24l-2 -37v-31l6 -33l14 -26l17 -21l22 -16l21 -21l26 -8l33 -2l4 -6l37 2l33 6l37 25l22 22l17 33l6 31 v41l-10 24l-17 31l-18 25l-23 22l-24 19l-19 14l-14 12l-4 21l8 14h19l18 -12l25 -10l16 -13l33 -22l22 -17l15 -22l18 -27l16 -24l9 -23l6 -37l-4 -35l-7 -32l-14 -25l-10 -27l-17 -28l-24 -17l-16 -24l-33 -17l-33 -12l-39 -4l-39 -6l-37 -4l-39 8l-32 6l-31 12l-25 11 l-26 24l-23 27l-24 14l-17 27l-12 28l-14 27l-2 31zM69 860v80l7 31l18 39l18 26l27 29l37 16l41 6l31 5l34 2l27 -13l23 -24l45 -45l16 -31l20 -33l13 -16l26 -23l31 -14l33 12l24 19l17 32l14 33l2 37v59l12 21l17 6l4 -12l-6 -19l-2 -26l-4 -21v-28l-6 -27l-3 -33 l-10 -28l-8 -33l-25 -27l-45 -16l-30 -8l-45 -5l-43 11l-29 24l-14 21l-47 88l-21 8l-29 -2l-20 -10l-16 -13l-11 -18l-4 -22l-8 -21l4 -27l-12 -24l-25 -23l-41 -2l-28 10zM338 1106l2 16l16 2l14 -10l3 -12l-13 -6l-18 -4zM354 537l8 8l13 -2l4 -13l-12 -4z" />
<glyph unicode="&#xf6;" horiz-adv-x="647" d="M63 330l5 28l10 39v39l12 39l21 62l22 20l4 23l21 16l26 18l25 15l37 8l24 -4l21 -12l12 -23l4 -20l-2 -27l-16 -21l-19 -24l-12 -27l-2 -26l-20 -19l-11 -37l-10 -24l-2 -37v-31l6 -33l14 -26l17 -21l22 -16l21 -21l26 -8l33 -2l4 -6l37 2l33 6l37 25l22 22l17 33l6 31 v41l-10 24l-17 31l-18 25l-23 22l-24 19l-19 14l-14 12l-4 21l8 14h19l18 -12l25 -10l16 -13l33 -22l22 -17l15 -22l18 -27l16 -24l9 -23l6 -37l-4 -35l-7 -32l-14 -25l-10 -27l-17 -28l-24 -17l-16 -24l-33 -17l-33 -12l-39 -4l-39 -6l-37 -4l-39 8l-32 6l-31 12l-25 11 l-26 24l-23 27l-24 14l-17 27l-12 28l-14 27l-2 31zM75 1008l19 16l37 23l32 14h48l20 -6l4 -13l19 -2l18 -10v-33l-31 -26l-8 -17l-10 -16l-8 -4l-11 -16l-16 -15l-14 -10l-19 -2l-24 4l-15 10l-6 25l-8 8l-6 10l-12 6l-5 11v12l-2 10zM198 883l11 10l22 -6l4 -15l-24 -12z M354 537l8 8l13 -2l4 -13l-12 -4zM383 987v21l16 16l37 23l33 14h47l16 -6l10 -13l17 -2l16 -10l4 -18l-4 -15l-14 -14l-15 -12l-8 -17l-10 -16l-10 -4l-8 -16l-15 -15l-16 -10l-23 -2l-20 4l-12 10l-9 25l-6 8l-8 10l-10 6l-4 11v12z" />
<glyph unicode="&#xf7;" horiz-adv-x="1702" d="M88 350l2 10l14 9l23 10l27 -2l45 4h39l77 -2h119l58 2l47 -4l88 4h100l82 -2l86 4l68 -6l55 6l84 -6l92 6l76 -8l55 2h43l35 2l33 -8l43 -2l37 -7l28 -4h35l29 -2h34l3 -8v-6l-7 -4l-16 -4h-18l-31 2h-47l-29 -6l-29 -2h-32l-39 -4h-35l-39 -2h-27l-57 6l-68 -9l-86 -2 h-81l-72 -8l-113 -2h-100l-205 -4l-55 -4l-51 -2l-43 2h-168l-37 4l-19 4l-18 2l-17 6l-10 13l-6 10zM412 23v30l14 17l16 12l7 14l12 19l8 2l10 16l17 17l14 8l16 2l25 -4l16 -11l4 -24l9 -8l8 -11l12 -6l4 -10v-20l4 -21l-20 -18l-35 -23l-33 -12h-28l-21 -2l-18 8l-7 10 l-16 4zM446 180l27 10l12 -22l-10 -10l-22 6zM457 594l6 10l-6 17v20l4 18l14 19l17 12h16l22 -10l11 -2l14 -2l10 4l10 -4l11 -10l10 -4l14 -15v-22l-10 -43l-14 -33l-33 -33l-16 -8l-15 2l-14 -10l-19 -4l-16 10l-6 12v39l-4 18z" />
<glyph unicode="&#xf8;" horiz-adv-x="858" d="M-63 25l4 20l10 21l22 18l27 16l27 13l28 16l21 18l20 5l27 24l18 19l23 12l18 18l8 17l-10 22l-2 35l-6 31l-8 30v33l4 31v20l4 27l6 21v24l10 14l21 27l10 21l25 16l22 20l10 25v20l11 29l8 19l18 18l9 18l26 19l31 2l27 -12l22 -17l8 -18l27 -19l22 2l17 11l18 22 l21 10l26 2h35l23 5l20 -15l25 -14l4 -33l16 -6l37 8l21 8l18 23l22 10l29 19l29 14l31 16l26 13l12 14l19 4l18 16l27 13l20 8l17 -4v-15l-17 -10l-18 -12l-27 -16l-28 -17l-62 -39l-22 -20l-23 -17l-26 -22l-21 -19l-33 -24l-20 -23l-12 -18l-43 -29l-13 -18l-26 -25 l-23 -14l-29 -23l-26 -24l-35 -33l-18 -20l-19 -13l-12 -16l-21 -19l-26 -26l-21 -33l-24 -29l-9 -24l-12 -23l2 -33l19 -12l28 -18l25 -8l27 -15l28 4l33 2l29 15l26 10l27 16h22l33 21l15 20l8 29l-23 49l-16 27l-17 20l-4 25l-14 20l-4 31l2 25l6 20l29 18l31 9l20 -9 l20 -10l9 -20l10 -23l6 -18l8 -31l2 -27l6 -28v-29l5 -22l2 -29v-27l-2 -26l-9 -23l-14 -33l-23 -14l-14 -16l-18 -31l-27 -25l-22 -14l-37 -23l-35 -2l-37 -10h-37l-33 2l-32 17l-23 2l-31 14l-32 14l-29 17l-19 18l-14 23l-16 16l-19 -8l-10 -12l-16 -25l-19 -31l-22 -28 l-19 -29l-16 -18l-23 -13l-28 -16h-27l-31 8l-28 8l-43 29zM313 397l25 -4l24 4l23 15l14 6l17 22l47 43l22 23l27 20l25 19l12 18l16 15l19 14l20 10l17 10l10 17l-19 4l-26 -4h-17l-22 -15l-25 -2l-49 -24l-22 -15l-25 -24l-27 -19l-12 -14h-8l-10 -24l-17 -19l-12 -22 l-16 -25z" />
<glyph unicode="&#xf9;" horiz-adv-x="692" d="M78 502l2 26l6 21l20 22l27 11l21 2l26 -4l25 -13l18 -14l17 -25l10 -22l8 -31l-4 -22l-14 -19l-13 -22l-2 -29l-10 -33v-28l2 -39l10 -41l15 -19l16 -26l29 -21l28 -14l35 -10l27 10l26 14l21 21l20 32l15 27l12 27l10 28l8 37l5 43l-9 37l-6 33l-6 14l4 27l-2 26l4 21 l6 18l4 27l11 16l12 8l18 -6l9 -16l2 -14l8 -21l-2 -20v-31l-8 -31v-14l-9 -12l5 -25l4 -29l10 -26l2 -41l10 -27l8 -35l4 -28l11 -31l12 -23l16 -20l17 -18l45 -21l6 -14l-10 -17l-13 -8l-16 -2l-14 4l-9 10l-16 19l-20 16l-15 15l-26 57l-4 24l-7 21l-6 16h-8l-10 -12 l-12 -20l-7 -19l-6 -20l-10 -21l-12 -18l-15 -17l-16 -22l-27 -15l-20 -10l-39 -10l-31 -2l-24 4l-27 14l-33 9l-22 18l-27 14l-16 17l-23 20l-8 31l-12 33l-8 32l-9 39l-8 23l6 31l-10 37l-2 20l-2 31l-4 26zM102 1055v18l9 14l28 19h27l18 -8l33 -23l25 -26l32 -25l35 -37 l60 -51l28 -27l25 -24l4 -27l-23 -10l-20 6l-18 10l-60 25l-18 4l-27 12l-33 13l-39 6l-22 16l-25 14l-20 27l2 25v20l-14 10zM254 414l12 12l21 -2l20 -12l29 -37l-4 -47l-29 -29l-24 23l-17 34l2 37z" />
<glyph unicode="&#xfa;" horiz-adv-x="692" d="M78 502l2 26l6 21l20 22l27 11l21 2l26 -4l25 -13l18 -14l17 -25l10 -22l8 -31l-4 -22l-14 -19l-13 -22l-2 -29l-10 -33v-28l2 -39l10 -41l15 -19l16 -26l29 -21l28 -14l35 -10l27 10l26 14l21 21l20 32l15 27l12 27l10 28l8 37l5 43l-9 37l-6 33l-6 14l4 27l-2 26l4 21 l6 18l4 27l11 16l12 8l18 -6l9 -16l2 -14l8 -21l-2 -20v-31l-8 -31v-14l-9 -12l5 -25l4 -29l10 -26l2 -41l10 -27l8 -35l4 -28l11 -31l12 -23l16 -20l17 -18l45 -21l6 -14l-10 -17l-13 -8l-16 -2l-14 4l-9 10l-16 19l-20 16l-15 15l-26 57l-4 24l-7 21l-6 16h-8l-10 -12 l-12 -20l-7 -19l-6 -20l-10 -21l-12 -18l-15 -17l-16 -22l-27 -15l-20 -10l-39 -10l-31 -2l-24 4l-27 14l-33 9l-22 18l-27 14l-16 17l-23 20l-8 31l-12 33l-8 32l-9 39l-8 23l6 31l-10 37l-2 20l-2 31l-4 26zM161 858v27l25 28l31 19l26 29l31 26l37 37l31 25l26 26l31 23 l18 8h27l29 -19l8 -14v-18l-6 -19l-15 -10v-20l2 -25l-18 -27l-25 -14l-24 -16l-39 -6l-33 -13l-26 -12l-19 -4l-24 -10l-31 -15l-21 -10l-22 -6zM254 414l12 12l21 -2l20 -12l29 -37l-4 -47l-29 -29l-24 23l-17 34l2 37z" />
<glyph unicode="&#xfb;" horiz-adv-x="692" d="M77 858v27l25 24l31 27l26 25l31 26l37 37l31 25l26 26l31 23l18 8h27l29 -19l16 -16l19 -14l26 -25l19 -20l18 -17l20 -16l23 -31l16 -26l25 -29l16 -25l17 -22l-13 -8l-22 8l-39 31l-16 12l-21 12l-26 19l-21 18l-20 10l-25 21l-16 12l-11 -6l-16 -14l-25 -15l-30 -16 l-31 -12l-33 -13l-26 -12l-19 -4l-24 -10l-31 -15l-21 -10l-22 -6zM78 502l2 26l6 21l20 22l27 11l21 2l26 -4l25 -13l18 -14l17 -25l10 -22l8 -31l-4 -22l-14 -19l-13 -22l-2 -29l-10 -33v-28l2 -39l10 -41l15 -19l16 -26l29 -21l28 -14l35 -10l27 10l26 14l21 21l20 32 l15 27l12 27l10 28l8 37l5 43l-9 37l-6 33l-6 14l4 27l-2 26l4 21l6 18l4 27l11 16l12 8l18 -6l9 -16l2 -14l8 -21l-2 -20v-31l-8 -31v-14l-9 -12l5 -25l4 -29l10 -26l2 -41l10 -27l8 -35l4 -28l11 -31l12 -23l16 -20l17 -18l45 -21l6 -14l-10 -17l-13 -8l-16 -2l-14 4 l-9 10l-16 19l-20 16l-15 15l-26 57l-4 24l-7 21l-6 16h-8l-10 -12l-12 -20l-7 -19l-6 -20l-10 -21l-12 -18l-15 -17l-16 -22l-27 -15l-20 -10l-39 -10l-31 -2l-24 4l-27 14l-33 9l-22 18l-27 14l-16 17l-23 20l-8 31l-12 33l-8 32l-9 39l-8 23l6 31l-10 37l-2 20l-2 31 l-4 26zM254 414l12 12l21 -2l20 -12l29 -37l-4 -47l-29 -29l-24 23l-17 34l2 37z" />
<glyph unicode="&#xfc;" horiz-adv-x="692" d="M77 1008l19 16l37 23l32 14h48l20 -6l4 -13l19 -2l18 -10v-33l-31 -26l-8 -17l-10 -16l-8 -4l-11 -16l-16 -15l-14 -10l-19 -2l-24 4l-15 10l-6 25l-8 8l-6 10l-12 6l-5 11v12l-2 10zM78 502l2 26l6 21l20 22l27 11l21 2l26 -4l25 -13l18 -14l17 -25l10 -22l8 -31l-4 -22 l-14 -19l-13 -22l-2 -29l-10 -33v-28l2 -39l10 -41l15 -19l16 -26l29 -21l28 -14l35 -10l27 10l26 14l21 21l20 32l15 27l12 27l10 28l8 37l5 43l-9 37l-6 33l-6 14l4 27l-2 26l4 21l6 18l4 27l11 16l12 8l18 -6l9 -16l2 -14l8 -21l-2 -20v-31l-8 -31v-14l-9 -12l5 -25 l4 -29l10 -26l2 -41l10 -27l8 -35l4 -28l11 -31l12 -23l16 -20l17 -18l45 -21l6 -14l-10 -17l-13 -8l-16 -2l-14 4l-9 10l-16 19l-20 16l-15 15l-26 57l-4 24l-7 21l-6 16h-8l-10 -12l-12 -20l-7 -19l-6 -20l-10 -21l-12 -18l-15 -17l-16 -22l-27 -15l-20 -10l-39 -10 l-31 -2l-24 4l-27 14l-33 9l-22 18l-27 14l-16 17l-23 20l-8 31l-12 33l-8 32l-9 39l-8 23l6 31l-10 37l-2 20l-2 31l-4 26zM200 883l11 10l22 -6l4 -15l-24 -12zM254 414l12 12l21 -2l20 -12l29 -37l-4 -47l-29 -29l-24 23l-17 34l2 37zM385 987v21l16 16l37 23l33 14h47 l16 -6l10 -13l17 -2l16 -10l4 -18l-4 -15l-14 -14l-15 -12l-8 -17l-10 -16l-10 -4l-8 -16l-15 -15l-16 -10l-23 -2l-20 4l-12 10l-9 25l-6 8l-8 10l-10 6l-4 11v12z" />
<glyph unicode="&#xfd;" horiz-adv-x="737" d="M16 455l15 14l14 -4l6 -14l-10 -11l-12 4zM41 528l4 19l4 16l12 19l19 14l26 10l29 -4l23 -6l24 -18l15 -21l12 -27l20 -41l11 -34l4 -49l-2 -31l4 -37l10 -4l8 -31l10 -20l2 -17l17 -14l24 -14l29 -11l25 11l24 4l23 10l20 14l27 6l37 -2l16 15l12 18l11 12v29l-4 31 l-7 37l-8 37l-6 36v27l-14 49l-17 27v20l9 21l14 14l24 -4l15 -10l8 -17l12 -18l11 -16l6 -19l12 -22l6 -25l6 -23l4 -30l-4 -29v-27l4 -34l-2 -27l2 -29l4 -24l2 -31l-2 -29l2 -32l7 -29l-9 -31l7 -26l4 -29l-2 -29l-9 -53v-23l-6 -28l2 -27l-4 -24l-10 -15v-28l-6 -35 l-10 -31l-17 -35l-4 -18l-10 -15l-10 -18l-15 -20l-20 -21l-6 -16l-19 -19l-16 -18l-19 -17l-18 -14l-25 -10l-14 -14l-27 -11l-34 -8l-33 2l-82 14l-35 11l-22 4l-23 22l-12 4l-10 15l-7 24l-2 21v39l2 33l7 14l6 10l8 6l8 -6v-12l-2 -19l4 -18v-27l-4 -16l10 -29l13 -12 l16 -8l18 -15l17 -2h14l21 -6h24l29 -4l26 8l21 2l27 -6l14 17l16 12l19 10l16 12l25 37l30 35l2 21l15 14l8 20l10 15v16l10 29l11 22l6 29l8 35l-4 22l10 27v35l2 31l4 30l-6 37l-8 27l-6 18l-12 17l-7 6l-10 -6l-18 -17l-17 -16l-24 -8l-19 -15l-18 -10l-21 -4l-10 -10 l-26 -6l-29 -11h-33l-33 13l-30 14l-17 2l-12 16l-12 4l-23 19l-24 14l-15 27l-12 20l-8 21l-8 28l-7 35v35l-12 33v33l-6 20l-4 33l-8 29l-19 28l-6 23zM239 653v27l25 28l31 19l26 29l31 26l37 37l31 25l26 26l31 23l18 8h27l29 -19l8 -14v-18l-6 -19l-15 -10v-20l2 -25 l-18 -27l-25 -14l-24 -16l-39 -6l-33 -13l-26 -12l-19 -4l-24 -10l-31 -15l-21 -10l-22 -6z" />
<glyph unicode="&#xfe;" horiz-adv-x="672" d="M47 492l2 28l12 27l19 18l10 29l35 45l2 37l-2 51l-4 51l-2 39v39l-8 45l-2 39l-7 41l-2 43l-4 41v20l4 35v29l-8 31l-2 28l-12 27v25l12 20l19 20l28 11l29 2l35 -10l28 -13l33 -10l25 -16l4 -31l-2 -39l12 -29l8 -39l2 -30l-10 -52l-20 -32l-17 -23l-14 -28v-41 l-25 -64l-2 -49l-4 -51l-4 -41v-35l10 -21l23 -6l59 -4l41 -6l29 -2l35 -12l34 -8l33 -9l33 -18l35 -31l24 -26l21 -39l6 -47l-6 -74l-10 -19l-17 -51l-39 -39l-6 -30l6 -50l-45 -41l-47 -10l-49 -14l-29 -21l-28 -26l-23 -10l-24 -5l-19 5l-4 16l8 14l21 17l18 24l29 21 l18 26l25 21l26 33l29 28l25 33l18 31l21 39l8 26l2 35l-2 29l-17 28l-26 23l-21 10l-37 10l-30 5l-27 6l-27 -4l-38 -2l-33 -5l-17 -28l-20 -21l-6 -28l-4 -47l-6 -37l-2 -37l-7 -41l-2 -31l-2 -41l-4 -31l-4 -38l-2 -31v-66l-4 -28l4 -25v-31l-2 -45l10 -28l-2 -35l2 -33 l8 -76l7 -28l10 -33l14 -35l10 -21l15 -16l4 -18l-15 -25l-6 -12l-24 14l-15 25l-12 24l-14 37l-6 29l-9 26l-12 31l4 10v29l-2 35v22l-4 58v28l-2 35l-4 31v86l-2 39l6 43v86l-4 43l8 108l-12 27l-29 10l-16 11l-21 20zM193 55v17l10 10l10 -10l-10 -17h-10zM301 -463l4 21 l33 8l8 -33l-16 -20z" />
<glyph unicode="&#xff;" horiz-adv-x="737" d="M16 455l15 14l14 -4l6 -14l-10 -11l-12 4zM41 528l4 19l4 16l12 19l19 14l26 10l29 -4l23 -6l24 -18l15 -21l12 -27l20 -41l11 -34l4 -49l-2 -31l4 -37l10 -4l8 -31l10 -20l2 -17l17 -14l24 -14l29 -11l25 11l24 4l23 10l20 14l27 6l37 -2l16 15l12 18l11 12v29l-4 31 l-7 37l-8 37l-6 36v27l-14 49l-17 27v20l9 21l14 14l24 -4l15 -10l8 -17l12 -18l11 -16l6 -19l12 -22l6 -25l6 -23l4 -30l-4 -29v-27l4 -34l-2 -27l2 -29l4 -24l2 -31l-2 -29l2 -32l7 -29l-9 -31l7 -26l4 -29l-2 -29l-9 -53v-23l-6 -28l2 -27l-4 -24l-10 -15v-28l-6 -35 l-10 -31l-17 -35l-4 -18l-10 -15l-10 -18l-15 -20l-20 -21l-6 -16l-19 -19l-16 -18l-19 -17l-18 -14l-25 -10l-14 -14l-27 -11l-34 -8l-33 2l-82 14l-35 11l-22 4l-23 22l-12 4l-10 15l-7 24l-2 21v39l2 33l7 14l6 10l8 6l8 -6v-12l-2 -19l4 -18v-27l-4 -16l10 -29l13 -12 l16 -8l18 -15l17 -2h14l21 -6h24l29 -4l26 8l21 2l27 -6l14 17l16 12l19 10l16 12l25 37l30 35l2 21l15 14l8 20l10 15v16l10 29l11 22l6 29l8 35l-4 22l10 27v35l2 31l4 30l-6 37l-8 27l-6 18l-12 17l-7 6l-10 -6l-18 -17l-17 -16l-24 -8l-19 -15l-18 -10l-21 -4l-10 -10 l-26 -6l-29 -11h-33l-33 13l-30 14l-17 2l-12 16l-12 4l-23 19l-24 14l-15 27l-12 20l-8 21l-8 28l-7 35v35l-12 33v33l-6 20l-4 33l-8 29l-19 28l-6 23zM69 1008l19 16l37 23l32 14h48l20 -6l4 -13l19 -2l18 -10v-33l-31 -26l-8 -17l-10 -16l-8 -4l-11 -16l-16 -15l-14 -10 l-19 -2l-24 4l-15 10l-6 25l-8 8l-6 10l-12 6l-5 11v12l-2 10zM192 883l11 10l22 -6l4 -15l-24 -12zM377 987v21l16 16l37 23l33 14h47l16 -6l10 -13l17 -2l16 -10l4 -18l-4 -15l-14 -14l-15 -12l-8 -17l-10 -16l-10 -4l-8 -16l-15 -15l-16 -10l-23 -2l-20 4l-12 10l-9 25 l-6 8l-8 10l-10 6l-4 11v12z" />
<glyph unicode="&#x152;" horiz-adv-x="1485" d="M63 492v45l3 47v49l8 35l4 32l14 43v37l12 41l-2 45l4 45v37l15 47l4 31l16 37v31l13 26l28 68l15 24l18 25l31 23l35 20l28 18l33 15l74 35l30 10l27 12l31 6l35 17l39 10l26 4l37 4l31 -6l63 -23l37 4l41 9l27 2l18 -2l19 8l26 -8l29 -9h26l54 7l45 -4l35 6l38 8l41 2 l58 2h90l49 4h102l37 2l39 -6h33l29 -2l18 -12l14 -17l2 -20l-18 -21l-27 -6h-30l-47 -8l-31 -4l-35 -6l-27 -21l-10 -6l-2 -24l-29 -13l-34 -6l-41 -8l-94 -10l-31 -15l-33 -2h-33l-35 -8l-38 -2l-35 -16l-25 -13l-14 -16l-8 -31l-11 -37l-14 -39l6 -26v-31l-6 -29l-8 -32 l-8 -25l2 -22l20 -13l27 -8h35l84 16l32 -2l37 2l31 11h35l39 2l24 -2l33 2l25 -4l8 -4l6 -13l-6 -12l-19 -10l-32 -6l-43 -2l-43 -9l-52 -10l-43 -6l-39 -8l-41 -6l-26 -6h-21l-28 -13l-33 -16l-4 -17l2 -47l6 -39l6 -30v-54l-6 -45l-6 -30l-2 -29l-8 -41l-13 -82v-37 l-8 -30l-6 -37l6 -39l-8 -27l2 -20l8 -17l21 -4l26 4l37 -8l37 -4l31 -6l45 6l49 2l47 -2l41 -8h47l37 -2l47 -6l43 -2l41 -9l39 -10l33 -16l20 -8l23 -29l-2 -14l-17 -11l-30 4l-21 7l-29 12h-104l-76 2h-94l-90 4h-123l-18 -4h-19l-12 -12l-10 -19l-6 -16l-15 -10l-24 -2 h-15l-14 12l-19 37l-4 47l-10 37l-6 28l-2 31l-6 27v39l-2 32l8 29l4 23l16 120l2 29v45l9 31v41l-11 51l2 47l-28 94l-8 45l-2 47v91l-11 32v68l-43 31l-4 10l-4 16l4 13l8 10l23 18l18 17l4 34l-14 25l-20 18l-29 11h-29l-32 4l-29 2l-41 -2l-37 -6l-37 -4l-35 -9l-41 -16 l-38 -23l-27 -22l-31 -23l-35 -34l-22 -37l-29 -41l-22 -47l-15 -58l-20 -67l-15 -74l-4 -37l-4 -22l-4 -25l-10 -37l-8 -35l-8 -28l-11 -43v-90l9 -39l32 -66l8 -37l15 -31l14 -34l25 -31l20 -35l23 -24l22 -11l25 -18l33 -14l43 -11h36l35 2l31 9l37 14l31 6l22 4h14 l11 -8l-19 -16l-24 -5l-33 -14l-47 -14l-49 -15l-21 -4l-20 -8l-47 4l-56 15l-39 20l-32 29l-35 37l-47 73l-19 41l-22 37l-23 39l-18 49zM614 1114l2 14l11 19l22 2l15 -12l-2 -19l-17 -14h-18zM696 1241l21 12l14 -6l4 -12l-14 -10h-19z" />
<glyph unicode="&#x153;" horiz-adv-x="1198" d="M63 360l11 27l2 39l6 35l22 51l17 35l20 35l17 30l14 23l39 29l37 16l45 8h55l49 8l47 4l41 -2l43 -16l31 -25l35 -22l18 -23l13 -8l20 -2l33 8l41 23l37 18l28 17l15 22l14 10l29 -12l18 -2l55 4l35 -2l47 -8l33 -12l29 -27l18 -29l25 -24l18 -21l13 -20l18 -10l2 -19 l-4 -20l-10 -9v-16l-23 -4l-10 -10l14 -23v-22l-4 -27l-20 -27l-21 -22l-55 -37l-12 -16l-21 -4l-37 -25l-32 -10l-52 -10l-43 -11h-35l-24 -2l-16 -8l-5 -10l7 -27l14 -18l20 -23l25 -8l18 -14l19 -4l20 -19l29 -16l29 -8l41 -2l32 -5l29 -4l21 -2l12 -10l-12 -10l-31 -6 l-27 -4l-37 -7l-41 2l-45 7h-35l-47 12l-36 14l-46 21l-30 26l-27 19l-29 33l-22 28l-14 39l-7 27l-14 20l-10 29l2 22v19l-25 20l-18 11l-6 26l20 15l29 14l14 12l2 17v28l11 101l-29 18l-27 20l-24 19l-23 16l-33 11l-36 -9l-21 -20l-31 -33l-18 -51l-23 -31l-20 -39 l-31 -24l-35 -21l-22 -41l-6 -57l6 -27l14 -45l25 -30l32 -37l37 -23l37 -24l35 -15l49 -14l31 -4l45 4l45 8l31 -10l16 -8l2 -13l-2 -16l-22 -16l-31 -7l-39 -4l-31 -8l-33 -6h-32l-39 2l-41 8l-47 15l-43 16l-45 29l-31 37l-33 30l-29 33l-14 33l-14 35l-4 32v25zM186 782 l19 9l14 -13l-2 -16l-16 -17l-13 17zM432 395l14 27l25 2l8 -18l-4 -23l-12 -14h-19zM700 393l7 -65l10 -9l22 3l33 6h29l41 10l37 10l51 37l24 16l9 25l2 25l-2 59l-13 20l-35 11l-38 8l-41 -4l-35 -8l-33 -9l-29 -18l-14 -59l-18 -29zM1112 735l23 17l16 -17l2 -14 l-14 -14l-19 8zM1130 377l11 18l16 -6l10 -12l-16 -17l-16 5z" />
<glyph unicode="&#x178;" horiz-adv-x="805" d="M-53 1237l6 35l6 37l23 18l4 12l14 9l35 2l41 6l41 -10l41 -15l37 -22l28 -29l29 -45l4 -39l2 -49l8 -53l19 -60l14 -37l18 -49l19 -37l39 -82l6 -20l27 -27l18 6l31 -6l12 11l8 26l19 45l24 49l29 48l-4 57l4 26l14 46l25 34l12 35l25 27l18 41l25 37l24 47l23 28l28 39 l29 27l78 63l10 5l17 6l10 -6l10 -9l-6 -22l-10 -25l-21 -22l-26 -21l-19 -28l-18 -15l-17 -20l-18 -37l-19 -31l-14 -37l-14 -35l-19 -41l-10 -40l-10 -46v-81l-2 -41l-17 -43l-8 -35l-28 -35l-7 -18l-22 -17l-29 -33l-20 -41l-13 -47l-10 -20l-6 -39l-10 -41l-12 -51 l-7 -51l-12 -39l-8 -47l-10 -35l-17 -45l-10 -52l-8 -57v-39l-8 -41l8 -39l2 -18l-6 -14l4 -43l-8 -29l-9 -14l-10 -5h-10l-10 11l-11 37l-10 47l-16 118l6 48v47l2 43l6 26l-6 35v33l-20 90l-2 47l-15 33l6 39l-10 35l-6 30l-16 29l-25 14l-16 21l-27 14l-14 25l-6 18l6 17 l14 30l16 29l-6 22l-30 31l-29 39l-27 31l-39 47l-45 53l-33 47l-20 27l-33 39l-14 31zM182 1622l19 16l37 23l32 14h48l20 -6l4 -13l19 -2l18 -10v-33l-31 -26l-8 -17l-10 -16l-8 -4l-11 -16l-16 -15l-14 -10l-19 -2l-24 4l-15 10l-6 25l-8 8l-6 10l-12 6l-5 11v12l-2 10z M305 1497l11 10l22 -6l4 -15l-24 -12zM490 1601v21l16 16l37 23l33 14h47l16 -6l10 -13l17 -2l16 -10l4 -18l-4 -15l-14 -14l-15 -12l-8 -17l-10 -16l-10 -4l-8 -16l-15 -15l-16 -10l-23 -2l-20 4l-12 10l-9 25l-6 8l-8 10l-10 6l-4 11v12zM870 1516l7 12l20 8l2 -10l-8 -21 z" />
<glyph unicode="&#x2c6;" horiz-adv-x="731" d="M102 858v27l25 24l31 27l26 25l31 26l37 37l31 25l26 26l31 23l18 8h27l29 -19l16 -16l19 -14l26 -25l19 -20l18 -17l20 -16l23 -31l16 -26l25 -29l16 -25l17 -22l-13 -8l-22 8l-39 31l-16 12l-21 12l-26 19l-21 18l-20 10l-25 21l-16 12l-11 -6l-16 -14l-25 -15l-30 -16 l-31 -12l-33 -13l-26 -12l-19 -4l-24 -10l-31 -15l-21 -10l-22 -6z" />
<glyph unicode="&#x2dc;" horiz-adv-x="741" d="M102 860v80l7 31l18 39l18 26l27 29l37 16l41 6l31 5l34 2l27 -13l23 -24l45 -45l16 -31l20 -33l13 -16l26 -23l31 -14l33 12l24 19l17 32l14 33l2 37v59l12 21l17 6l4 -12l-6 -19l-2 -26l-4 -21v-28l-6 -27l-3 -33l-10 -28l-8 -33l-25 -27l-45 -16l-30 -8l-45 -5l-43 11 l-29 24l-14 21l-47 88l-21 8l-29 -2l-20 -10l-16 -13l-11 -18l-4 -22l-8 -21l4 -27l-12 -24l-25 -23l-41 -2l-28 10zM371 1106l2 16l16 2l14 -10l3 -12l-13 -6l-18 -4z" />
<glyph unicode="&#x2000;" horiz-adv-x="869" />
<glyph unicode="&#x2001;" horiz-adv-x="1738" />
<glyph unicode="&#x2002;" horiz-adv-x="869" />
<glyph unicode="&#x2003;" horiz-adv-x="1738" />
<glyph unicode="&#x2004;" horiz-adv-x="579" />
<glyph unicode="&#x2005;" horiz-adv-x="434" />
<glyph unicode="&#x2006;" horiz-adv-x="289" />
<glyph unicode="&#x2007;" horiz-adv-x="289" />
<glyph unicode="&#x2008;" horiz-adv-x="217" />
<glyph unicode="&#x2009;" horiz-adv-x="347" />
<glyph unicode="&#x200a;" horiz-adv-x="96" />
<glyph unicode="&#x2010;" horiz-adv-x="754" d="M63 342v37l13 29l30 20l29 10h131l37 -2l340 -76l21 -10l18 -14l8 -14l-12 -7l-37 -8h-43l-25 10l-22 -2l-39 2l-47 5l-37 -5l-33 -2l-43 -8l-65 -4l-25 -8l-63 -14h-31l-57 8l-23 10l-14 18z" />
<glyph unicode="&#x2011;" horiz-adv-x="754" d="M63 342v37l13 29l30 20l29 10h131l37 -2l340 -76l21 -10l18 -14l8 -14l-12 -7l-37 -8h-43l-25 10l-22 -2l-39 2l-47 5l-37 -5l-33 -2l-43 -8l-65 -4l-25 -8l-63 -14h-31l-57 8l-23 10l-14 18z" />
<glyph unicode="&#x2012;" horiz-adv-x="754" d="M63 342v37l13 29l30 20l29 10h131l37 -2l340 -76l21 -10l18 -14l8 -14l-12 -7l-37 -8h-43l-25 10l-22 -2l-39 2l-47 5l-37 -5l-33 -2l-43 -8l-65 -4l-25 -8l-63 -14h-31l-57 8l-23 10l-14 18z" />
<glyph unicode="&#x2013;" horiz-adv-x="963" d="M63 346l3 21l20 22l31 14l35 3l38 -9h43l33 -2l47 8l54 9l57 6l47 -4h55l47 -2l43 -9l58 -10l51 -6l33 -8h51l37 -4h24l23 -8l4 -9v-12l-10 -10l-21 -6h-24l-41 -2h-64l-37 -9l-38 -2h-46l-51 -10h-47l-53 -4h-33l-26 -2l-31 -16l-53 -21l-31 -10l-43 -2l-39 -8l-49 8 l-25 8l-24 10l-23 13l-14 18l-8 21z" />
</font>
</defs>
</svg>
